<svg version="1.2" baseProfile="tiny-ps" xmlns="http://www.w3.org/2000/svg" viewBox="0 0 482 482" width="512" height="512">
	<title>logo_single-svg</title>
	<defs>
		<linearGradient id="grd1" gradientUnits="userSpaceOnUse"  x1="67770.001" y1="106" x2="67770.001" y2="65641.393">
			<stop offset="0" stop-color="#5be584"  />
			<stop offset="1" stop-color="#00ab55"  />
		</linearGradient>
		<linearGradient id="grd2" gradientUnits="userSpaceOnUse"  x1="4622" y1="106" x2="4622" y2="9322">
			<stop offset="0" stop-color="#5be584"  />
			<stop offset="1" stop-color="#00ab55"  />
		</linearGradient>
		<linearGradient id="grd3" gradientUnits="userSpaceOnUse"  x1="4982" y1="106" x2="4982" y2="9322">
			<stop offset="0" stop-color="#5be584"  />
			<stop offset="1" stop-color="#00ab55"  />
		</linearGradient>
	</defs>
	<style>
		tspan { white-space:pre }
		.shp0 { fill: url(#grd1) } 
		.shp1 { fill: url(#grd2) } 
		.shp2 { fill: url(#grd3) } 
	</style>
	<g id="Layer">
		<g id="Layer">
			<path id="Layer" fill-rule="evenodd" class="shp0" d="M67.69 260.27C113.96 341.23 161.79 417.5 216.73 305.62C224.25 291.23 229.73 263.28 242 263.28L242 263.42C254.27 263.42 259.75 291.38 267.27 305.76C322.21 417.64 370.04 341.37 416.31 260.42C419.79 254.31 423.14 248.48 426 243.42C319.96 310.55 328.89 107.75 242 106.14L242 106C155.11 107.61 164.04 310.4 58 243.28C60.86 248.34 64.21 254.17 67.69 260.27" />
			<path id="Layer" fill-rule="evenodd" class="shp1" d="M62 106C35.49 106 14 127.49 14 154C14 180.51 35.49 202 62 202C88.51 202 110 180.51 110 154C110 127.49 88.51 106 62 106Z" />
			<path id="Layer copy" fill-rule="evenodd" class="shp2" d="M422 106C395.49 106 374 127.49 374 154C374 180.51 395.49 202 422 202C448.51 202 470 180.51 470 154C470 127.49 448.51 106 422 106Z" />
		</g>
	</g>
</svg>