<?xml version="1.0" encoding="utf-8"?>
<!-- Generator: Adobe Illustrator 25.0.0, SVG Export Plug-In . SVG Version: 6.00 Build 0)  -->
<svg version="1.1" id="Layer_1" xmlns="http://www.w3.org/2000/svg" xmlns:xlink="http://www.w3.org/1999/xlink" x="0px" y="0px"
	 viewBox="0 0 351 351" style="enable-background:new 0 0 351 351;" xml:space="preserve">
<style type="text/css">
	.st0{fill:url(#SVGID_1_);}
	.st1{fill:url(#SVGID_2_);}
</style>
<linearGradient id="SVGID_1_" gradientUnits="userSpaceOnUse" x1="38.6186" y1="217.5177" x2="270.6186" y2="76.1877" gradientTransform="matrix(1 0 0 -1 0 362)">
	<stop  offset="0" style="stop-color:#00FF5B"/>
	<stop  offset="1" style="stop-color:#0014FF"/>
</linearGradient>
<polygon class="st0" points="49.1,205 49.1,255 92.4,280 135.7,305 135.7,305 179,330 222.3,305 222.3,305 222.3,305 222.3,305 
	265.6,280 308.9,255 308.9,205 265.6,180 222.3,155 222.3,155 179,130 179,180 222.3,205 222.3,205 265.6,230 222.3,255 222.3,255 
	179,280 179,280 135.7,255 135.7,255 92.4,230 92.4,180 "/>
<linearGradient id="SVGID_2_" gradientUnits="userSpaceOnUse" x1="83.0504" y1="290.4507" x2="315.0504" y2="149.1207" gradientTransform="matrix(1 0 0 -1 0 362)">
	<stop  offset="0" style="stop-color:#00FF5B"/>
	<stop  offset="1" style="stop-color:#0014FF"/>
</linearGradient>
<polygon class="st1" points="308.9,155 308.9,105 265.6,80 222.3,55 222.3,55 179,30 135.7,55 135.7,55 135.7,55 135.7,55 92.4,80 
	49.1,105 49.1,155 92.4,180 135.7,205 135.7,205 179,230 179,180 135.7,155 135.7,155 92.4,130 135.7,105 135.7,105 179,80 179,80 
	222.3,105 222.3,105 265.6,130 265.6,180 "/>
</svg>
