<svg id="Layer_1" data-name="Layer 1" xmlns="http://www.w3.org/2000/svg" xmlns:xlink="http://www.w3.org/1999/xlink" viewBox="0 0 102.48 102.48"><defs><style>.cls-1{fill:none;}.cls-2{clip-path:url(#clip-path);}.cls-3{fill:url(#radial-gradient);}.cls-4{opacity:0.5;isolation:isolate;fill:url(#radial-gradient-2);}.cls-5{fill:#1c1b1a;}</style><clipPath id="clip-path"><rect class="cls-1" width="102.48" height="102.48"/></clipPath><radialGradient id="radial-gradient" cx="147.14" cy="440.44" r="649.09" gradientTransform="matrix(1, 0, 0, -1, 0, 440.02)" gradientUnits="userSpaceOnUse"><stop offset="0" stop-color="#fff"/><stop offset="0.38" stop-color="#c8c8c8"/><stop offset="0.67" stop-color="#fff"/><stop offset="0.82" stop-color="#aaa"/><stop offset="1" stop-color="#fff"/></radialGradient><radialGradient id="radial-gradient-2" cx="-61.49" cy="469.85" r="645.45" gradientTransform="matrix(0.87, 0, 0, -0.85, 199.71, 398.79)" gradientUnits="userSpaceOnUse"><stop offset="0.31" stop-color="#c8c8c8"/><stop offset="0.67" stop-color="#fff"/><stop offset="0.82" stop-color="#aaa"/><stop offset="1" stop-color="#fff"/></radialGradient></defs><g class="cls-2"><rect class="cls-3" x="-214" y="0.01" width="725" height="438"/><path class="cls-4" d="M511,157.44l-7.41,7.17,7.41,7.17v1.29l-8.08-7.82h0l-24.17-23.36h-24l-23.31-22.53v21.89l23.7,22.9h24l23.78,23h0L511,195v1.29l-8.08-7.81h0l-24.17-23.36h-24L430.5,141.64V118.45L382.58,72.11V48.93l-23.5-22.71-.67-.65.67-.64,23.78-23h24l2-1.93h1.33l-2.94,2.84h-24l-23.5,22.72,23.77,23V71.73l48,46.34L455.17,141h24L503,164,511,156.2ZM479.42,72.11,456.11,94.63h22.64l23.7-22.9V47.64L511,55.91V57.2l-7.61-7.35V71.73L511,79.08v1.29l-8.08-7.81L479.61,95.09l23.31,22.53,8.08-7.81v1.29l-7.61,7.35v24.09l-24.64-23.82h-24L431,95.74,406.55,72.11V48.93L381.91,25.11h24.92l.2-.18,23.5-22.72V0h.94v2.2l24.17,23.36L431.47,48.93V72.37h-.94V48.93L406.83,26H384.19L407.5,48.55V71.73L431,94.44l23.5-22.71V48.55l23.78-23-23.78-23V0h.94v2.2L479,24.93l.66.64-.66.65L455.44,48.93V72.11l-23.77,23,23.5,22.72h24l23.31,22.52v-21.9L479,95.74l-.2-.19h-25l24.64-23.82V48.55l23.78-23-23.78-23V0h.95v2.2l23.5,22.72L511,32.74V34l-8.08-7.81-23.5,22.71ZM407.69,25.57,431,48.1l23.3-22.53L431,3Zm94.76,255.09V257.49l-23.7-22.9H456.11l23.31,22.52v23.18L502.92,303l.67.65L479.42,327v23.17l-23.31,22.53h22.64l23.5-22.7.2-.18v-23.2l8.55-8.27v1.29L503.39,327v21.88l7.61-7.35v1.29l-7.61,7.35-.47.46-23.31,22.53,23.31,22.53.67.64,7.41,7.17v1.29L502.92,397l-.67-.65L479,373.81l-.2-.19h-25l24.64-23.81V326.63l23.78-23-23.78-23V257.49l-23.69-22.9-.48-.46L431,211.6h0l-24.17-23.36h-24l-23.78-23L335.58,188v23.17l-23.78,23,23.78,23v23.18L359.08,303l23.5-22.71V257.11l23.31-22.52H383.25l-23.7,22.9v23.44h-.94V257.49l-24.17-23.36,24.17-23.36V186.68l24.64,23.82h24l23.78,23h0l24.44,23.63v23.18l24.17,23.36L455.44,327v23.17l-23.77,23,23.5,22.71h24l23.78,23,.67.64,3.24,3.14c-.16.27-.32.54-.49.81l-3.42-3.3-.67-.65-23.5-22.71h-24l-23.78-23-23.78,23h-24l-23.7,22.9-.47.46L340.61,438h-1.33l19.13-18.5.2-.18V396.15l23.77-23-23.3-22.53-23.78,23-23.7,22.91V419.7L292.66,438h-1.33l19.33-18.68V396.15L334,373.62H311.33L287.16,397v-1.29l23.78-23h24l.2-.19,24-23.17,24.17,23.36H407.5v.91H383.25l-23.7,22.91v21.87l23.31-22.53h24l23.5-22.71-23.5-22.72h-24l-23.78-23-23.78,23H310.66v-.91h24.25l23.5-22.72.67-.64.67.64,23.5,22.72h24l23.78,23,23.5-22.71v-23.2l23.78-23-23.78-23V257.49L431,234.77l-23.5,22.72v23.17l-23.31,22.53h22.64l23.7-22.9V256.85h.94v23.44L455,303l.67.65-24,23.17-.2.19v24.09l-24.64-23.82h-24l-23.78-23-23.78,23h-24L287.1,350.65v-1.29l23.78-23h24l23.5-22.72-23.78-23V257.49l-23.5-22.72-.67-.64,24.17-23.36V187.59L359.08,164l24.17,23.37h24l23.78,23h0l24.17,23.36h24l24.25,23.44v23.18l7.61,7.35V289Zm-94.76,23L431,326.18l23.3-22.53L431,281.12Zm-25.31-69.52-23.3-22.53-23.31,22.53,23.31,22.53Zm-22.63,69.52,23.5,22.72h24l23.31,22.52V327l-23.7-22.91H381.91l24.64-23.81V257.11l23.78-23-23.5-22.72h-24l-23.31-22.53v21.89l23.7,22.9h24.91l-24.64,23.82v23.17Zm71.92,115.85-.67-.64-.67.64L411.2,438h1.33L431,420.16,449.47,438h1.33Zm63.1,14.66-15.63-15.11h-24l-23.5-22.72-.67-.64-.67.64-23.5,22.72h-24L363.25,438h1.33l18.67-18h24L431,397l23.78,23h24l15.12,14.6ZM511,364.71l-8.08,7.81-.67.65.67.64,8.08,7.81v-1.29l-7.41-7.16L511,366Zm-151.25,8.46-.67-.65-24.45,23.63v23.18L315.3,438h1.34l18.94-18.31V396.53ZM-191.83,2.59V1.39c-.32.09-.63.2-1,.3v.52l-19.7,19.09c-.19.59-.37,1.19-.52,1.8ZM70.93,0V3.5L74.54,0H73.2L71.87,1.3V0Zm192.73,211.4V187.59l-23.78-23,23.78-23V118.45l23.5-22.72h0l.67-.64-.67-.64h0l-23.78-23h-24L215.24,48.1,191.07,71.46h-24L142.65,95.09l.67.65,24.17-23.37h24l23.78-23,23.78,23h24l23.5,22.72-23.77,23v23.18L239.22,164h0l-.67.65.67.64h0L262.72,188v23.4ZM511,241.3v1.29l-8.08-7.82-.67-.64-23.5-22.72h-24l-23.78-23h0l-24-23.18h0l-.2-.18h-24l-23.78-23-23.22,22.56L311.6,188v23.17l-23.77,23,23.77,23v23.18l24.64,23.81H311.33l-24.17,23.36h0l-24.64-23.81-23.78-23V257.49l-24.17-23.36.67-.65,24.45,23.63v23.18l24.17,23.36,23.3,22.52,23.3-22.52-23.3-22.53v-1.29l24.17,23.36H334l-23.31-22.53V257.49l-23.5-22.72h0l-.67-.64.67-.64h0l23.5-22.71V187.59L334,165.07H311.33l-24.17,23.35h0l-24-23.17h0l-.67-.64.67-.65h0l24-23.17h0l23.78-23h24l23.5-22.72-23.78-23V48.93l-23.5-22.71-.67-.65.67-.64L334.63,2.21V0h1V2.59l-23.78,23,23.78,23V71.73l23.5,22.71,24.44,23.63v23.18l24.17,23.36L431,187.14h0l24.17,23.36h24l23.78,23h0ZM405.89,164.15l-23.31-22.52V118.45l-23.5-22.71-23.78,23h-24L287.13,142.1h0l-23.3,22.53,23.3,22.53,23.78-23h24l.2-.19h0l23.5-22.71v-21.9L335.3,141.89h-24l-24.17,23.36V164l23.78-23h24l24.64-23.82v24.09l23.7,22.9Zm97,46.16h0l-23.78-23h-24L431,164h0L407.5,141.3V118.07L383.05,94.44l-23.5-22.71V48.55l-23.78-23,23.78-23L362.22,0h-1.34L359.55,1.3V0h-.94v2.2l-23.5,22.72-.67.64.67.65,23.5,22.71V72.11l24.44,23.63,23.5,22.71v23.18L431,165.25h0l23.78,23h24L503,211.61h0l8.05,7.8v-1.29ZM267.36,438h1.33l18.47-17.85v-1.29ZM95.57,2.85h24L122.49,0h-1.34l-2,1.93h-24l-23.78,23L47.9,2.21V0H47V2.59L71.4,26.22ZM-214,325.26l21.89-21.16h24.92l-24.64-23.81V257.11L-214,235.69V237l21.22,20.51v23.17l23.31,22.53h-22.64L-214,282v1.29l21,20.33L-214,324Zm142.23,94.25-.67-.64-.67.64L-92.24,438h1.33l18.47-17.85L-54,438h1.33Zm47.47-.45h-24l-23.5-22.72-.67-.64-.67.64-23.5,22.72h-24L-140.19,438h1.34l18.66-18h24l23.78-23,23.78,23h24L-6,438h1.33Zm240.21-45.89-.67-.65L190.8,396.15v23.18L171.47,438h1.33l18.94-18.31V396.53ZM263.66,0h-.94v2.2L238.08,26H263l.2.19,24,23.17V48.1L263.9,25.57,287.16,3V1.75L263,25.11H240.35L263.66,2.59ZM-214,116.71l21.69-21h0l.2-.19h24.92l-24.64-23.79V48.55l-22-21.25c0,.39-.08.79-.1,1.19l21.14,20.44V72.11l23.31,22.52h-22.64L-214,73.47v1.29l21,20.33-21,20.33Zm69.64,255.81-24.44,23.63v23.18l-18.89,18.25,1.16.17,18.67-18.05V396.53l24.17-23.36Zm407.08-22.34V327l-24.17-23.36-23.31-22.53-.47-.46-23.7-22.9h-24l-23.78-23-23.78,23h-24L70.87,281.58V257.49l-23.7-22.9H24.59L47.9,257.11v23.18L71.4,303l23.78-23h24l23.5-22.72.67-.64.67.64L167.49,280h24l23.78,23,.67.65,23.78,23v23.15l23.5,22.71.67.65-.67.64-23.5,22.72V419.7l-19,18.31h-1.34l19.33-18.68V396.15l23.78-23-23.78-23V327l-23.5-22.72-23.78,23h-24l-24.64,23.82V327l-.2-.19-23.5-22.72H96.51l23.31,22.53v23.18l23.5,22.71,23.78-23h24l24.64-23.82v24.11l.2.18,23.31,22.53.66.65-.66.64-23.51,22.72V419.7l-19,18.31h-1.33l19.33-18.68V396.15l23.78-23-23.31-22.53-23.3,22.53-.48.45-23.69,22.91v23.17L148.83,438h-1.34l19.33-18.68V396.15l23.31-22.53H167.49L144,396.34l-.2.19v22.8l.2.18-.2.19V420h-.27l-18.67,18h-1.33l19.33-18.68V397.44L119.54,420h-24L76.88,438H75.54l19.61-18.95h24l23.7-22.91.47-.45,23.78-23h24l.2-.19,23.5-22.71V327.92l-23.31,22.53h-24L144,373.17l-.67.64-23.78,23h-24l-23.5,22.71-.67.65-.67-.65-23.5-22.71h-24l-23.78-23-.67-.64.67-.65,23.78-23h24L71.85,325.7v24.11l.2.18,23.5,22.72h22.64L94.9,350.18V327L71.4,304.29l-23.78,23h-24L0,350.18l-.47.46-23.3,22.53L-.47,395.7l.67.64,23.5,22.72h24L67.23,438H65.9L47.23,420h-24L-.55,397l-.67-.65-23.3-22.53-.2-.19H-49.6L-25,349.81V326.63l23.77-23-23.77-23V257.49l-23.7-22.9-.47-.46L-72.48,211.6h0l-24.17-23.36h-24l-23.78-23L-167.86,188v23.17l-23.78,23,23.78,23v23.18l23.5,22.65,23.5-22.71V257.11l23.31-22.52h-22.64l-23.7,22.9v23.44h-.94V257.49L-169,234.13l24.17-23.36V186.68l24.64,23.82h24l23.78,23h0L-48,257.11v23.18l24.17,23.36L-48,327v23.17l-23.78,23,23.5,22.71h24l23.78,23,.67.64L19.28,438H18L-.47,420.16l-.67-.65-23.5-22.71h-24l-23.78-23-23.78,23h-24l-23.7,22.9-.47.46L-162.83,438h-1.33l19.16-18.5.2-.18V396.15l23.78-23-23.34-22.51-23.78,23-23.69,22.89V419.7l-11.25,10.87-.71-.6,11-10.64V396.15l23.31-22.53h-22.63L-214,394.78v-1.29l21.5-20.78h24l.2-.19,24-23.17,24.11,23.36h24.25v.91h-24.25l-23.7,22.91v21.88l23.31-22.53h24l23.5-22.71-23.5-22.72h-24l-23.78-23-23.78,23h-24.64v-.91h24.25L-145,326.82l.67-.64.67.64,23.5,22.72h24l23.78,23,23.5-22.71v-23.2l23.78-23-23.78-23V257.49l-23.5-22.72-23.5,22.72v23.17l-23.37,22.53h22.64l23.7-22.9V256.85H-72v23.44L-48.47,303l.67.65-24,23.17-.2.19v24.09l-24.64-23.82h-24l-23.78-23-23.78,23h-24L-214,348.44v-1.29l21.5-20.78h24l23.5-22.72-23.77-23V257.49l-23.54-22.72-.66-.64,24.17-23.36V187.59L-144.36,164l24.17,23.37h24l23.78,23h0l24.17,23.36h24L0,257.11v23.18l23.7,22.9H46.34L23,280.66V257.49L-.5,234.77l-.67-.64-23.5-22.72h-24l-23.78-23h0l-24-23.18h0l-.2-.18h-24l-23.78-23-23.23,22.56L-191.83,188v23.17L-214,232.57v-1.29l21.22-20.51V187.59l23.31-22.52h-22.64L-214,186.23v-1.3l21.5-20.78h24l.2-.19h0l23.5-22.71V119.36l-23.34,22.53h-24L-214,163v-1.29L-192.5,141h24l24.64-23.82v24.09l23.7,22.9h22.64l-23.34-22.55V118.45l-23.5-22.71h0l-23.78,23h-24L-214,139.88v-1.29l21.5-20.78h24L-145,95.09l-23.8-23V48.93l-23.51-22.71-.69-.65.66-.64L-168.8,2.21V0h.94V2.59l-23.78,23,23.78,23V71.73l23.5,22.71h0l24.45,23.63v23.18l24.17,23.36,23.3,22.53h0l24.17,23.36h24l23.78,23h0L24,257.13v23.18L48.6,304.12h-25L0,327v21.88l23.31-22.52h24l23.5-22.72L47,280.65V257.49l-23.7-22.9-23.78-23h0l-24.17-23.36h-24l-23.78-23h0l-24.44-23.62V118.45l-23.56-22.71-24.44-23.63V48.93l-23.5-22.71-.67-.65.67-.64,23.5-22.72V0h.94V1.3L-142.56,0h1.34l-2.67,2.58-23.77,23,23.77,23V71.73l23.5,22.71h0l24.45,23.63v23.18L-72.44,164h0l24.17,23.37h24l23.78,23h0l24,23.21.16.15h24l23.78,23,23.31-22.53L71.4,211.6l-.23-.23-.24-.23-23.7-22.9h-24l-23.78-23h0l-24.17-23.36h-24L-72,119.36v21.89l23.7,22.9h24l23.78,23h0l24.17,23.36h24L72.1,234.14l-.67.64-24.2-23.37h-24l-23.78-23h0l-24.17-23.36h-24L-73,141.61V118.45l-47.89-46.34V48.93l-23.5-22.71-.64-.65.67-.64,23.78-23h24l2-1.93h1.33l-2.94,2.84h-24l-23.53,22.73,23.78,23V71.73L-72,118.07-48.27,141h24L-.49,164h0L23,141.25V118.07L46.31,95.55H23.65L0,118.45v24.09l-24.64-23.82h-24l-23.78-23L-96.88,72.11V48.93l-24.64-23.82h24.91l.2-.18,23.5-22.72V0H-72v2.2l24.2,23.36L-72,48.93V72.37h-.94V48.93L-96.61,26h-22.64l23.31,22.52v23.2l23.5,22.71h0l23.5-22.71V48.55l23.78-23-23.78-23V0H-48v2.2l23.5,22.72h0l.67.64-.67.65h0L-48,48.93V72.11l-23.78,23,23.5,22.72h24L-1,140.33V118.45L-24.5,95.74l-.2-.19H-49.6L-25,71.73V48.55l23.77-23L-25,2.59V0h1v2.2L-.5,24.93h0L23.67,48.29h24L71,70.82V48.93L47.48,26.22l-.2-.19h-24L-1,2.59V0H0v2.2l23.7,22.9H46.34L23,2.59V0h1v2.2l23.69,22.9,23.78,23,23.78-23h24l.2-.18,24-23.18L145.12,0h1.34l-3.14,3L120,25.57,95.85,48.93V72.11l-23.78,23,23.5,22.72h24l23.31,22.52v-21.9l-23.5-22.71-.2-.19H94.24l24.64-23.82V48.55l24.44-23.62,23.78-23h24l2-1.93h1.34l-3,2.84h-24L143.32,26.22l-23.5,22.71V72.11L96.51,94.63h22.64l23.7-22.9V48.55L167.1,25.11h24l23.7-22.9V0h.94V2.59L191.46,26h-24l-23.7,22.9V70.82L167.1,48.29h24l24.17-23.36L238.74,2.21V0h.95V2.59l-23.78,23,23.5,22.72h24l23.78,23h0l24.17,23.35H334L310.66,72.11V48.93l-23.5-22.71h0l-.67-.64.67-.64h0l23.5-22.73V0h.94V2.59l-23.77,23,23.77,23V71.73l24.64,23.82H311.33l-.2.19-24,23.17v-1.29l23.3-22.53-23.3-22.53h0L263,49.2H239l-23.78-23-23.78,23h-24L143.79,72.11,120,95.09l23.3,22.53,23.78-23h24l.2-.19,24-23.17,24,23.17.19.19h24.92l-24.64,23.82v23.18l-23.78,23,23.78,23V210.8l24.17,23.36,23.3,22.53V258l-24-23.18-24.45-23.63V188l-23.5-22.72-23.78,23h-24l-24.64,23.82V188l-23.7-22.9H96.51l23.31,22.52v23.18l23.5,22.71,23.78-23h24l24.64-23.82v24.09l24.17,23.36,23.78,23v23.18L287.16,303v1.29l-24.44-23.63V257.49l-23.5-22.72-24-23.17-23.3,22.53,23.77,23v23.18l.2.19L239.22,303h0l24.44,23.63v23.17l23.5,22.71h0l.67.64-.67.64h0l-23.5,22.72v23.17L244.72,438h-1.33l19.33-18.68V396.15l23.77-23ZM-95.74,25.57l23.3,22.53,23.31-22.53L-72.44,3Zm0,278.08,23.3,22.53,23.31-22.53-23.31-22.53ZM-121,234.13l-23.36-22.53-23.3,22.53,23.3,22.53Zm-22.69,69.52,23.5,22.72h24l23.31,22.52V327l-23.7-22.91h-24.94l24.64-23.81V257.11l23.77-23-23.5-22.72h-24l-23.28-22.51v21.89l23.7,22.9h24.92l-24.64,23.82v23.17Zm166.48,0L-1,280.65V257.49l-23.7-22.9H-47.33L-24,257.11v23.18L-.52,303l.67.65L-24,327v23.17l-23.33,22.53h22.64L-1.19,350l.2-.18v-23.2Zm48.61,47L48.1,373.18l23.3,22.53,23.31-22.53Zm71.92-24.46,23.31-22.53-23.31-22.53L120,303.65ZM72.07,303.66l23.78,23v23.15l24.64,23.81H95.57l-.19.19L72.07,396.34l-.67.65-.67-.65-23.5-22.72H23v-.91H47.25L71,349.81V327.92L47.64,350.45h-24L.14,373.17l23.5,22.71h24l23.78,23,23.78-23h24l23.5-22.71-23.77-23V327L94.29,303.19H119.2l.2-.19,23.3-22.52.67-.65.67.65,23.5,22.71h24.25v.91h-24.3L143.79,327v21.88l23.31-22.52h24l23.5-22.72-23.5-22.72h-24l-23.78-23-23.78,23h-24Zm143.64-185.2v23.18l-24.25,23.44h-24l-.2.18h0L143.79,188v21.88l23.31-22.52h24L215.24,164h0l23.5-22.71V118.07l23.31-22.52H239.41Zm-47.94,0v23.18l-24.45,23.62L119.15,141.9h-24L71.84,119.37v21.89L95.38,164h0l.19.19h24l23.78,23,23.31-22.53,24.17-23.36V118.07l24.44-23.63.67.65-24.17,23.36v23.18l-23.31,22.52H191.1l23.7-22.9V118.07l23.78-23L215.24,72.56l-23.3,22.53ZM71.4,95.74h0L47.9,118.45v23.18L24.59,164.15H47.23l23.7-22.9V117.16L95.57,141h24l23.78,23,23.5-22.71V118.07l23.31-22.52H167.49l-23.7,22.9v24.09l-24.64-23.82h-24ZM-1,71.73V47.64L23.64,71.46h24l23.78,23h0l23.5-22.71V48.55L118.21,26H95.57l-23.7,22.9V73L47.23,49.2h-24L-.55,26.2-24,48.93V72.11L-47.33,94.63h22.64ZM22.78,95.09-.52,72.56l-23.3,22.53,23.3,22.53ZM70.93,188l-23.5-22.72h0l-.2-.18H22.32L47,141.25V118.07l23.77-23L47.27,72.35h-24L0,49.85V71.73L23.5,94.44l.2.19H48.62L24,118.45v23.18L.2,164.63l23.5,22.72h24L71,209.87Zm71.72,46.16-23.77-23V188l-24.17-23.4L71.4,142.08,48.1,164.61l23.77,23v23.18l23.7,22.9h22.64L94.9,211.14V188l-24.17-23.4.67-.65,24.45,23.63v23.18l24.64,23.82H95.57l-.19.18L71.87,257.49v21.88l23.31-22.52h24Zm72.12,23.36-23.7-22.9H166.82v-.92h24.25l23.7-22.9V188.88l-23.31,22.53h-24L144,234.13l23.5,22.72h24l23.31,22.52Z"/><rect class="cls-1" x="-214" y="0.01" width="725" height="438"/><path class="cls-5" d="M27.57,51.3C34.26,63,41.17,74,49.1,57.85c1.09-2.08,1.88-6.12,3.65-6.12h0c1.77,0,2.57,4,3.65,6.12C64.34,74,71.25,63,77.93,51.32c.51-.88,1-1.73,1.4-2.46C64,58.56,65.33,29.26,52.75,29h0c-12.55.23-11.26,29.53-26.58,19.83l1.4,2.46"/><path class="cls-5" d="M26.75,29a6.94,6.94,0,1,0,6.93,7h0A6.94,6.94,0,0,0,26.75,29Z"/><path class="cls-5" d="M78.76,29a6.94,6.94,0,1,0,6.93,7h0A6.94,6.94,0,0,0,78.76,29Z"/><path class="cls-5" d="M20.57,74.77H21.8a.87.87,0,0,1,.51.17.47.47,0,0,1,.22.34.28.28,0,0,1-.26.26.29.29,0,0,1-.23-.12.39.39,0,0,0-.22-.11H20.6q-.18,0-.18.15a.16.16,0,0,0,.12.15l1.43.64a.9.9,0,0,1,.36.31.86.86,0,0,1,.14.47.82.82,0,0,1-.25.59.81.81,0,0,1-.55.23H20.58a.87.87,0,0,1-.52-.16c-.16-.12-.25-.23-.25-.33a.27.27,0,0,1,.08-.19.24.24,0,0,1,.21-.08.39.39,0,0,1,.22.11.41.41,0,0,0,.33.12h1a.25.25,0,0,0,.2-.09.32.32,0,0,0,.08-.21.27.27,0,0,0-.18-.26l-1.44-.65a.84.84,0,0,1-.32-.27.68.68,0,0,1,.09-.86A.65.65,0,0,1,20.57,74.77Z"/><path class="cls-5" d="M26.71,76v.64l.35.62.19-.62.06-1.56a.27.27,0,0,1,.46-.19.23.23,0,0,1,.07.19l-.05,1.67-.29,1a.23.23,0,0,1-.25.19H27a.27.27,0,0,1-.24-.14l-.29-.51-.29.5a.3.3,0,0,1-.24.15h-.28a.25.25,0,0,1-.17,0,.2.2,0,0,1-.09-.13l-.28-1L25,75a.27.27,0,0,1,.08-.19.3.3,0,0,1,.2-.08.25.25,0,0,1,.18.08.27.27,0,0,1,.08.19l.06,1.57.18.6.37-.63V76a.27.27,0,0,1,.08-.19.3.3,0,0,1,.2-.08.27.27,0,0,1,.19.08A.28.28,0,0,1,26.71,76Z"/><path class="cls-5" d="M32.52,77.85H30.88a.27.27,0,0,1-.19-.08.28.28,0,0,1,0-.38.27.27,0,0,1,.19-.08h.55v-2h-.54a.27.27,0,0,1-.27-.27.21.21,0,0,1,.08-.19.25.25,0,0,1,.19-.09h.81a.25.25,0,0,1,.19.09A.21.21,0,0,1,32,75v2.3h.54a.27.27,0,0,1,.19.08.28.28,0,0,1,0,.38A.24.24,0,0,1,32.52,77.85Zm-1.1-4.48h.28a.27.27,0,0,1,.19.08.21.21,0,0,1,.08.19v.23a.27.27,0,0,1-.08.19.21.21,0,0,1-.19.08h-.28a.28.28,0,0,1-.2-.08.26.26,0,0,1-.07-.19v-.23a.27.27,0,0,1,.27-.27Z"/><path class="cls-5" d="M37.5,77.85H37a.77.77,0,0,1-.57-.23.78.78,0,0,1-.24-.57V75.31h-.28a.27.27,0,0,1-.19-.08.3.3,0,0,1,0-.38.27.27,0,0,1,.19-.08h.29v-.66a.26.26,0,0,1,.07-.19.27.27,0,0,1,.46.19v.66h1.08a.27.27,0,0,1,.19.08.28.28,0,0,1,0,.38.27.27,0,0,1-.19.08H36.73V77a.27.27,0,0,0,.27.27h.53a.28.28,0,0,0,.28-.23q.07-.24.27-.24a.3.3,0,0,1,.2.08.29.29,0,0,1,.07.2.69.69,0,0,1-.23.48A.74.74,0,0,1,37.5,77.85Z"/><path class="cls-5" d="M43.32,77.85H42.17a.82.82,0,0,1-.52-.18l-.52-.45a.75.75,0,0,1-.25-.56V76a.78.78,0,0,1,.28-.6l.47-.4a.75.75,0,0,1,.49-.19h1.2a.27.27,0,0,1,.19.08.28.28,0,0,1,0,.38.27.27,0,0,1-.19.08H42.17a.32.32,0,0,0-.21.08l-.43.37a.31.31,0,0,0-.1.24v.66a.23.23,0,0,0,.08.18l.47.4a.41.41,0,0,0,.24.08h1.1a.27.27,0,0,1,.19.46A.25.25,0,0,1,43.32,77.85Z"/><path class="cls-5" d="M46.13,77.59V73.87a.25.25,0,0,1,.08-.18.27.27,0,0,1,.46.19v1.36L47.1,75a1,1,0,0,1,.53-.19H48a.82.82,0,0,1,.81.81l.07,2a.27.27,0,0,1-.08.19.26.26,0,0,1-.19.07.21.21,0,0,1-.19-.08.25.25,0,0,1-.08-.18l-.07-2a.27.27,0,0,0-.27-.27h-.3a.49.49,0,0,0-.23.08l-.76.5V77.6a.27.27,0,0,1-.08.19.29.29,0,0,1-.38,0A.28.28,0,0,1,46.13,77.59Z"/><path class="cls-5" d="M52.15,74.77h1.24a.82.82,0,0,1,.5.17.47.47,0,0,1,.22.34.23.23,0,0,1-.08.18.25.25,0,0,1-.18.08.31.31,0,0,1-.23-.12.39.39,0,0,0-.22-.11H52.18q-.18,0-.18.15a.16.16,0,0,0,.12.15l1.43.64a.73.73,0,0,1,.36.31.86.86,0,0,1,.14.47.78.78,0,0,1-.25.59.81.81,0,0,1-.55.23H52.16a.87.87,0,0,1-.52-.16q-.24-.18-.24-.33a.27.27,0,0,1,.08-.19.22.22,0,0,1,.2-.08.39.39,0,0,1,.22.11.41.41,0,0,0,.33.12h1a.25.25,0,0,0,.19-.09A.32.32,0,0,0,53.5,77a.27.27,0,0,0-.18-.26l-1.44-.65a.84.84,0,0,1-.32-.27.68.68,0,0,1,.09-.86A.64.64,0,0,1,52.15,74.77Z"/><path class="cls-5" d="M58.29,76v.64l.36.62.18-.62.06-1.56a.27.27,0,0,1,.54,0l-.06,1.67-.29,1a.23.23,0,0,1-.25.19h-.29a.27.27,0,0,1-.24-.14L58,77.3l-.29.5a.3.3,0,0,1-.24.15H57.2A.25.25,0,0,1,57,78a.2.2,0,0,1-.09-.13l-.28-1L56.6,75a.21.21,0,0,1,.08-.19.27.27,0,0,1,.19-.08.25.25,0,0,1,.18.08.27.27,0,0,1,.08.19l.07,1.57.17.6.37-.63V76a.27.27,0,0,1,.08-.19.3.3,0,0,1,.2-.08.27.27,0,0,1,.27.27Z"/><path class="cls-5" d="M62.73,75.92h1a1,1,0,0,1,.25,0v-.38a.27.27,0,0,0-.27-.27h-1a.27.27,0,0,1-.27-.27.21.21,0,0,1,.08-.19.27.27,0,0,1,.19-.08h1a.81.81,0,0,1,.57.23.89.89,0,0,1,.24.58l.07,2a.27.27,0,0,1-.08.19.26.26,0,0,1-.19.07.31.31,0,0,1-.2-.07.27.27,0,0,1-.08-.19l-.45.26h-.91a.78.78,0,0,1-.58-.23.83.83,0,0,1-.23-.58v-.31a.76.76,0,0,1,.24-.57A.79.79,0,0,1,62.73,75.92Zm1.34,1V76.7a.3.3,0,0,0-.08-.2.26.26,0,0,0-.19-.07H62.74a.27.27,0,0,0-.27.27V77a.27.27,0,0,0,.27.27h.76Z"/><path class="cls-5" d="M67.74,77.55v1.19a.27.27,0,0,1-.27.27.21.21,0,0,1-.19-.08.25.25,0,0,1-.09-.19V74.91a.27.27,0,0,1,.08-.19.3.3,0,0,1,.2-.08.27.27,0,0,1,.27.27v.17a1,1,0,0,1,.77-.43h.12a.78.78,0,0,1,.53.21l.44.38a.85.85,0,0,1,.3.65v.84a.86.86,0,0,1-.32.67l-.44.37a.75.75,0,0,1-.55.2h-.11a.7.7,0,0,1-.53-.21Zm.76-.12h.13a.28.28,0,0,0,.21-.1l.42-.37a.27.27,0,0,0,.11-.22v-.87a.29.29,0,0,0-.12-.23l-.45-.38a.22.22,0,0,0-.17-.07h-.15a.38.38,0,0,0-.24.15l-.4.39a.35.35,0,0,0-.1.24v.69a.37.37,0,0,0,.12.24l.38.39A.4.4,0,0,0,68.5,77.43Z"/><path class="cls-5" d="M73.53,76.16h.55a.25.25,0,0,1,.18.08.21.21,0,0,1,.08.19v.46a.26.26,0,0,1-.07.19.27.27,0,0,1-.19.08h-.55a.27.27,0,0,1-.19-.08.21.21,0,0,1-.08-.19v-.46a.21.21,0,0,1,.08-.19A.27.27,0,0,1,73.53,76.16Z"/><path class="cls-5" d="M79.89,77.85H78.25a.27.27,0,0,1,0-.54h.55v-2h-.54a.27.27,0,0,1-.19-.08A.29.29,0,0,1,78,75a.27.27,0,0,1,.08-.19.25.25,0,0,1,.19-.09h.82a.25.25,0,0,1,.19.09.27.27,0,0,1,.08.19v2.3h.53a.3.3,0,0,1,.2.08.28.28,0,0,1,0,.38A.3.3,0,0,1,79.89,77.85ZM78.8,73.37h.28a.27.27,0,0,1,.27.27v.23a.27.27,0,0,1-.27.27h-.29a.21.21,0,0,1-.19-.08.27.27,0,0,1-.08-.19v-.23a.21.21,0,0,1,.08-.19.28.28,0,0,1,.2-.08Z"/><path class="cls-5" d="M85.69,75.74v1.13a.88.88,0,0,1-.34.67,1,1,0,0,1-.7.31H84a1.05,1.05,0,0,1-.71-.31.92.92,0,0,1-.33-.67V75.74a.89.89,0,0,1,.33-.66,1,1,0,0,1,.71-.32h.63a1.09,1.09,0,0,1,.7.3A.88.88,0,0,1,85.69,75.74Zm-2.17,0v1.09a.28.28,0,0,0,.11.23l.2.17a.31.31,0,0,0,.19.06h.62a.35.35,0,0,0,.25-.1l.16-.14a.23.23,0,0,0,.1-.22V75.77a.28.28,0,0,0-.1-.24l-.19-.15a.35.35,0,0,0-.22-.08h-.56a.41.41,0,0,0-.28.09l-.18.15a.32.32,0,0,0-.1.22Z"/></g></svg>