<svg id="Layer_1" data-name="Layer 1" xmlns="http://www.w3.org/2000/svg" xmlns:xlink="http://www.w3.org/1999/xlink" viewBox="0 0 102.48 102.47"><defs><style>.cls-1{fill:none;}.cls-2{clip-path:url(#clip-path);}.cls-3{clip-path:url(#clip-path-2);}.cls-4,.cls-6{opacity:0.15;}.cls-5{fill:#fff;}.cls-6{isolation:isolate;fill:url(#linear-gradient);}</style><clipPath id="clip-path"><rect class="cls-1" y="-0.01" width="102.48" height="102.48"/></clipPath><clipPath id="clip-path-2"><rect class="cls-1" x="-214" width="725" height="438"/></clipPath><linearGradient id="linear-gradient" x1="-239.9" y1="210.75" x2="588.67" y2="210.75" gradientTransform="matrix(0.87, 0, 0, -0.87, -5.29, 402.38)" gradientUnits="userSpaceOnUse"><stop offset="0" stop-color="#b48a4e"/><stop offset="0.03" stop-color="#c49f60"/><stop offset="0.08" stop-color="#e4c884"/><stop offset="0.12" stop-color="#f8e29a"/><stop offset="0.15" stop-color="#ffeba2"/><stop offset="0.39" stop-color="#c9a666"/><stop offset="0.45" stop-color="#dbbc74"/><stop offset="0.57" stop-color="#ffe790"/><stop offset="0.82" stop-color="#b48a4e"/><stop offset="0.93" stop-color="#805c38"/><stop offset="1" stop-color="#65442d"/></linearGradient></defs><g class="cls-2"><g id="Layer_1-2" data-name="Layer 1"><g class="cls-3"><rect x="-212.5" width="725" height="438"/><g class="cls-4"><path class="cls-5" d="M-149.74,264c79.17,138.52,161,269,255,77.59,12.87-24.62,22.25-72.44,43.24-72.44v.24c21,0,30.37,47.84,43.24,72.44,94,191.42,175.83,60.93,255-77.57,6-10.46,11.68-20.43,16.58-29.09C281.89,350,297.16,3,148.5.24V0C-.16,2.75,15.11,349.72-166.32,234.88c4.9,8.66,10.63,18.63,16.58,29.07"/></g><path class="cls-6" d="M511,155.31l-7.41,7.41,7.41,7.41v1.34l-8.08-8.08h0l-24.17-24.17h-24l-23.31-23.31v22.64l23.7,23.7h24L502.92,186h0l8.08,8.08v1.33l-8.08-8.08h0l-24.17-24.17h-24L430.5,138.91V115L382.58,67V43l-23.5-23.5-.67-.67.67-.67L382.86-5.56h24l2-2h1.33l-2.94,2.94h-24l-23.5,23.5,23.77,23.78v24l48,48,23.7,23.7h24L503,162.13l8-8.13ZM479.42,67,456.11,90.33h22.64l23.7-23.7V41.71L511,50.27V51.6L503.39,44V66.63L511,74.24v1.34l-8.08-8.09L479.61,90.8l23.31,23.31L511,106v1.34L503.39,115v24.92l-24.64-24.64h-24L431,91.47,406.55,67V43L381.91,18.41h24.92l.2-.2,23.5-23.5V-7.56h.94v2.27l24.17,24.17L431.47,43.05V67.3h-.94V43.05l-23.7-23.7H384.19L407.5,42.66v24L431,90.13l23.5-23.5v-24l23.78-23.78L454.5-4.9V-7.56h.94v2.27L479,18.21l.66.67-.66.67-23.51,23.5V67L431.67,90.8l23.5,23.5h24l23.31,23.31V115L479,91.47l-.2-.2h-25l24.64-24.64v-24l23.78-23.78L478.47-4.9V-7.56h.95v2.27l23.5,23.5L511,26.29v1.34l-8.08-8.08-23.5,23.5ZM407.69,18.88,431,42.19l23.3-23.31L431-4.43Zm94.76,263.9v-24l-23.7-23.7H456.11l23.31,23.31v24l23.5,23.5.67.67-24.17,24.17v24L456.11,378h22.64l23.5-23.5.2-.2v-24l8.55-8.55v1.33l-7.61,7.61v22.64l7.61-7.61v1.33l-7.61,7.61-.47.48-23.31,23.3,23.31,23.31.67.66,7.41,7.42v1.33l-8.08-8.08-.67-.67L479,379.15l-.2-.2h-25l24.64-24.64v-24l23.78-23.78-23.78-23.78v-24l-23.69-23.7-.48-.47L431,211.34h0l-24.17-24.17h-24l-23.78-23.78-23.5,23.5v24L311.8,234.64l23.78,23.78v24l23.5,23.5,23.5-23.5v-24l23.31-23.31H383.25l-23.7,23.7v24.25h-.94V258.81l-24.17-24.17,24.17-24.17V185.55l24.64,24.65h24L431,234h0l24.44,24.45v24l24.17,24.17-24.17,24.17v24l-23.77,23.78,23.5,23.5h24L503,425.85l.67.67,3.24,3.24c-.16.28-.32.57-.49.84L503,427.19l-.67-.67L478.78,403h-24L431,379.15l-23.78,23.78h-24l-23.7,23.69-.47.48-18.47,18.46h-1.33l19.13-19.13.2-.2v-24l23.77-23.78-23.3-23.3L335.3,379l-23.7,23.7v24l-18.94,18.94h-1.33l19.33-19.33v-24L334,379H311.33l-24.17,24.17v-1.33L310.94,378h24l.2-.2,24-24L383.25,378H407.5v1H383.25l-23.7,23.7v22.64L382.86,402h24l23.5-23.5L406.83,355h-24l-23.75-23.8L335.3,355H310.66v-1h24.25l23.5-23.51.67-.66.67.66L383.25,354h24L431,377.81l23.5-23.5v-24l23.78-23.78L454.5,282.78v-24L431,235.31l-23.5,23.5v24l-23.31,23.31h22.64l23.7-23.7V258.14h.94v24.25l23.5,23.5.67.67-24,24-.2.2v24.92L406.83,331h-24l-23.78-23.78L335.3,331h-24l-24.17,24.17v-1.34l23.78-23.78h24l23.5-23.5-23.78-23.78v-24l-23.5-23.5-.67-.67,24.17-24.17v-24L359.08,162l24.17,24.17h24L431,210h0l24.17,24.17h24l24.25,24.25v24L511,290v1.34Zm-94.76,23.78L431,329.87l23.3-23.31L431,283.26Zm-25.31-71.92-23.3-23.3-23.31,23.3L359.08,258Zm-22.63,71.92,23.5,23.5h24l23.31,23.31V330.73L406.83,307H381.91l24.64-24.64v-24l23.78-23.78-23.5-23.5h-24l-23.31-23.31v22.64l23.7,23.7h24.91l-24.64,24.64v24Zm71.92,119.87-.67-.67-.67.67L411.2,445.56h1.33L431,427.1l18.47,18.46h1.33Zm63.1,15.16L479.14,426h-24l-23.5-23.51-.67-.66-.67.66L406.83,426h-24l-19.61,19.6h1.33l18.67-18.66h24L431,403.12l23.78,23.78h24l15.15,15.15ZM511,369.73l-8.08,8.08-.67.67.67.67,8.08,8.08V385.9l-7.41-7.42,7.41-7.41Zm-151.25,8.75-.67-.67-24.45,24.45v24l-19.33,19.3h1.34l18.94-18.94v-24ZM-191.83-4.9V-6.14l-1,.32v.53l-19.7,19.75c-.19.62-.37,1.24-.52,1.86ZM70.93-7.56v3.61l3.61-3.61H73.2L71.87-6.23V-7.56Zm192.73,218.7V186.5l-23.78-23.78,23.78-23.78V115l23.5-23.5h0l.67-.66-.67-.66h0L263.38,66.36h-24L215.24,42.19,191.07,66.36h-24L142.65,90.8l.67.67L167.49,67.3h24l23.78-23.78L239,67.3h24l23.5,23.5-23.77,23.78v24l-23.5,23.5h0l-.67.67.67.67h0l23.5,23.5v24.25ZM511,242.06v1.33l-8.08-8.08-.67-.67-23.5-23.5h-24L431,187.36h0l-24-24h0l-.2-.2h-24L359,139.38l-23.31,23.31-24.11,24.2v24l-23.77,23.78,23.77,23.78v24L336.24,307H311.33l-24.17,24.2h0l-24.64-24.64-23.78-23.78v-24l-24.17-24.17.67-.67,24.45,24.45v24l24.17,24.17,23.3,23.31,23.3-23.31-23.3-23.3v-1.34l24.17,24.17H334l-23.31-23.31v-24l-23.5-23.5h0l-.67-.66.67-.66h0l23.5-23.5v-24L334,163.19H311.33l-24.17,24.17h0l-24-24h0l-.67-.67.67-.67h0l24-24h0l23.78-23.78h24l23.5-23.5L334.63,67V43l-23.5-23.5-.67-.67.67-.67,23.5-23.5V-7.56h1V-4.9L311.8,18.88l23.78,23.78v24l23.5,23.5,24.44,24.45v24l24.17,24.17L431,186h0l24.17,24.17h24L502.92,234h0ZM405.89,162.25l-23.31-23.31V115l-23.5-23.5L335.3,115.25h-24l-24.17,24.16h0l-23.3,23.31L287.16,186l23.78-23.78h24l.2-.2h0l23.5-23.5V115.91L335.3,139.22h-24l-24.17,24.17v-1.34l23.78-23.77h24l24.64-24.65v24.92l23.7,23.7Zm97,47.75h0l-23.78-23.78h-24L431,162.05h0l-23.5-23.5v-24L383.05,90.13l-23.5-23.5v-24L335.77,18.88,359.55-4.9l2.67-2.66h-1.34l-1.33,1.33V-7.56h-.94v2.27l-23.5,23.5-.67.67.67.67,23.5,23.5V67l24.44,24.45,23.5,23.5v24L431,163.39h0l23.78,23.78h24L503,211.34h0l8.08,8.08v-1.34ZM267.36,445.56h1.33l18.47-18.46v-1.34ZM95.57-4.62h24l3-2.94h-1.34l-2,2h-24L71.4,18.21,47.9-5.29V-7.56H47V-4.9L71.4,19.55ZM-214,328.92-192.11,307h24.92l-24.64-24.61v-24L-214,236.25v1.34l21.22,21.22v24l23.31,23.31h-22.64L-214,284.2v1.33l21,21-21,21Zm142.23,97.51-.67-.67-.67.67-19.13,19.13h1.33l18.47-18.46L-54,445.56h1.33ZM-24.3,426h-24l-23.5-23.51-.67-.66-.67.66L-96.61,426h-24l-19.61,19.6h1.34l18.69-18.7h24l23.78-23.78,23.78,23.78h24L-6,445.56h1.33Zm240.21-47.48-.67-.67L190.8,402.26v24l-19.33,19.33h1.33l18.94-18.94v-24Zm47.75-386h-.94v2.27L238.08,19.35H263l.2.2,24,24V42.19L263.9,18.88,287.2-4.43V-5.76L263,18.41H240.35L263.66-4.9ZM-214,113.16l21.69-21.69h0l.2-.2h24.92l-24.64-24.64v-24l-22-22c0,.41-.08.82-.1,1.23l21.15,21.19V67l23.31,23.33h-22.64L-214,68.44v1.33l21,21-21,21Zm69.64,264.65-24.44,24.45v24l-18.89,18.86,1.16.17,18.67-18.67v-24l24.17-24.17ZM262.72,354.7v-24l-24.17-24.17-23.31-23.3-.47-.48-23.7-23.69h-24l-23.78-23.78-23.78,23.78h-24L70.87,283.7V258.81l-23.7-23.7H24.59L47.9,258.42v24l23.5,23.5,23.78-23.77h24l23.5-23.51.67-.66.67.66,23.5,23.51h24l23.78,23.77.67.67,23.78,23.78v24l23.5,23.5.67.67-.67.67-23.5,23.5v24l-18.94,18.94h-1.34l19.33-19.33v-24l23.78-23.78L238.74,354.7v-24l-23.5-23.5L191.46,331h-24l-24.64,24.64V330.73l-.2-.2L119.15,307H96.51l23.31,23.31v24l23.5,23.5L167.1,354h24l24.64-24.64v24.91l.2.2,23.31,23.3.66.67-.66.67-23.51,23.5v24L196.8,445.55h-1.33l19.33-19.33v-24l23.78-23.78-23.31-23.3L192,378.44l-.48.47-23.69,23.7v24l-18.94,18.94h-1.34l19.33-19.33v-24L190.13,379H167.49L144,402.45l-.2.2v23.58l.2.2-.2.19v.28h-.27l-18.67,18.66h-1.33l19.33-19.33V403.59L119.54,426.9h-24L76.88,445.56H75.54L95.18,426h24l23.7-23.7.47-.47L167.1,378h24l.2-.2,23.5-23.5V331.67L191.46,355h-24L144,378.48l-.67.67-23.78,23.78h-24l-23.5,23.5-.67.67-.67-.67-23.5-23.5h-24L-.57,379.15l-.67-.67.67-.67L23.26,354h24L71.9,329.36v24.91l.2.2L95.6,378h22.64L94.9,354.7v-24L71.4,307.2,47.62,331h-24L0,354.7l-.47.48-23.3,23.3,23.3,23.31.67.66L23.65,426h24l19.61,19.6H65.9L47.23,426.9h-24L-.55,403.12l-.67-.67-23.3-23.3-.2-.2H-49.6L-25,354.31v-24l23.77-23.78L-25,282.78v-24l-23.7-23.7-.47-.47-23.31-23.3h0l-24.17-24.17h-24l-23.71-23.75-23.5,23.5v24l-23.78,23.75,23.78,23.78v24l23.5,23.5,23.5-23.5v-24l23.31-23.31h-22.64l-23.7,23.7v24.25h-.94V258.81L-169,234.64l24.17-24.17V185.55l24.64,24.65h24L-72.44,234h0L-48,258.42v24l24.17,24.17L-48,330.73v24l-23.78,23.78,23.5,23.5h24L-.5,425.79l.67.67L19.3,445.59H18L-.52,427.1l-.67-.67-23.5-23.5h-24l-23.78-23.78-23.78,23.78h-24l-23.7,23.69-.47.48-18.41,18.46h-1.33L-145,426.43l.2-.2v-24l23.8-23.75-23.31-23.3L-168.14,379l-23.69,23.7v24l-11.25,11.17-.71-.63,11-11v-24L-169.47,379h-22.64L-214,400.84v-1.33L-192.5,378h24l.2-.2,24-24,24.11,24.2h24.25v1h-24.25l-23.7,23.7v22.64L-120.58,402h24l23.5-23.5L-96.61,355h-24l-23.75-23.8L-168.14,355h-24.64v-1h24.25L-145,330.53l.67-.66.67.66L-120.19,354h24l23.78,23.77,23.5-23.5v-24l23.78-23.78-23.78-23.78v-24l-23.5-23.5-23.5,23.5v24l-23.34,23.38h22.64l23.7-23.7V258.14H-72v24.25l23.5,23.5.67.67-24,24-.2.2v24.92L-96.61,331h-24l-23.75-23.77L-168.14,331h-24L-214,352.9v-1.34l21.5-21.5h24l23.5-23.5-23.8-23.78v-24l-23.51-23.5-.66-.67,24.17-24.14v-24L-144.36,162l24.17,24.17h24L-72.44,210h0l24.17,24.17h24L0,258.42v24l23.7,23.7H46.34L23,282.78v-24L-.5,235.28l-.67-.67-23.5-23.5h-24l-23.78-23.78h0l-24-24h0l-.2-.2h-24l-23.71-23.72-23.3,23.31-24.17,24.17v24L-214,233v-1.34l21.22-21.22v-24l23.31-23.31h-22.64l-21.89,22v-1.33l21.5-21.5h24l.2-.2h0l23.5-23.5V115.91l-23.34,23.31h-24L-214,161.11v-1.34l21.5-21.49h24l24.64-24.65v24.92l23.7,23.7h22.64l-23.34-23.31V115l-23.5-23.5h0l-23.78,23.75h-24L-214,137.14V135.8l21.5-21.5h24L-145,90.8-168.8,67V43l-23.51-23.45-.69-.67.66-.67,23.54-23.5V-7.56h.94V-4.9l-23.78,23.78,23.78,23.78v24l23.5,23.5h0l24.45,24.45v24l24.17,24.17L-72.44,186h0l24.17,24.17h24L-.52,234h0l24.45,24.45v24L48.57,307H23.65L0,330.73v22.64l23.31-23.31h24l23.5-23.5L47,282.78v-24l-23.7-23.7L-.48,211.31h0l-24.17-24.17h-24l-23.78-23.78h0l-24.44-24.45V115l-23.52-23.53L-144.83,67V43l-23.5-23.5-.67-.62.67-.67,23.5-23.5V-7.56h.94v1.33l1.33-1.33h1.34l-2.67,2.66-23.77,23.78,23.77,23.78v24l23.5,23.5h0l24.45,24.45v24l23.5,23.5h0l24.17,24.17h24L-.52,210h0l24,24,.16.16h24L71.4,258l23.31-23.31L71.4,211.39l-.23-.24-.24-.24-23.7-23.69h-24L-.55,163.44h0l-24.17-24.17h-24L-72,115.91v22.64l23.7,23.7h24L-.52,186h0l24.17,24.17h24L72.1,234.61l-.67.67L47.26,211.11h-24L-.52,187.33h0l-24.17-24.17h-24l-24.25-24.25V115l-47.92-48V43l-23.5-23.5-.64-.62.67-.67,23.75-23.77h24l2-2h1.33l-2.94,2.94h-24l-23.5,23.5,23.78,23.78v24l47.94,48,23.7,23.7h24L-.49,162.13h0L23,138.63v-24L46.32,91.32H23.65L0,115v24.92l-24.64-24.64h-24l-23.8-23.81L-96.88,67V43l-24.64-24.59h24.91l.2-.2,23.5-23.5V-7.56H-72v2.27l24.2,24.17L-72,43.05V67.3h-.94V43.05l-23.7-23.7h-22.61l23.31,23.31v24l23.5,23.5h0l23.5-23.5v-24l23.78-23.78L-48.94-4.9V-7.56H-48v2.27l23.5,23.5h0l.67.67-.67.67h0L-48,43.05V67L-71.77,90.8l23.5,23.5h24L-1,137.61V115L-24.5,91.5l-.2-.2H-49.6L-25,66.63v-24L-1.23,18.85-25-4.9V-7.56h1v2.27L-.5,18.21h0L23.67,42.38h24L71,65.69V43.05l-23.5-23.5-.2-.2h-24L-1-4.9V-7.56H0v2.27l23.7,23.7H46.34L23-4.9V-7.56h1v2.27l23.69,23.7L71.4,42.19,95.18,18.41h24l.2-.2,24-24,1.8-1.8h1.34l-3.14,3.13L120,18.88,95.85,43.05V67L72.07,90.8l23.5,23.5h24l23.31,23.31V115l-23.5-23.5-.2-.2H94.24l24.64-24.64v-24l24.44-24.45L167.1-5.56h24l2-2h1.34l-3,2.94h-24L143.32,19.55l-23.5,23.5V67L96.51,90.33h22.64l23.7-23.7v-24L167.1,18.41h24l23.7-23.7V-7.56h.94V-4.9L191.46,19.35h-24l-23.7,23.7V65.69L167.1,42.38h24l24.17-24.17,23.5-23.5V-7.56h.95V-4.9L215.91,18.88l23.5,23.5h24l23.78,23.78h0l24.17,24.17H334L310.66,67V43l-23.5-23.5h0l-.67-.66.67-.66h0l23.5-23.5V-7.56h.94V-4.9L287.83,18.88,311.6,42.66v24L336.24,91.3H311.33l-.2.2-24,24v-1.33l23.3-23.31-23.3-23.31h0L263,43.33H239L215.24,19.55,191.46,43.33h-24L143.79,67,120,90.8l23.3,23.31,23.8-23.78h24l.2-.2,24-24,24,24,.19.2h24.92L239.69,115v24l-23.78,23.78,23.78,23.78v24l24.17,24.17L287.16,258v1.33l-24-24-24.45-24.45v-24l-23.5-23.5-23.78,23.78h-24L142.79,211.8V186.89l-23.7-23.7H96.51l23.31,23.31v24l23.5,23.5,23.78-23.8h24l24.64-24.65v24.92l24.17,24.17,23.78,23.78v24l23.5,23.5v1.34l-24.44-24.45v-24l-23.5-23.5-24-24L192,234.61l23.77,23.78v24l.2.2,23.31,23.3h0l24.44,24.45v24l23.5,23.5h0l.67.66-.67.67h0l-23.5,23.5v24l-18.94,18.94H243.4l19.33-19.33v-24L286.5,378.5ZM-95.74,18.88l23.3,23.31,23.31-23.31L-72.44-4.43Zm0,287.68,23.3,23.31,23.31-23.31-23.31-23.3ZM-121,234.64l-23.31-23.3-23.3,23.3L-144.36,258Zm-22.69,71.92,23.5,23.5h24l23.31,23.31V330.73L-96.61,307h-24.91l24.64-24.64v-24l23.77-23.78-23.5-23.5h-24l-23.28-23.25v22.64l23.7,23.7h24.92l-24.64,24.64v24Zm166.48,0L-1,282.78v-24l-23.7-23.7H-47.33L-24,258.42v24l23.5,23.5.67.67L-24,330.73v24L-47.33,378h22.64l23.5-23.5.2-.2v-24ZM71.4,355.18l-23.3,23.3,23.3,23.31,23.31-23.31Zm71.92-25.31,23.31-23.31-23.31-23.3L120,306.56ZM72.07,306.56l23.78,23.78v24L120.49,379H95.57l-.19.2L72.07,402.5l-.67.67-.67-.67L47.23,379H23v-1H47.25L71,354.3V331.67L47.62,355h-24L.12,378.5,23.62,402h24L71.4,425.78,95.18,402h24l23.5-23.5-23.8-23.8v-24L94.24,306.06h24.91l.2-.2,23.3-23.3.67-.67.67.67,23.5,23.5h24.25V307H167.49l-23.7,23.7v22.64L167.1,330h24l23.5-23.5L191.1,283h-24l-23.78-23.78L119.54,283h-24ZM215.71,115v24l-24.25,24.25h-24l-.2.2h0L143.76,187v22.64l23.31-23.31h24l24.17-24.17h0l23.5-23.5v-24L262.05,91.3H239.41Zm-47.94,0v24l-24.45,24.45-24.17-24.17h-24L71.84,116v22.64l23.51,23.5h0l.19.2h24L143.32,186l23.31-23.31,24.17-24.17v-24l24.44-24.45.67.67L191.74,115v24l-23.31,23.31h22.64l23.7-23.7v-24L238.55,90.8,215.24,67.49,191.94,90.8ZM71.4,91.47h0L47.9,115v24L24.59,162.31H47.23l23.7-23.7v-25l24.64,24.65h24l23.78,23.77,23.5-23.5v-24l23.31-23.31H167.49L143.79,115v24.92l-24.64-24.64h-24ZM-1,66.63V41.71L23.64,66.36h24L71.4,90.13h0l23.5-23.5v-24l23.31-23.31H95.57L71.87,43V68L47.23,43.33h-24L-.52,19.55-24,43.05V67L-47.33,90.33h22.64ZM22.79,90.8-.52,67.49-23.82,90.8l23.3,23.31Zm48.14,96.09-23.5-23.5h0l-.2-.2H22.32L47,138.55v-24L70.73,90.8,47.23,67.3h-24L0,44V66.63l23.5,23.5.2.2H48.62L23.93,115v24L.15,162.78l23.5,23.5h24L71,209.59Zm71.72,47.75-23.77-23.78v-24L94.71,162.69,71.4,139.41,48.1,162.72,71.87,186.5v24l23.7,23.7h22.64L94.9,210.86v-24L70.73,162.69l.67-.67,24.45,24.45v24l24.64,24.64H95.57l-.19.2-23.51,23.5v22.64l23.31-23.31h24Zm72.12,24.17-23.7-23.7H166.82v-.94h24.25l23.7-23.7V187.83l-23.31,23.31h-24L144,234.64l23.5,23.5h24l23.31,23.31Z"/></g><path class="cls-5" d="M27.57,51.29C34.26,63,41.17,74,49.1,57.84c1.09-2.08,1.88-6.12,3.65-6.12h0c1.77,0,2.57,4,3.65,6.12C64.34,74,71.25,63,77.93,51.31c.51-.88,1-1.73,1.4-2.46C64,58.55,65.33,29.25,52.75,29h0c-12.55.23-11.26,29.53-26.58,19.83l1.4,2.46"/><path class="cls-5" d="M26.75,29a6.94,6.94,0,1,0,6.93,7h0A6.94,6.94,0,0,0,26.75,29Z"/><path class="cls-5" d="M78.76,29a6.94,6.94,0,1,0,6.93,7h0A6.94,6.94,0,0,0,78.76,29Z"/><path class="cls-5" d="M20.57,74.76H21.8a.87.87,0,0,1,.51.17.47.47,0,0,1,.22.34.28.28,0,0,1-.26.26.29.29,0,0,1-.23-.12.39.39,0,0,0-.22-.11H20.6q-.18,0-.18.15a.16.16,0,0,0,.12.15l1.43.64a.9.9,0,0,1,.36.31.86.86,0,0,1,.14.47.82.82,0,0,1-.25.59.81.81,0,0,1-.55.23H20.58a.87.87,0,0,1-.52-.16c-.16-.12-.25-.23-.25-.33a.27.27,0,0,1,.08-.19.24.24,0,0,1,.21-.08.39.39,0,0,1,.22.11.41.41,0,0,0,.33.12h1a.25.25,0,0,0,.2-.09.32.32,0,0,0,.08-.21.27.27,0,0,0-.18-.26l-1.44-.65a.84.84,0,0,1-.32-.27.68.68,0,0,1,.09-.86A.65.65,0,0,1,20.57,74.76Z"/><path class="cls-5" d="M26.71,76v.64l.35.62.19-.62.06-1.56a.27.27,0,0,1,.46-.19.23.23,0,0,1,.07.19l-.05,1.67-.29,1a.23.23,0,0,1-.25.19H27a.27.27,0,0,1-.24-.14l-.29-.51-.29.5a.3.3,0,0,1-.24.15h-.28a.25.25,0,0,1-.17,0,.2.2,0,0,1-.09-.13l-.28-1L25,75a.27.27,0,0,1,.08-.19.3.3,0,0,1,.2-.08.25.25,0,0,1,.18.08.27.27,0,0,1,.08.19l.06,1.57.18.6.37-.63V76a.27.27,0,0,1,.08-.19.3.3,0,0,1,.2-.08.27.27,0,0,1,.19.08A.28.28,0,0,1,26.71,76Z"/><path class="cls-5" d="M32.52,77.84H30.88a.27.27,0,0,1-.19-.08.28.28,0,0,1,0-.38.27.27,0,0,1,.19-.08h.55v-2h-.54a.27.27,0,0,1-.27-.27.21.21,0,0,1,.08-.19.25.25,0,0,1,.19-.09h.81a.25.25,0,0,1,.19.09A.21.21,0,0,1,32,75v2.3h.54a.27.27,0,0,1,.19.08.28.28,0,0,1,0,.38A.24.24,0,0,1,32.52,77.84Zm-1.1-4.48h.28a.27.27,0,0,1,.19.08.21.21,0,0,1,.08.19v.23a.27.27,0,0,1-.08.19.21.21,0,0,1-.19.08h-.28a.28.28,0,0,1-.2-.08.26.26,0,0,1-.07-.19v-.23a.27.27,0,0,1,.27-.27Z"/><path class="cls-5" d="M37.5,77.84H37a.77.77,0,0,1-.57-.23.78.78,0,0,1-.24-.57V75.3h-.28a.27.27,0,0,1-.19-.08.3.3,0,0,1,0-.38.27.27,0,0,1,.19-.08h.29V74.1a.26.26,0,0,1,.07-.19.27.27,0,0,1,.46.19v.66h1.08a.27.27,0,0,1,.19.08.28.28,0,0,1,0,.38.27.27,0,0,1-.19.08H36.73V77a.27.27,0,0,0,.27.27h.53a.28.28,0,0,0,.28-.23q.07-.24.27-.24a.3.3,0,0,1,.2.08.29.29,0,0,1,.07.2.69.69,0,0,1-.23.48A.74.74,0,0,1,37.5,77.84Z"/><path class="cls-5" d="M43.32,77.84H42.17a.82.82,0,0,1-.52-.18l-.52-.45a.75.75,0,0,1-.25-.56V76a.78.78,0,0,1,.28-.6l.47-.4a.75.75,0,0,1,.49-.19h1.2a.27.27,0,0,1,.19.08.28.28,0,0,1,0,.38.27.27,0,0,1-.19.08H42.17a.32.32,0,0,0-.21.08l-.43.37a.31.31,0,0,0-.1.24v.66a.23.23,0,0,0,.08.18l.47.4a.41.41,0,0,0,.24.08h1.1a.27.27,0,0,1,.19.46A.25.25,0,0,1,43.32,77.84Z"/><path class="cls-5" d="M46.13,77.58V73.86a.25.25,0,0,1,.08-.18.27.27,0,0,1,.46.19v1.36L47.1,75a1,1,0,0,1,.53-.19H48a.82.82,0,0,1,.81.81l.07,2a.27.27,0,0,1-.08.19.26.26,0,0,1-.19.07.21.21,0,0,1-.19-.08.25.25,0,0,1-.08-.18l-.07-2A.27.27,0,0,0,48,75.3h-.3a.49.49,0,0,0-.23.08l-.76.5v1.71a.27.27,0,0,1-.08.19.29.29,0,0,1-.38,0A.28.28,0,0,1,46.13,77.58Z"/><path class="cls-5" d="M52.15,74.76h1.24a.82.82,0,0,1,.5.17.47.47,0,0,1,.22.34.23.23,0,0,1-.08.18.25.25,0,0,1-.18.08.31.31,0,0,1-.23-.12.39.39,0,0,0-.22-.11H52.18q-.18,0-.18.15a.16.16,0,0,0,.12.15l1.43.64a.73.73,0,0,1,.36.31.86.86,0,0,1,.14.47.78.78,0,0,1-.25.59.81.81,0,0,1-.55.23H52.16a.87.87,0,0,1-.52-.16q-.24-.18-.24-.33a.27.27,0,0,1,.08-.19.22.22,0,0,1,.2-.08.39.39,0,0,1,.22.11.41.41,0,0,0,.33.12h1a.25.25,0,0,0,.19-.09A.32.32,0,0,0,53.5,77a.27.27,0,0,0-.18-.26l-1.44-.65a.84.84,0,0,1-.32-.27.68.68,0,0,1,.09-.86A.64.64,0,0,1,52.15,74.76Z"/><path class="cls-5" d="M58.29,76v.64l.36.62.18-.62.06-1.56a.27.27,0,0,1,.54,0l-.06,1.67-.29,1a.23.23,0,0,1-.25.19h-.29a.27.27,0,0,1-.24-.14L58,77.29l-.29.5a.3.3,0,0,1-.24.15H57.2a.25.25,0,0,1-.17,0,.2.2,0,0,1-.09-.13l-.28-1L56.6,75a.21.21,0,0,1,.08-.19.27.27,0,0,1,.19-.08.25.25,0,0,1,.18.08.27.27,0,0,1,.08.19l.07,1.57.17.6.37-.63V76a.27.27,0,0,1,.08-.19.3.3,0,0,1,.2-.08.27.27,0,0,1,.27.27Z"/><path class="cls-5" d="M62.73,75.91H64v-.38a.27.27,0,0,0-.27-.27h-1a.27.27,0,0,1-.27-.27.21.21,0,0,1,.08-.19.27.27,0,0,1,.19-.08h1a.81.81,0,0,1,.57.23.89.89,0,0,1,.24.58l.07,2a.27.27,0,0,1-.08.19.26.26,0,0,1-.19.07.31.31,0,0,1-.2-.07.27.27,0,0,1-.08-.19l-.45.26h-.91a.78.78,0,0,1-.58-.23.83.83,0,0,1-.23-.58v-.31a.76.76,0,0,1,.24-.57A.79.79,0,0,1,62.73,75.91Zm1.34,1v-.22a.3.3,0,0,0-.08-.2.26.26,0,0,0-.19-.07H62.74a.27.27,0,0,0-.27.27V77a.27.27,0,0,0,.27.27h.76Z"/><path class="cls-5" d="M67.74,77.54v1.19a.27.27,0,0,1-.27.27.21.21,0,0,1-.19-.08.25.25,0,0,1-.09-.19V74.9a.27.27,0,0,1,.08-.19.3.3,0,0,1,.2-.08.27.27,0,0,1,.27.27v.17a1,1,0,0,1,.77-.43h.12a.78.78,0,0,1,.53.21l.44.38a.85.85,0,0,1,.3.65v.84a.86.86,0,0,1-.32.67l-.44.37a.75.75,0,0,1-.55.2h-.11a.7.7,0,0,1-.53-.21Zm.76-.12h.13a.28.28,0,0,0,.21-.1l.42-.37a.27.27,0,0,0,.11-.22v-.87a.29.29,0,0,0-.12-.23l-.45-.38a.22.22,0,0,0-.17-.07h-.15a.38.38,0,0,0-.24.15l-.4.39a.35.35,0,0,0-.1.24v.69a.37.37,0,0,0,.12.24l.38.39A.4.4,0,0,0,68.5,77.42Z"/><path class="cls-5" d="M73.53,76.15h.55a.25.25,0,0,1,.18.08.21.21,0,0,1,.08.19v.46a.26.26,0,0,1-.07.19.27.27,0,0,1-.19.08h-.55a.27.27,0,0,1-.19-.08.21.21,0,0,1-.08-.19v-.46a.21.21,0,0,1,.08-.19A.27.27,0,0,1,73.53,76.15Z"/><path class="cls-5" d="M79.89,77.84H78.25a.27.27,0,0,1,0-.54h.55v-2h-.54a.27.27,0,0,1-.19-.08A.29.29,0,0,1,78,75a.27.27,0,0,1,.08-.19.25.25,0,0,1,.19-.09h.82a.25.25,0,0,1,.19.09.27.27,0,0,1,.08.19v2.3h.53a.3.3,0,0,1,.2.08.28.28,0,0,1,0,.38A.3.3,0,0,1,79.89,77.84ZM78.8,73.36h.28a.27.27,0,0,1,.27.27v.23a.27.27,0,0,1-.27.27h-.29a.21.21,0,0,1-.19-.08.27.27,0,0,1-.08-.19v-.23a.21.21,0,0,1,.08-.19.28.28,0,0,1,.2-.08Z"/><path class="cls-5" d="M85.69,75.73v1.13a.88.88,0,0,1-.34.67,1,1,0,0,1-.7.31H84a1.05,1.05,0,0,1-.71-.31.92.92,0,0,1-.33-.67V75.73a.89.89,0,0,1,.33-.66,1,1,0,0,1,.71-.32h.63a1.09,1.09,0,0,1,.7.3A.88.88,0,0,1,85.69,75.73Zm-2.17,0v1.09a.28.28,0,0,0,.11.23l.2.17a.31.31,0,0,0,.19.06h.62a.35.35,0,0,0,.25-.1l.16-.14a.23.23,0,0,0,.1-.22V75.76a.28.28,0,0,0-.1-.24l-.19-.15a.35.35,0,0,0-.22-.08h-.56a.41.41,0,0,0-.28.09l-.18.15a.32.32,0,0,0-.1.22Z"/></g></g></svg>