<svg id="Layer_1" data-name="Layer 1" xmlns="http://www.w3.org/2000/svg" xmlns:xlink="http://www.w3.org/1999/xlink" viewBox="0 0 601.67 117.44"><defs><style>.cls-1{fill:url(#linear-gradient);}.cls-2{fill:url(#linear-gradient-2);}.cls-3{fill:url(#linear-gradient-3);}.cls-4{font-size:85px;font-family:Calibri-Bold, Calibri;font-weight:700;}.cls-5{letter-spacing:-0.01em;}.cls-6{letter-spacing:-0.02em;}.cls-7{letter-spacing:-0.01em;}.cls-8{letter-spacing:-0.05em;}</style><linearGradient id="linear-gradient" x1="1.99" y1="714.25" x2="92.68" y2="769.49" gradientTransform="translate(0 -578)" gradientUnits="userSpaceOnUse"><stop offset="0" stop-color="#00ff5b"/><stop offset="1" stop-color="#0014ff"/></linearGradient><linearGradient id="linear-gradient-2" x1="19.36" y1="685.47" x2="110.04" y2="740.72" xlink:href="#linear-gradient"/><linearGradient id="linear-gradient-3" x1="75.75" y1="206.27" x2="75.75" y2="206.27" gradientTransform="matrix(1, 0, 0, -1, 0, 302)" xlink:href="#linear-gradient"/></defs><path class="cls-1" d="M5.74,161v17.4a2.13,2.13,0,0,0,1,1.69l16.06,9.29,17,9.84h0l16.06,9.28a2.14,2.14,0,0,0,2,0L73.9,199.2h0l17-9.84,16-9.29a2.12,2.12,0,0,0,1-1.69V161a2.1,2.1,0,0,0-1-1.69L91,150l-17-9.84h0L58,131c-.67-.39-1.18-.08-1.18.67V150l17,9.84h0L89.77,169a.74.74,0,0,1,0,1.38L73.9,179.52h0l-17,9.84h0l-17-9.84h0l-16.06-9.29a2.13,2.13,0,0,1-1-1.69V151.38c0-.75-.55-1.07-1.18-.67L6.72,159.29A2.12,2.12,0,0,0,5.74,161Z" transform="translate(-5.74 -91.28)"/><path class="cls-2" d="M108,139v-17.4a2.12,2.12,0,0,0-1-1.69l-16-9.29-17-9.84h0L57.85,91.52a2.14,2.14,0,0,0-2,0L39.82,100.8h0l-17,9.84L6.72,119.93a2.13,2.13,0,0,0-1,1.69V139a2,2,0,0,0,1,1.69L22.78,150l17,9.84h0L55.68,169c.67.39,1.18.08,1.18-.67V150l-17-9.84h0L24,131a.81.81,0,0,1,0-1.38l15.86-9.17h0l17-9.84h0l17,9.84h0L90,129.73a2,2,0,0,1,1,1.69v17.16c0,.75.55,1.07,1.18.67L107,140.67A2,2,0,0,0,108,139Z" transform="translate(-5.74 -91.28)"/><path class="cls-3" d="M75.75,95.73" transform="translate(-5.74 -91.28)"/><text class="cls-4" transform="translate(114.25 84.46)"><tspan class="cls-5">S</tspan><tspan x="39.55" y="0">WI</tspan><tspan class="cls-6" x="139.25" y="0">T</tspan><tspan x="179.46" y="0">CH</tspan><tspan class="cls-7" x="278.08" y="0">S</tspan><tspan class="cls-8" x="317.63" y="0">W</tspan><tspan x="390.68" y="0">AP</tspan></text></svg>