<svg id="Layer_1" data-name="Layer 1" xmlns="http://www.w3.org/2000/svg" xmlns:xlink="http://www.w3.org/1999/xlink" viewBox="0 0 500 500"><defs><style>.cls-1{fill:#1c1b1a;}.cls-2{fill:url(#linear-gradient);}.cls-3{fill:url(#linear-gradient-2);}</style><linearGradient id="linear-gradient" x1="109.62" y1="214.48" x2="341.62" y2="355.81" gradientUnits="userSpaceOnUse"><stop offset="0" stop-color="#00ff5b"/><stop offset="1" stop-color="#0014ff"/></linearGradient><linearGradient id="linear-gradient-2" x1="154.05" y1="141.55" x2="386.05" y2="282.88" xlink:href="#linear-gradient"/></defs><rect class="cls-1" width="500" height="500" rx="50"/><polygon class="cls-2" points="120.1 275 120.1 325 163.4 350 206.7 375 206.7 375 250 400 293.3 375 293.3 375 293.3 375 293.3 375 336.6 350 379.9 325 379.9 275 336.6 250 293.3 225 293.3 225 250 200 250 250 293.3 275 293.3 275 336.6 300 293.3 325 293.3 325 250 350 250 350 206.7 325 206.7 325 163.4 300 163.4 250 120.1 275"/><polygon class="cls-3" points="379.9 225 379.9 175 336.6 150 293.3 125 293.3 125 250 100 206.7 125 206.7 125 206.7 125 206.7 125 163.4 150 120.1 175 120.1 225 163.4 250 206.7 275 206.7 275 250 300 250 250 206.7 225 206.7 225 163.4 200 206.7 175 206.7 175 250 150 250 150 293.3 175 293.3 175 336.6 200 336.6 250 379.9 225"/></svg>