<svg id="Layer_1" data-name="Layer 1" xmlns="http://www.w3.org/2000/svg" xmlns:xlink="http://www.w3.org/1999/xlink" viewBox="0 0 259.8 298.4"><defs><style>.cls-1{fill:url(#linear-gradient);}.cls-2{fill:url(#linear-gradient-2);}.cls-3{fill:url(#linear-gradient-3);}</style><linearGradient id="linear-gradient" x1="-8.52" y1="693.27" x2="221.89" y2="833.63" gradientTransform="translate(0 -578)" gradientUnits="userSpaceOnUse"><stop offset="0" stop-color="#00ff5b"/><stop offset="1" stop-color="#0014ff"/></linearGradient><linearGradient id="linear-gradient-2" x1="35.61" y1="620.15" x2="266.02" y2="760.51" xlink:href="#linear-gradient"/><linearGradient id="linear-gradient-3" x1="178.9" y1="334.17" x2="178.9" y2="334.17" gradientTransform="matrix(1, 0, 0, -1, 0, 346.47)" xlink:href="#linear-gradient"/></defs><path class="cls-1" d="M1,178.1v44.2a5.42,5.42,0,0,0,2.5,4.3l40.8,23.6,43.3,25h0l40.8,23.6a5.51,5.51,0,0,0,5,0l40.8-23.6h0l43.3-25,40.8-23.6a5.42,5.42,0,0,0,2.5-4.3V178.1a5.42,5.42,0,0,0-2.5-4.3l-40.8-23.6-43.3-25h0l-40.3-23.3c-1.7-1-3-.2-3,1.7v46.6l43.3,25h0l40.3,23.3c1.6,1,1.6,2.5,0,3.5l-40.3,23.2h0l-43.3,25h0l-43.3-25h0L46.8,201.6a5.42,5.42,0,0,1-2.5-4.3V153.7c0-1.9-1.4-2.7-3-1.7L3.5,173.8A5.42,5.42,0,0,0,1,178.1Z" transform="translate(-1 -1)"/><path class="cls-2" d="M260.8,122.3V78.1a5.42,5.42,0,0,0-2.5-4.3L217.5,50.2l-43.3-25h0L133.4,1.6a5.51,5.51,0,0,0-5,0L87.6,25.2h0l-43.3,25L3.5,73.8A5.42,5.42,0,0,0,1,78.1v44.2a5,5,0,0,0,2.5,4.3l40.8,23.6,43.3,25h0l40.3,23.3c1.7,1,3,.2,3-1.7V150.2l-43.3-25h0L47.3,101.9a2.06,2.06,0,0,1,0-3.5L87.6,75.1h0l43.3-25h0l43.3,25h0L215,98.7a5,5,0,0,1,2.5,4.3v43.6c0,1.9,1.4,2.7,3,1.7l37.8-21.8A5.1,5.1,0,0,0,260.8,122.3Z" transform="translate(-1 -1)"/><path class="cls-3" d="M178.9,12.3" transform="translate(-1 -1)"/></svg>