<svg version="1.2" baseProfile="tiny-ps" xmlns="http://www.w3.org/2000/svg" viewBox="0 0 485 512" width="485" height="512">
	<title>logo_single-svg</title>
	<defs>
		<linearGradient id="grd1" gradientUnits="userSpaceOnUse"  x1="67770" y1="128" x2="67770" y2="65663.391">
			<stop offset="0" stop-color="#5be584"  />
			<stop offset="1" stop-color="#00ab55"  />
		</linearGradient>
		<linearGradient id="grd2" gradientUnits="userSpaceOnUse"  x1="4622" y1="128" x2="4622" y2="9344">
			<stop offset="0" stop-color="#5be584"  />
			<stop offset="1" stop-color="#00ab55"  />
		</linearGradient>
		<linearGradient id="grd3" gradientUnits="userSpaceOnUse"  x1="4982" y1="128" x2="4982" y2="9344">
			<stop offset="0" stop-color="#5be584"  />
			<stop offset="1" stop-color="#00ab55"  />
		</linearGradient>
	</defs>
	<style>
		tspan { white-space:pre }
		.shp0 { fill: url(#grd1) } 
		.shp1 { fill: url(#grd2) } 
		.shp2 { fill: url(#grd3) } 
	</style>
	<g id="Layer">
		<g id="Layer">
			<path id="Layer" fill-rule="evenodd" class="shp0" d="M67.69 282.27C113.96 363.23 161.79 439.5 216.73 327.62C224.25 313.23 229.73 285.28 242 285.28L242 285.42C254.27 285.42 259.75 313.38 267.27 327.76C322.21 439.64 370.04 363.37 416.31 282.42C419.79 276.31 423.14 270.48 426 265.42C319.96 332.55 328.89 129.75 242 128.14L242 128C155.11 129.61 164.04 332.4 58 265.28C60.86 270.34 64.21 276.17 67.69 282.27" />
			<path id="Layer" fill-rule="evenodd" class="shp1" d="M62 128C35.49 128 14 149.49 14 176C14 202.51 35.49 224 62 224C88.51 224 110 202.51 110 176C110 149.49 88.51 128 62 128Z" />
			<path id="Layer copy" fill-rule="evenodd" class="shp2" d="M422 128C395.49 128 374 149.49 374 176C374 202.51 395.49 224 422 224C448.51 224 470 202.51 470 176C470 149.49 448.51 128 422 128Z" />
		</g>
	</g>
</svg>