<svg width="300" height="300" viewBox="0 0 21 21" fill="white" xmlns="http://www.w3.org/2000/svg" xmlns:xlink="http://www.w3.org/1999/xlink"><circle r="0.32226190475953953" fill="#8ED1FC" cx="8.5" cy="0.5"></circle><circle cx="11.5" cy="1" r="0.517739708360862" fill="#FFFFFF" stroke="#8ED1FC" stroke-width="0.3860748178669455"></circle><circle r="0.31458641765396456" fill="#8ED1FC" cx="12.5" cy="0.5"></circle><circle cx="12.5" cy="3" r="0.48861331175649936" fill="#FFFFFF" stroke="#8ED1FC" stroke-width="0.3823829641252225"></circle><circle fill="#0693E3" cx="3.5" cy="3.5" r="1.5"></circle><circle fill="none" stroke-width="1" stroke="#0693E3" cx="3.5" cy="3.5" r="3"></circle><circle cx="12" cy="3.5" r="0.5026148244245962" fill="#FFFFFF" stroke="#8ED1FC" stroke-width="0.3648384248999411"></circle><circle fill="#0693E3" cx="17.5" cy="3.5" r="1.5"></circle><circle fill="none" stroke-width="1" stroke="#0693E3" cx="17.5" cy="3.5" r="3"></circle><circle cx="12" cy="5.5" r="0.4868626489554658" fill="#FFFFFF" stroke="#8ED1FC" stroke-width="0.3960511941950671"></circle><circle r="0.2538128417756904" fill="#8ED1FC" cx="8.5" cy="6.5"></circle><circle r="0.26607164547705847" fill="#8ED1FC" cx="10.5" cy="6.5"></circle><circle r="0.2852048719013097" fill="#8ED1FC" cx="12.5" cy="6.5"></circle><circle cx="11.5" cy="8" r="0.5147301600763091" fill="#FFFFFF" stroke="#8ED1FC" stroke-width="0.39262794216588365"></circle><circle cx="2.5" cy="9" r="0.4983204876242106" fill="#FFFFFF" stroke="#8ED1FC" stroke-width="0.37153716059100644"></circle><circle cx="4" cy="8.5" r="0.5194793791447566" fill="#FFFFFF" stroke="#8ED1FC" stroke-width="0.37061718666945953"></circle><circle cx="6" cy="8.5" r="0.5236325737602999" fill="#FFFFFF" stroke="#8ED1FC" stroke-width="0.3937076820040273"></circle><circle r="0.2725197863891537" fill="#8ED1FC" cx="7.5" cy="8.5"></circle><circle cx="10" cy="8.5" r="0.476872699059781" fill="#FFFFFF" stroke="#8ED1FC" stroke-width="0.38283201038379566"></circle><circle r="0.3162771891715677" fill="#8ED1FC" cx="18.5" cy="8.5"></circle><circle cx="20.5" cy="9" r="0.5243933549063441" fill="#FFFFFF" stroke="#8ED1FC" stroke-width="0.37452803349020714"></circle><circle cx="0.5" cy="10" r="0.49211542347678594" fill="#FFFFFF" stroke="#8ED1FC" stroke-width="0.3608958524338012"></circle><circle cx="2" cy="9.5" r="0.5009704164371651" fill="#FFFFFF" stroke="#8ED1FC" stroke-width="0.36912747202276036"></circle><circle cx="4.5" cy="10" r="0.5046656594038091" fill="#FFFFFF" stroke="#8ED1FC" stroke-width="0.3846913382279366"></circle><circle r="0.3298972775221934" fill="#8ED1FC" cx="10.5" cy="9.5"></circle><circle cx="19.5" cy="10" r="0.5009502278942876" fill="#FFFFFF" stroke="#8ED1FC" stroke-width="0.37890856217961905"></circle><circle cx="6" cy="10.5" r="0.5212370987522668" fill="#FFFFFF" stroke="#8ED1FC" stroke-width="0.36945724223131016"></circle><circle cx="9" cy="10.5" r="0.503907056998855" fill="#FFFFFF" stroke="#8ED1FC" stroke-width="0.3800825634449107"></circle><circle cx="15" cy="10.5" r="0.508375382307503" fill="#FFFFFF" stroke="#8ED1FC" stroke-width="0.3879975200328971"></circle><circle cx="18.5" cy="11" r="0.4917333404257873" fill="#FFFFFF" stroke="#8ED1FC" stroke-width="0.39789228656311587"></circle><circle cx="1" cy="11.5" r="0.48455392022784516" fill="#FFFFFF" stroke="#8ED1FC" stroke-width="0.37726247771531957"></circle><circle cx="2.5" cy="12" r="0.48344759569021734" fill="#FFFFFF" stroke="#8ED1FC" stroke-width="0.38532285813425143"></circle><circle cx="4.5" cy="12" r="0.4954454412964391" fill="#FFFFFF" stroke="#8ED1FC" stroke-width="0.37889244490902774"></circle><circle cx="7.5" cy="12" r="0.48385368153984326" fill="#FFFFFF" stroke="#8ED1FC" stroke-width="0.3669264480307269"></circle><circle r="0.32884074516277584" fill="#8ED1FC" cx="10.5" cy="11.5"></circle><circle r="0.3701050038823784" fill="#8ED1FC" cx="20.5" cy="11.5"></circle><circle cx="6" cy="12.5" r="0.5048942799563679" fill="#FFFFFF" stroke="#8ED1FC" stroke-width="0.365811145707413"></circle><circle cx="9" cy="12.5" r="0.4973988387665222" fill="#FFFFFF" stroke="#8ED1FC" stroke-width="0.3937323403033046"></circle><circle cx="14" cy="12.5" r="0.5026849672245309" fill="#FFFFFF" stroke="#8ED1FC" stroke-width="0.36675697065429924"></circle><circle r="0.3996604791608612" fill="#8ED1FC" cx="17.5" cy="12.5"></circle><circle cx="10" cy="13.5" r="0.48388247879383" fill="#FFFFFF" stroke="#8ED1FC" stroke-width="0.38120105549550026"></circle><circle r="0.49668756257870394" fill="#8ED1FC" cx="11.5" cy="13.5"></circle><circle cx="8.5" cy="15" r="0.5214002997118504" fill="#FFFFFF" stroke="#8ED1FC" stroke-width="0.38380294230167433"></circle><circle r="0.47016140603254686" fill="#8ED1FC" cx="10.5" cy="14.5"></circle><circle cx="12.5" cy="15" r="0.5064848259718903" fill="#FFFFFF" stroke="#8ED1FC" stroke-width="0.36074593800559784"></circle><circle r="0.46374372574302725" fill="#8ED1FC" cx="20.5" cy="15.5"></circle><circle cx="11.5" cy="17" r="0.5047034562053095" fill="#FFFFFF" stroke="#8ED1FC" stroke-width="0.3859297788318129"></circle><circle r="0.4959777188899994" fill="#8ED1FC" cx="13.5" cy="16.5"></circle><circle cx="19.5" cy="17" r="0.4872178665447382" fill="#FFFFFF" stroke="#8ED1FC" stroke-width="0.3991542324530899"></circle><circle fill="#0693E3" cx="3.5" cy="17.5" r="1.5"></circle><circle fill="none" stroke-width="1" stroke="#0693E3" cx="3.5" cy="17.5" r="3"></circle><circle cx="11.5" cy="19" r="0.5207161677073795" fill="#FFFFFF" stroke="#8ED1FC" stroke-width="0.3733135234339901"></circle><circle cx="18" cy="18.5" r="0.5121386829327246" fill="#FFFFFF" stroke="#8ED1FC" stroke-width="0.38996481218145057"></circle><circle r="0.4448184127271666" fill="#8ED1FC" cx="19.5" cy="18.5"></circle><circle cx="9.5" cy="20" r="0.4772846630606059" fill="#FFFFFF" stroke="#8ED1FC" stroke-width="0.3681737477215229"></circle><circle cx="11" cy="19.5" r="0.5156005053119976" fill="#FFFFFF" stroke="#8ED1FC" stroke-width="0.3886927718771175"></circle><circle cx="13.5" cy="20" r="0.4915922492417534" fill="#FFFFFF" stroke="#8ED1FC" stroke-width="0.3880610044033603"></circle><circle r="0.27409251261660916" fill="#8ED1FC" cx="14.5" cy="19.5"></circle><circle r="0.2878025654299678" fill="#8ED1FC" cx="20.5" cy="19.5"></circle><circle r="0.4769130146031272" fill="#8ED1FC" cx="11.5" cy="20.5"></circle><circle cx="16" cy="20.5" r="0.47767077605113567" fill="#FFFFFF" stroke="#8ED1FC" stroke-width="0.3611632876554798"></circle><circle cx="9.5" cy="2.5" r="1" fill="#FFFFFF" stroke="#8ED1FC" stroke-width="0.3527889604491216"></circle><circle r="0.31220171318807227" fill="#8ED1FC" cx="9.5" cy="2.5"></circle><circle cx="10" cy="2" r="0.7071067811865476" fill="#FFFFFF" stroke="#8ED1FC" stroke-width="0.4282418242041711"></circle><circle cx="9" cy="3" r="0.7071067811865476" fill="#FFFFFF" stroke="#8ED1FC" stroke-width="0.4542636359587864"></circle><circle cx="10" cy="3" r="0.7071067811865476" fill="#FFFFFF" stroke="#8ED1FC" stroke-width="0.5631347656349341"></circle><circle cx="9" cy="4" r="0.7071067811865476" fill="#FFFFFF" stroke="#8ED1FC" stroke-width="0.5487146816485458"></circle><circle cx="10" cy="4" r="0.7071067811865476" fill="#FFFFFF" stroke="#8ED1FC" stroke-width="0.47231072608740243"></circle><circle cx="9" cy="5" r="0.7071067811865476" fill="#FFFFFF" stroke="#8ED1FC" stroke-width="0.40183917484128917"></circle><circle cx="10" cy="5" r="0.7071067811865476" fill="#FFFFFF" stroke="#8ED1FC" stroke-width="0.5832219117935057"></circle><circle cx="13" cy="9" r="0.7071067811865476" fill="#FFFFFF" stroke="#8ED1FC" stroke-width="0.3906246258252197"></circle><circle cx="16.5" cy="9.5" r="1" fill="#FFFFFF" stroke="#8ED1FC" stroke-width="0.49670151333124546"></circle><circle r="0.4424372285900865" fill="#8ED1FC" cx="16.5" cy="9.5"></circle><circle cx="16" cy="9" r="0.7071067811865476" fill="#FFFFFF" stroke="#8ED1FC" stroke-width="0.5044128786689706"></circle><circle cx="17" cy="9" r="0.7071067811865476" fill="#FFFFFF" stroke="#8ED1FC" stroke-width="0.44124121305788006"></circle><circle cx="13" cy="10" r="0.7071067811865476" fill="#FFFFFF" stroke="#8ED1FC" stroke-width="0.4698699736473737"></circle><circle cx="16" cy="10" r="0.7071067811865476" fill="#FFFFFF" stroke="#8ED1FC" stroke-width="0.4936851470702224"></circle><circle cx="17" cy="10" r="0.7071067811865476" fill="#FFFFFF" stroke="#8ED1FC" stroke-width="0.5626096131017915"></circle><circle cx="13" cy="11" r="0.7071067811865476" fill="#FFFFFF" stroke="#8ED1FC" stroke-width="0.4496132857059991"></circle><circle cx="15.5" cy="12.5" r="1" fill="#FFFFFF" stroke="#8ED1FC" stroke-width="0.5926395746745445"></circle><circle r="0.41457477861246295" fill="#8ED1FC" cx="15.5" cy="12.5"></circle><circle cx="15" cy="13" r="0.7071067811865476" fill="#FFFFFF" stroke="#8ED1FC" stroke-width="0.4314990885136304"></circle><circle cx="16" cy="13" r="0.7071067811865476" fill="#FFFFFF" stroke="#8ED1FC" stroke-width="0.5100789782393862"></circle><circle cx="16.5" cy="15.5" r="1" fill="#FFFFFF" stroke="#8ED1FC" stroke-width="0.4464611959512587"></circle><circle r="0.2709631996482243" fill="#8ED1FC" cx="16.5" cy="15.5"></circle><circle cx="17" cy="16" r="0.7071067811865476" fill="#FFFFFF" stroke="#8ED1FC" stroke-width="0.3608395074793586"></circle><circle cx="9.5" cy="17.5" r="1" fill="#FFFFFF" stroke="#8ED1FC" stroke-width="0.41988129973080424"></circle><circle r="0.36391250849362916" fill="#8ED1FC" cx="9.5" cy="17.5"></circle><circle cx="9" cy="17" r="0.7071067811865476" fill="#FFFFFF" stroke="#8ED1FC" stroke-width="0.38731753214752235"></circle><circle cx="17" cy="17" r="0.7071067811865476" fill="#FFFFFF" stroke="#8ED1FC" stroke-width="0.42148421940648995"></circle><circle cx="9" cy="18" r="0.7071067811865476" fill="#FFFFFF" stroke="#8ED1FC" stroke-width="0.47257678634259437"></circle><circle cx="15" cy="18" r="0.7071067811865476" fill="#FFFFFF" stroke="#8ED1FC" stroke-width="0.575027720765935"></circle><circle r="0.554529845778037" fill="#FFFFFF" stroke="#8ED1FC" stroke-width="0.27371427385968927" cx="9.5" cy="7.5"></circle><circle r="0.6123053835985469" fill="#FFFFFF" stroke="#8ED1FC" stroke-width="0.32993608870991953" cx="7.5" cy="9.5"></circle><circle r="0.5892537774577921" fill="#FFFFFF" stroke="#8ED1FC" stroke-width="0.16754511658129867" cx="8.5" cy="9.5"></circle><circle r="0.5177554220559053" fill="#FFFFFF" stroke="#8ED1FC" stroke-width="0.24258224222174396" cx="10.5" cy="10.5"></circle><circle r="0.6422772243922508" fill="#FFFFFF" stroke="#8ED1FC" stroke-width="0.32440906650122303" cx="9.5" cy="11.5"></circle><circle r="0.602565160188594" fill="#FFFFFF" stroke="#8ED1FC" stroke-width="0.2148817399320779" cx="11.5" cy="12.5"></circle><circle r="0.5111342160688874" fill="#FFFFFF" stroke="#8ED1FC" stroke-width="0.295512734019462" cx="20.5" cy="12.5"></circle><circle r="0.5151252539630657" fill="#FFFFFF" stroke="#8ED1FC" stroke-width="0.29202749702150443" cx="12.5" cy="13.5"></circle><circle r="0.5824875763435791" fill="#FFFFFF" stroke="#8ED1FC" stroke-width="0.22159586594502131" cx="17.5" cy="13.5"></circle><circle r="0.4886705009997995" fill="#FFFFFF" stroke="#8ED1FC" stroke-width="0.1875016479499546" cx="19.5" cy="13.5"></circle><circle r="0.5745037838899427" fill="#FFFFFF" stroke="#8ED1FC" stroke-width="0.2157929769276101" cx="9.5" cy="14.5"></circle><circle r="0.6176863926032812" fill="#FFFFFF" stroke="#8ED1FC" stroke-width="0.2289478911360105" cx="18.5" cy="17.5"></circle><circle r="0.6220554871332866" fill="#FFFFFF" stroke="#8ED1FC" stroke-width="0.1585064700010382" cx="12.5" cy="18.5"></circle><circle r="0.5503163386614602" fill="#FFFFFF" stroke="#8ED1FC" stroke-width="0.24185052083524655" cx="12.5" cy="19.5"></circle><circle r="0.5135908395429084" fill="#FFFFFF" stroke="#8ED1FC" stroke-width="0.2147566795150439" cx="16.5" cy="19.5"></circle></svg>