<svg width="300" height="300" viewBox="0 0 21 21" fill="white" xmlns="http://www.w3.org/2000/svg" xmlns:xlink="http://www.w3.org/1999/xlink"><rect width="0.7" height="0.7" fill="#F6B506" x="8.15" y="0.15000000000000002"></rect><rect width="0.7" height="0.7" fill="#F6B506" x="10.15" y="1.15"></rect><rect width="0.7" height="0.7" fill="#F6B506" x="9.15" y="2.15"></rect><rect width="0.7" height="0.7" fill="#F6B506" x="12.15" y="2.15"></rect><rect width="2.9" height="2.9" fill="#0B2D97" x="2.05" y="2.05"></rect><rect width="0.9" height="2.9" fill="#0B2D97" x="0.04999999999999999" y="2.05"></rect><rect width="0.9" height="2.9" fill="#0B2D97" x="6.05" y="2.05"></rect><rect width="2.9" height="0.9" fill="#0B2D97" x="2.05" y="0.04999999999999999"></rect><rect width="2.9" height="0.9" fill="#0B2D97" x="2.05" y="6.05"></rect><rect width="0.7" height="0.7" fill="#F6B506" x="10.15" y="3.15"></rect><rect width="0.7" height="0.7" fill="#F6B506" x="12.15" y="3.15"></rect><rect width="2.9" height="2.9" fill="#0B2D97" x="16.05" y="2.05"></rect><rect width="0.9" height="2.9" fill="#0B2D97" x="14.05" y="2.05"></rect><rect width="0.9" height="2.9" fill="#0B2D97" x="20.05" y="2.05"></rect><rect width="2.9" height="0.9" fill="#0B2D97" x="16.05" y="0.04999999999999999"></rect><rect width="2.9" height="0.9" fill="#0B2D97" x="16.05" y="6.05"></rect><rect width="0.7" height="0.7" fill="#F6B506" x="9.15" y="8.15"></rect><rect width="0.7" height="0.7" fill="#F6B506" x="11.15" y="8.15"></rect><rect width="0.7" height="0.7" fill="#F6B506" x="16.15" y="8.15"></rect><rect width="0.7" height="0.7" fill="#F6B506" x="18.15" y="8.15"></rect><rect width="0.7" height="0.7" fill="#F6B506" x="20.15" y="8.15"></rect><rect width="0.7" height="0.7" fill="#F6B506" x="10.15" y="9.15"></rect><rect width="0.7" height="0.7" fill="#F6B506" x="15.15" y="9.15"></rect><rect width="0.7" height="0.7" fill="#F6B506" x="17.15" y="9.15"></rect><rect width="0.7" height="0.7" fill="#F6B506" x="14.15" y="10.15"></rect><rect width="0.7" height="0.7" fill="#F6B506" x="16.15" y="10.15"></rect><rect width="0.7" height="0.7" fill="#F6B506" x="7.15" y="11.15"></rect><rect width="0.7" height="0.7" fill="#F6B506" x="10.15" y="11.15"></rect><rect width="0.7" height="0.7" fill="#F6B506" x="18.15" y="11.15"></rect><rect width="0.7" height="0.7" fill="#F6B506" x="20.15" y="11.15"></rect><rect width="0.7" height="0.7" fill="#F6B506" x="2.15" y="12.15"></rect><rect width="0.7" height="0.7" fill="#F6B506" x="14.15" y="12.15"></rect><rect width="0.7" height="0.7" fill="#F6B506" x="17.15" y="12.15"></rect><rect width="0.7" height="0.7" fill="#F6B506" x="14.15" y="13.15"></rect><rect width="0.7" height="0.7" fill="#F6B506" x="10.15" y="14.15"></rect><rect width="0.7" height="0.7" fill="#F6B506" x="12.15" y="14.15"></rect><rect width="0.7" height="0.7" fill="#F6B506" x="12.15" y="15.15"></rect><rect width="0.7" height="0.7" fill="#F6B506" x="15.15" y="15.15"></rect><rect width="0.7" height="0.7" fill="#F6B506" x="20.15" y="15.15"></rect><rect width="0.7" height="0.7" fill="#F6B506" x="13.15" y="16.15"></rect><rect width="2.9" height="2.9" fill="#0B2D97" x="2.05" y="16.05"></rect><rect width="0.9" height="2.9" fill="#0B2D97" x="0.04999999999999999" y="16.05"></rect><rect width="0.9" height="2.9" fill="#0B2D97" x="6.05" y="16.05"></rect><rect width="2.9" height="0.9" fill="#0B2D97" x="2.05" y="14.05"></rect><rect width="2.9" height="0.9" fill="#0B2D97" x="2.05" y="20.05"></rect><rect width="0.7" height="0.7" fill="#F6B506" x="9.15" y="17.15"></rect><rect width="0.7" height="0.7" fill="#F6B506" x="11.15" y="17.15"></rect><rect width="0.7" height="0.7" fill="#F6B506" x="18.15" y="18.15"></rect><rect width="0.7" height="0.7" fill="#F6B506" x="20.15" y="19.15"></rect><rect width="0.7" height="0.7" fill="#F6B506" x="9.15" y="20.15"></rect><rect width="0.7" height="0.7" fill="#F6B506" x="11.15" y="20.15"></rect><rect width="0.7" height="0.7" fill="#F6B506" x="13.15" y="20.15"></rect><line x1="9.247487373415291" y1="1.2474873734152916" x2="11.752512626584709" y2="3.7525126265847084" fill="none" stroke="#0B2D97" stroke-width="0.7"></line><line x1="11.752512626584709" y1="1.2474873734152916" x2="9.247487373415291" y2="3.7525126265847084" fill="none" stroke="#0B2D97" stroke-width="0.7"></line><line x1="9.247487373415291" y1="4.247487373415291" x2="10.752512626584709" y2="5.752512626584709" fill="none" stroke="#0B2D97" stroke-width="0.7"></line><line x1="10.752512626584709" y1="4.247487373415291" x2="9.247487373415291" y2="5.752512626584709" fill="none" stroke="#0B2D97" stroke-width="0.7"></line><line x1="10.247487373415291" y1="6.247487373415291" x2="12.752512626584709" y2="8.752512626584709" fill="none" stroke="#0B2D97" stroke-width="0.7"></line><line x1="12.752512626584709" y1="6.247487373415291" x2="10.247487373415291" y2="8.752512626584709" fill="none" stroke="#0B2D97" stroke-width="0.7"></line><line x1="15.247487373415291" y1="8.247487373415291" x2="17.752512626584707" y2="10.752512626584709" fill="none" stroke="#0B2D97" stroke-width="0.7"></line><line x1="17.752512626584707" y1="8.247487373415291" x2="15.247487373415291" y2="10.752512626584709" fill="none" stroke="#0B2D97" stroke-width="0.7"></line><line x1="9.247487373415291" y1="16.247487373415293" x2="11.752512626584709" y2="18.752512626584707" fill="none" stroke="#0B2D97" stroke-width="0.7"></line><line x1="11.752512626584709" y1="16.247487373415293" x2="9.247487373415291" y2="18.752512626584707" fill="none" stroke="#0B2D97" stroke-width="0.7"></line><line x1="14.247487373415291" y1="17.247487373415293" x2="15.752512626584709" y2="18.752512626584707" fill="none" stroke="#0B2D97" stroke-width="0.7"></line><line x1="15.752512626584709" y1="17.247487373415293" x2="14.247487373415291" y2="18.752512626584707" fill="none" stroke="#0B2D97" stroke-width="0.7"></line><rect width="1.7" height="0.7" fill="#F6B506" x="11.15" y="0.15000000000000002"></rect><rect width="0.7" height="3.7" fill="#E02020" x="8.15" y="2.15"></rect><rect width="0.7" height="0.7" fill="#E02020" x="8.15" y="6.15"></rect><rect width="1.7" height="0.7" fill="#F6B506" x="11.15" y="5.15"></rect><rect width="5.7" height="0.7" fill="#F6B506" x="2.15" y="8.15"></rect><rect width="0.7" height="3.7" fill="#E02020" x="13.15" y="8.15"></rect><rect width="0.7" height="0.7" fill="#E02020" x="13.15" y="12.15"></rect><rect width="0.7" height="1.7" fill="#E02020" x="0.15000000000000002" y="9.15"></rect><rect width="0.7" height="0.7" fill="#E02020" x="0.15000000000000002" y="11.15"></rect><rect width="1.7" height="0.7" fill="#F6B506" x="1.15" y="9.15"></rect><rect width="0.7" height="2.7" fill="#E02020" x="4.15" y="9.15"></rect><rect width="0.7" height="0.7" fill="#E02020" x="4.15" y="12.15"></rect><rect width="0.7" height="1.7" fill="#E02020" x="12.15" y="9.15"></rect><rect width="0.7" height="0.7" fill="#E02020" x="12.15" y="11.15"></rect><rect width="1.7" height="0.7" fill="#F6B506" x="19.15" y="9.15"></rect><rect width="1.7" height="0.7" fill="#F6B506" x="5.15" y="10.15"></rect><rect width="1.7" height="0.7" fill="#F6B506" x="8.15" y="10.15"></rect><rect width="1.7" height="0.7" fill="#F6B506" x="18.15" y="10.15"></rect><rect width="1.7" height="0.7" fill="#F6B506" x="1.15" y="11.15"></rect><rect width="0.7" height="1.7" fill="#E02020" x="15.15" y="11.15"></rect><rect width="0.7" height="0.7" fill="#E02020" x="15.15" y="13.15"></rect><rect width="4.7" height="0.7" fill="#F6B506" x="5.15" y="12.15"></rect><rect width="0.7" height="4.7" fill="#E02020" x="16.15" y="12.15"></rect><rect width="0.7" height="0.7" fill="#E02020" x="16.15" y="17.15"></rect><rect width="2.7" height="0.7" fill="#F6B506" x="9.15" y="13.15"></rect><rect width="0.7" height="3.7" fill="#E02020" x="8.15" y="14.15"></rect><rect width="0.7" height="0.7" fill="#E02020" x="8.15" y="18.15"></rect><rect width="0.7" height="2.7" fill="#E02020" x="17.15" y="15.15"></rect><rect width="0.7" height="0.7" fill="#E02020" x="17.15" y="18.15"></rect><rect width="0.7" height="1.7" fill="#E02020" x="19.15" y="16.15"></rect><rect width="0.7" height="0.7" fill="#E02020" x="19.15" y="18.15"></rect><rect width="2.7" height="0.7" fill="#F6B506" x="9.15" y="19.15"></rect><rect width="1.7" height="0.7" fill="#F6B506" x="13.15" y="19.15"></rect><rect width="1.7" height="0.7" fill="#F6B506" x="15.15" y="20.15"></rect></svg>