<svg width="300" height="300" viewBox="0 0 21 21" fill="white" xmlns="http://www.w3.org/2000/svg" xmlns:xlink="http://www.w3.org/1999/xlink"><circle fill="none" stroke-width="1.4" stroke="#FCB900" cx="10.5" cy="10.5" r="4.826003781598187"></circle><circle opacity="0" r="0.25" stroke="#EB144C" stroke-width="0.1" fill="#FFFFFF" cx="0.5" cy="7.5"></circle><circle opacity="0" r="0.25" stroke="#EB144C" stroke-width="0.1" fill="#FFFFFF" cx="0.5" cy="8.5"></circle><circle opacity="1" r="0.25" fill="#EB144C" cx="0.5" cy="9.5"></circle><circle opacity="1" r="0.25" fill="#EB144C" cx="0.5" cy="10.5"></circle><circle opacity="1" r="0.25" fill="#EB144C" cx="0.5" cy="11.5"></circle><circle opacity="0" r="0.25" stroke="#EB144C" stroke-width="0.1" fill="#FFFFFF" cx="0.5" cy="12.5"></circle><circle opacity="0" r="0.25" stroke="#EB144C" stroke-width="0.1" fill="#FFFFFF" cx="0.5" cy="13.5"></circle><circle opacity="0" r="0.25" stroke="#EB144C" stroke-width="0.1" fill="#FFFFFF" cx="1.5" cy="1.5"></circle><circle opacity="0" r="0.25" stroke="#EB144C" stroke-width="0.1" fill="#FFFFFF" cx="1.5" cy="2.5"></circle><circle opacity="0" r="0.25" fill="#FFFFFF" cx="1.5" cy="3.5" stroke="#EB144C" stroke-width="0.1"></circle><circle opacity="0" r="0.25" fill="#FFFFFF" cx="1.5" cy="4.5" stroke="#EB144C" stroke-width="0.1"></circle><circle opacity="0" r="0.25" fill="#FFFFFF" cx="1.5" cy="5.5" stroke="#EB144C" stroke-width="0.1"></circle><circle opacity="0" r="0.25" stroke="#EB144C" stroke-width="0.1" fill="#FFFFFF" cx="1.5" cy="7.5"></circle><circle opacity="0" r="0.25" stroke="#EB144C" stroke-width="0.1" fill="#FFFFFF" cx="1.5" cy="8.5"></circle><circle opacity="1" r="0.25" fill="#EB144C" cx="1.5" cy="9.5"></circle><circle opacity="0" r="0.25" stroke="#EB144C" stroke-width="0.1" fill="#FFFFFF" cx="1.5" cy="10.5"></circle><circle opacity="1" r="0.25" fill="#EB144C" cx="1.5" cy="11.5"></circle><circle opacity="0" r="0.25" stroke="#EB144C" stroke-width="0.1" fill="#FFFFFF" cx="1.5" cy="12.5"></circle><circle opacity="0" r="0.25" stroke="#EB144C" stroke-width="0.1" fill="#FFFFFF" cx="1.5" cy="13.5"></circle><circle opacity="0" r="0.25" stroke="#EB144C" stroke-width="0.1" fill="#FFFFFF" cx="1.5" cy="15.5"></circle><circle opacity="0" r="0.25" stroke="#EB144C" stroke-width="0.1" fill="#FFFFFF" cx="1.5" cy="16.5"></circle><circle opacity="0" r="0.25" stroke="#EB144C" stroke-width="0.1" fill="#FFFFFF" cx="1.5" cy="17.5"></circle><circle opacity="0" r="0.25" stroke="#EB144C" stroke-width="0.1" fill="#FFFFFF" cx="1.5" cy="18.5"></circle><circle opacity="0" r="0.25" stroke="#EB144C" stroke-width="0.1" fill="#FFFFFF" cx="1.5" cy="19.5"></circle><circle opacity="0" r="0.25" stroke="#EB144C" stroke-width="0.1" fill="#FFFFFF" cx="2.5" cy="1.5"></circle><circle opacity="0" r="0.25" stroke="#EB144C" stroke-width="0.1" fill="#FFFFFF" cx="2.5" cy="5.5"></circle><circle opacity="0" r="0.25" stroke="#EB144C" stroke-width="0.1" fill="#FFFFFF" cx="2.5" cy="7.5"></circle><circle opacity="1" r="0.25" fill="#EB144C" cx="2.5" cy="8.5"></circle><circle opacity="1" r="0.25" fill="#EB144C" cx="2.5" cy="9.5"></circle><circle opacity="0" r="0.25" stroke="#EB144C" stroke-width="0.1" fill="#FFFFFF" cx="2.5" cy="10.5"></circle><circle opacity="1" r="0.25" fill="#EB144C" cx="2.5" cy="11.5"></circle><circle opacity="1" r="0.25" fill="#EB144C" cx="2.5" cy="12.5"></circle><circle opacity="0" r="0.25" fill="#FFFFFF" cx="2.5" cy="13.5" stroke="#EB144C" stroke-width="0.1"></circle><circle opacity="0" r="0.25" stroke="#EB144C" stroke-width="0.1" fill="#FFFFFF" cx="2.5" cy="15.5"></circle><circle opacity="0" r="0.25" stroke="#EB144C" stroke-width="0.1" fill="#FFFFFF" cx="2.5" cy="19.5"></circle><circle opacity="0" r="0.25" stroke="#EB144C" stroke-width="0.1" fill="#FFFFFF" cx="3.5" cy="1.5"></circle><circle r="1.5" fill="#9900EF" cx="3.5" cy="3.5"></circle><circle r="3" stroke="#9900EF" stroke-width="0.15" fill="none" cx="3.5" cy="3.5" stroke-dasharray="0.5,0.5"></circle><circle r="0.5" fill="#9900EF" cx="6.5" cy="3.5"></circle><circle r="0.5" fill="#9900EF" cx="0.5" cy="3.5"></circle><circle r="0.5" fill="#9900EF" cx="3.5" cy="6.5"></circle><circle r="0.5" fill="#9900EF" cx="3.5" cy="0.5"></circle><circle opacity="0" r="0.25" stroke="#EB144C" stroke-width="0.1" fill="#FFFFFF" cx="3.5" cy="5.5"></circle><circle opacity="0" r="0.25" stroke="#EB144C" stroke-width="0.1" fill="#FFFFFF" cx="3.5" cy="7.5"></circle><circle opacity="1" r="0.25" fill="#EB144C" cx="3.5" cy="8.5"></circle><circle opacity="0" r="0.25" stroke="#EB144C" stroke-width="0.1" fill="#FFFFFF" cx="3.5" cy="9.5"></circle><circle opacity="0" r="0.25" stroke="#EB144C" stroke-width="0.1" fill="#FFFFFF" cx="3.5" cy="10.5"></circle><circle r="0.25" fill="#FFFFFF" cx="3.5" cy="11.5" opacity="0" stroke="#EB144C" stroke-width="0.1"></circle><circle fill="#FFFFFF" stroke-width="0.1" stroke="#EB144C" cx="3.5" cy="12.5" r="0.25" opacity="0"></circle><circle opacity="0" r="0.25" stroke="#EB144C" stroke-width="0.1" fill="#FFFFFF" cx="3.5" cy="13.5"></circle><circle opacity="0" r="0.25" fill="#FFFFFF" cx="3.5" cy="15.5" stroke="#EB144C" stroke-width="0.1"></circle><circle r="1.5" fill="#9900EF" cx="3.5" cy="17.5"></circle><circle r="3" stroke="#9900EF" stroke-width="0.15" fill="none" cx="3.5" cy="17.5" stroke-dasharray="0.5,0.5"></circle><circle r="0.5" fill="#9900EF" cx="6.5" cy="17.5"></circle><circle r="0.5" fill="#9900EF" cx="0.5" cy="17.5"></circle><circle r="0.5" fill="#9900EF" cx="3.5" cy="20.5"></circle><circle r="0.5" fill="#9900EF" cx="3.5" cy="14.5"></circle><circle opacity="0" r="0.25" fill="#FFFFFF" cx="3.5" cy="19.5" stroke="#EB144C" stroke-width="0.1"></circle><circle opacity="0" r="0.25" stroke="#EB144C" stroke-width="0.1" fill="#FFFFFF" cx="4.5" cy="1.5"></circle><circle opacity="0" r="0.25" stroke="#EB144C" stroke-width="0.1" fill="#FFFFFF" cx="4.5" cy="5.5"></circle><circle opacity="0" r="0.25" stroke="#EB144C" stroke-width="0.1" fill="#FFFFFF" cx="4.5" cy="7.5"></circle><circle opacity="1" r="0.25" fill="#EB144C" cx="4.5" cy="8.5"></circle><circle opacity="1" r="0.25" fill="#EB144C" cx="4.5" cy="9.5"></circle><circle opacity="1" r="0.25" fill="#EB144C" cx="4.5" cy="10.5"></circle><circle opacity="1" r="0.25" fill="#EB144C" cx="4.5" cy="11.5"></circle><circle opacity="1" r="0.25" fill="#EB144C" cx="4.5" cy="12.5"></circle><circle opacity="0" r="0.25" stroke="#EB144C" stroke-width="0.1" fill="#FFFFFF" cx="4.5" cy="13.5"></circle><circle opacity="0" r="0.25" fill="#FFFFFF" cx="4.5" cy="15.5" stroke="#EB144C" stroke-width="0.1"></circle><circle opacity="0" r="0.25" stroke="#EB144C" stroke-width="0.1" fill="#FFFFFF" cx="4.5" cy="19.5"></circle><circle opacity="0" r="0.25" fill="#FFFFFF" cx="5.5" cy="1.5" stroke="#EB144C" stroke-width="0.1"></circle><circle opacity="0" r="0.25" stroke="#EB144C" stroke-width="0.1" fill="#FFFFFF" cx="5.5" cy="2.5"></circle><circle opacity="0" r="0.25" fill="#FFFFFF" cx="5.5" cy="3.5" stroke="#EB144C" stroke-width="0.1"></circle><circle opacity="0" r="0.25" stroke="#EB144C" stroke-width="0.1" fill="#FFFFFF" cx="5.5" cy="4.5"></circle><circle opacity="0" r="0.25" stroke="#EB144C" stroke-width="0.1" fill="#FFFFFF" cx="5.5" cy="5.5"></circle><circle opacity="1" r="0.5" stroke="#FCB900" stroke-width="0.1" fill="#FFFFFF" cx="5.5" cy="7.5"></circle><circle opacity="1" r="0.5" fill="#FCB900" cx="5.5" cy="8.5"></circle><circle opacity="1" r="0.5" stroke="#FCB900" stroke-width="0.1" fill="#FFFFFF" cx="5.5" cy="9.5"></circle><circle opacity="1" r="0.5" fill="#FCB900" cx="5.5" cy="10.5"></circle><circle opacity="1" r="0.5" stroke="#FCB900" stroke-width="0.1" fill="#FFFFFF" cx="5.5" cy="11.5"></circle><circle opacity="1" r="0.5" fill="#FCB900" cx="5.5" cy="12.5"></circle><circle opacity="1" r="0.5" stroke="#FCB900" stroke-width="0.1" fill="#FFFFFF" cx="5.5" cy="13.5"></circle><circle opacity="0" r="0.25" fill="#FFFFFF" cx="5.5" cy="15.5" stroke="#EB144C" stroke-width="0.1"></circle><circle opacity="0" r="0.25" stroke="#EB144C" stroke-width="0.1" fill="#FFFFFF" cx="5.5" cy="16.5"></circle><circle opacity="0" r="0.25" fill="#FFFFFF" cx="5.5" cy="17.5" stroke="#EB144C" stroke-width="0.1"></circle><circle opacity="0" r="0.25" stroke="#EB144C" stroke-width="0.1" fill="#FFFFFF" cx="5.5" cy="18.5"></circle><circle opacity="0" r="0.25" stroke="#EB144C" stroke-width="0.1" fill="#FFFFFF" cx="5.5" cy="19.5"></circle><circle opacity="1" r="0.5" stroke="#FCB900" stroke-width="0.1" fill="#FFFFFF" cx="6.5" cy="7.5"></circle><circle opacity="1" r="0.5" fill="#FCB900" cx="6.5" cy="8.5"></circle><circle opacity="1" r="0.5" stroke="#FCB900" stroke-width="0.1" fill="#FFFFFF" cx="6.5" cy="9.5"></circle><circle opacity="1" r="0.5" fill="#FCB900" cx="6.5" cy="10.5"></circle><circle opacity="1" r="0.5" stroke="#FCB900" stroke-width="0.1" fill="#FFFFFF" cx="6.5" cy="11.5"></circle><circle opacity="1" r="0.5" fill="#FCB900" cx="6.5" cy="12.5"></circle><circle opacity="1" r="0.5" fill="#FFFFFF" cx="6.5" cy="13.5" stroke="#FCB900" stroke-width="0.1"></circle><circle opacity="0" r="0.25" fill="#FFFFFF" cx="7.5" cy="0.5" stroke="#EB144C" stroke-width="0.1"></circle><circle opacity="0" r="0.25" fill="#FFFFFF" cx="7.5" cy="1.5" stroke="#EB144C" stroke-width="0.1"></circle><circle opacity="0" r="0.25" fill="#FFFFFF" cx="7.5" cy="2.5" stroke="#EB144C" stroke-width="0.1"></circle><circle opacity="0" r="0.25" fill="#FFFFFF" cx="7.5" cy="3.5" stroke="#EB144C" stroke-width="0.1"></circle><circle opacity="0" r="0.25" fill="#FFFFFF" cx="7.5" cy="4.5" stroke="#EB144C" stroke-width="0.1"></circle><circle opacity="1" r="0.5" stroke="#FCB900" stroke-width="0.1" fill="#FFFFFF" cx="7.5" cy="5.5"></circle><circle opacity="1" r="0.5" stroke="#FCB900" stroke-width="0.1" fill="#FFFFFF" cx="7.5" cy="6.5"></circle><circle opacity="1" r="0.5" stroke="#FCB900" stroke-width="0.1" fill="#FFFFFF" cx="7.5" cy="7.5"></circle><circle opacity="1" r="0.25" fill="#EB144C" cx="7.5" cy="8.5"></circle><circle opacity="0" r="0.25" stroke="#EB144C" stroke-width="0.1" fill="#FFFFFF" cx="7.5" cy="9.5"></circle><circle opacity="0" r="0.25" stroke="#EB144C" stroke-width="0.1" fill="#FFFFFF" cx="7.5" cy="10.5"></circle><circle opacity="1" r="0.25" fill="#EB144C" cx="7.5" cy="11.5"></circle><circle opacity="1" r="0.25" fill="#EB144C" cx="7.5" cy="12.5"></circle><circle opacity="1" r="0.5" fill="#FFFFFF" cx="7.5" cy="13.5" stroke="#FCB900" stroke-width="0.1"></circle><circle opacity="1" r="0.5" stroke="#FCB900" stroke-width="0.1" fill="#FFFFFF" cx="7.5" cy="14.5"></circle><circle opacity="1" r="0.5" fill="#FFFFFF" cx="7.5" cy="15.5" stroke="#FCB900" stroke-width="0.1"></circle><circle opacity="0" r="0.25" fill="#FFFFFF" cx="7.5" cy="16.5" stroke="#EB144C" stroke-width="0.1"></circle><circle opacity="0" r="0.25" fill="#FFFFFF" cx="7.5" cy="17.5" stroke="#EB144C" stroke-width="0.1"></circle><circle opacity="0" r="0.25" fill="#FFFFFF" cx="7.5" cy="18.5" stroke="#EB144C" stroke-width="0.1"></circle><circle opacity="0" r="0.25" fill="#FFFFFF" cx="7.5" cy="19.5" stroke="#EB144C" stroke-width="0.1"></circle><circle opacity="0" r="0.25" fill="#FFFFFF" cx="7.5" cy="20.5" stroke="#EB144C" stroke-width="0.1"></circle><circle opacity="1" r="0.25" fill="#EB144C" cx="8.5" cy="0.5"></circle><circle opacity="0" r="0.25" fill="#FFFFFF" cx="8.5" cy="1.5" stroke="#EB144C" stroke-width="0.1"></circle><circle opacity="1" r="0.25" fill="#EB144C" cx="8.5" cy="2.5"></circle><circle opacity="1" r="0.25" fill="#EB144C" cx="8.5" cy="3.5"></circle><circle opacity="1" r="0.25" fill="#EB144C" cx="8.5" cy="4.5"></circle><circle opacity="1" r="0.5" fill="#FCB900" cx="8.5" cy="5.5"></circle><circle opacity="1" r="0.5" fill="#FCB900" cx="8.5" cy="6.5"></circle><circle opacity="0" r="0.25" fill="#FFFFFF" cx="8.5" cy="7.5" stroke="#EB144C" stroke-width="0.1"></circle><circle opacity="0" r="0.25" fill="#FFFFFF" cx="8.5" cy="8.5" stroke="#EB144C" stroke-width="0.1"></circle><circle opacity="0" r="0.25" fill="#FFFFFF" cx="8.5" cy="9.5" stroke="#EB144C" stroke-width="0.1"></circle><circle opacity="1" r="0.25" fill="#EB144C" cx="8.5" cy="10.5"></circle><circle opacity="0" r="0.25" stroke="#EB144C" stroke-width="0.1" fill="#FFFFFF" cx="8.5" cy="11.5"></circle><circle opacity="1" r="0.25" fill="#EB144C" cx="8.5" cy="12.5"></circle><circle opacity="0" r="0.25" stroke="#EB144C" stroke-width="0.1" fill="#FFFFFF" cx="8.5" cy="13.5"></circle><circle opacity="1" r="0.5" fill="#FCB900" cx="8.5" cy="14.5"></circle><circle opacity="1" r="0.5" fill="#FCB900" cx="8.5" cy="15.5"></circle><circle opacity="1" r="0.25" fill="#EB144C" cx="8.5" cy="16.5"></circle><circle opacity="1" r="0.25" fill="#EB144C" cx="8.5" cy="17.5"></circle><circle opacity="1" r="0.25" fill="#EB144C" cx="8.5" cy="18.5"></circle><circle opacity="0" r="0.25" stroke="#EB144C" stroke-width="0.1" fill="#FFFFFF" cx="8.5" cy="19.5"></circle><circle opacity="0" r="0.25" fill="#FFFFFF" cx="8.5" cy="20.5" stroke="#EB144C" stroke-width="0.1"></circle><circle opacity="0" r="0.25" fill="#FFFFFF" cx="9.5" cy="0.5" stroke="#EB144C" stroke-width="0.1"></circle><circle opacity="1" r="0.25" fill="#EB144C" cx="9.5" cy="1.5"></circle><circle opacity="1" r="0.25" fill="#EB144C" cx="9.5" cy="2.5"></circle><circle opacity="1" r="0.25" fill="#EB144C" cx="9.5" cy="3.5"></circle><circle opacity="1" r="0.25" fill="#EB144C" cx="9.5" cy="4.5"></circle><circle opacity="1" r="0.5" fill="#FCB900" cx="9.5" cy="5.5"></circle><circle opacity="1" r="0.5" stroke="#FCB900" stroke-width="0.1" fill="#FFFFFF" cx="9.5" cy="6.5"></circle><circle opacity="0" r="0.25" stroke="#EB144C" stroke-width="0.1" fill="#FFFFFF" cx="9.5" cy="7.5"></circle><circle opacity="1" r="0.25" fill="#EB144C" cx="9.5" cy="8.5"></circle><circle opacity="0" r="0.25" fill="#FFFFFF" cx="9.5" cy="9.5" stroke="#EB144C" stroke-width="0.1"></circle><circle opacity="1" r="0.25" fill="#EB144C" cx="9.5" cy="10.5"></circle><circle opacity="0" r="0.25" fill="#FFFFFF" cx="9.5" cy="11.5" stroke="#EB144C" stroke-width="0.1"></circle><circle opacity="1" r="0.25" fill="#EB144C" cx="9.5" cy="12.5"></circle><circle opacity="1" r="0.25" fill="#EB144C" cx="9.5" cy="13.5"></circle><circle opacity="1" r="0.5" fill="#FFFFFF" cx="9.5" cy="14.5" stroke="#FCB900" stroke-width="0.1"></circle><circle opacity="1" r="0.5" fill="#FFFFFF" cx="9.5" cy="15.5" stroke="#FCB900" stroke-width="0.1"></circle><circle opacity="1" r="0.25" fill="#EB144C" cx="9.5" cy="16.5"></circle><circle opacity="1" r="0.25" fill="#EB144C" cx="9.5" cy="17.5"></circle><circle opacity="1" r="0.25" fill="#EB144C" cx="9.5" cy="18.5"></circle><circle opacity="1" r="0.25" fill="#EB144C" cx="9.5" cy="19.5"></circle><circle opacity="1" r="0.25" fill="#EB144C" cx="9.5" cy="20.5"></circle><circle opacity="0" r="0.25" fill="#FFFFFF" cx="10.5" cy="0.5" stroke="#EB144C" stroke-width="0.1"></circle><circle opacity="1" r="0.25" fill="#EB144C" cx="10.5" cy="1.5"></circle><circle opacity="1" r="0.25" fill="#EB144C" cx="10.5" cy="2.5"></circle><circle opacity="1" r="0.25" fill="#EB144C" cx="10.5" cy="3.5"></circle><circle opacity="1" r="0.25" fill="#EB144C" cx="10.5" cy="4.5"></circle><circle opacity="1" r="0.5" fill="#FCB900" cx="10.5" cy="5.5"></circle><circle opacity="1" r="0.5" fill="#FCB900" cx="10.5" cy="6.5"></circle><circle opacity="0" r="0.25" stroke="#EB144C" stroke-width="0.1" fill="#FFFFFF" cx="10.5" cy="7.5"></circle><circle opacity="1" r="0.25" fill="#EB144C" cx="10.5" cy="8.5"></circle><circle opacity="1" r="0.25" fill="#EB144C" cx="10.5" cy="9.5"></circle><circle opacity="0" r="0.25" stroke="#EB144C" stroke-width="0.1" fill="#FFFFFF" cx="10.5" cy="10.5"></circle><circle opacity="1" r="0.25" fill="#EB144C" cx="10.5" cy="11.5"></circle><circle opacity="0" r="0.25" fill="#FFFFFF" cx="10.5" cy="12.5" stroke="#EB144C" stroke-width="0.1"></circle><circle opacity="1" r="0.25" fill="#EB144C" cx="10.5" cy="13.5"></circle><circle opacity="1" r="0.5" fill="#FCB900" cx="10.5" cy="14.5"></circle><circle opacity="1" r="0.5" fill="#FFFFFF" cx="10.5" cy="15.5" stroke="#FCB900" stroke-width="0.1"></circle><circle opacity="0" r="0.25" fill="#FFFFFF" cx="10.5" cy="16.5" stroke="#EB144C" stroke-width="0.1"></circle><circle opacity="1" r="0.25" fill="#EB144C" cx="10.5" cy="17.5"></circle><circle opacity="0" r="0.25" fill="#FFFFFF" cx="10.5" cy="18.5" stroke="#EB144C" stroke-width="0.1"></circle><circle opacity="1" r="0.25" fill="#EB144C" cx="10.5" cy="19.5"></circle><circle opacity="0" r="0.25" fill="#FFFFFF" cx="10.5" cy="20.5" stroke="#EB144C" stroke-width="0.1"></circle><circle opacity="1" r="0.25" fill="#EB144C" cx="11.5" cy="0.5"></circle><circle opacity="1" r="0.25" fill="#EB144C" cx="11.5" cy="1.5"></circle><circle opacity="0" r="0.25" stroke="#EB144C" stroke-width="0.1" fill="#FFFFFF" cx="11.5" cy="2.5"></circle><circle opacity="1" r="0.25" fill="#EB144C" cx="11.5" cy="3.5"></circle><circle opacity="0" r="0.25" stroke="#EB144C" stroke-width="0.1" fill="#FFFFFF" cx="11.5" cy="4.5"></circle><circle opacity="1" r="0.5" fill="#FCB900" cx="11.5" cy="5.5"></circle><circle opacity="1" r="0.5" fill="#FFFFFF" cx="11.5" cy="6.5" stroke="#FCB900" stroke-width="0.1"></circle><circle opacity="1" r="0.25" fill="#EB144C" cx="11.5" cy="7.5"></circle><circle opacity="1" r="0.25" fill="#EB144C" cx="11.5" cy="8.5"></circle><circle opacity="0" r="0.25" fill="#FFFFFF" cx="11.5" cy="9.5" stroke="#EB144C" stroke-width="0.1"></circle><circle opacity="0" r="0.25" fill="#FFFFFF" cx="11.5" cy="10.5" stroke="#EB144C" stroke-width="0.1"></circle><circle opacity="0" r="0.25" fill="#FFFFFF" cx="11.5" cy="11.5" stroke="#EB144C" stroke-width="0.1"></circle><circle opacity="0" r="0.25" fill="#FFFFFF" cx="11.5" cy="12.5" stroke="#EB144C" stroke-width="0.1"></circle><circle opacity="1" r="0.25" fill="#EB144C" cx="11.5" cy="13.5"></circle><circle opacity="1" r="0.5" fill="#FFFFFF" cx="11.5" cy="14.5" stroke="#FCB900" stroke-width="0.1"></circle><circle opacity="1" r="0.5" fill="#FFFFFF" cx="11.5" cy="15.5" stroke="#FCB900" stroke-width="0.1"></circle><circle opacity="1" r="0.25" fill="#EB144C" cx="11.5" cy="16.5"></circle><circle opacity="1" r="0.25" fill="#EB144C" cx="11.5" cy="17.5"></circle><circle opacity="1" r="0.25" fill="#EB144C" cx="11.5" cy="18.5"></circle><circle opacity="1" r="0.25" fill="#EB144C" cx="11.5" cy="19.5"></circle><circle opacity="1" r="0.25" fill="#EB144C" cx="11.5" cy="20.5"></circle><circle opacity="1" r="0.25" fill="#EB144C" cx="12.5" cy="0.5"></circle><circle opacity="0" r="0.25" fill="#FFFFFF" cx="12.5" cy="1.5" stroke="#EB144C" stroke-width="0.1"></circle><circle opacity="1" r="0.25" fill="#EB144C" cx="12.5" cy="2.5"></circle><circle opacity="1" r="0.25" fill="#EB144C" cx="12.5" cy="3.5"></circle><circle opacity="0" r="0.25" fill="#FFFFFF" cx="12.5" cy="4.5" stroke="#EB144C" stroke-width="0.1"></circle><circle opacity="1" r="0.5" fill="#FCB900" cx="12.5" cy="5.5"></circle><circle opacity="1" r="0.5" fill="#FCB900" cx="12.5" cy="6.5"></circle><circle opacity="0" r="0.25" fill="#FFFFFF" cx="12.5" cy="7.5" stroke="#EB144C" stroke-width="0.1"></circle><circle opacity="1" r="0.25" fill="#EB144C" cx="12.5" cy="8.5"></circle><circle opacity="1" r="0.25" fill="#EB144C" cx="12.5" cy="9.5"></circle><circle opacity="1" r="0.25" fill="#EB144C" cx="12.5" cy="10.5"></circle><circle opacity="1" r="0.25" fill="#EB144C" cx="12.5" cy="11.5"></circle><circle opacity="0" r="0.25" stroke="#EB144C" stroke-width="0.1" fill="#FFFFFF" cx="12.5" cy="12.5"></circle><circle opacity="0" r="0.25" fill="#FFFFFF" cx="12.5" cy="13.5" stroke="#EB144C" stroke-width="0.1"></circle><circle opacity="1" r="0.5" fill="#FCB900" cx="12.5" cy="14.5"></circle><circle opacity="1" r="0.5" fill="#FCB900" cx="12.5" cy="15.5"></circle><circle opacity="0" r="0.25" fill="#FFFFFF" cx="12.5" cy="16.5" stroke="#EB144C" stroke-width="0.1"></circle><circle opacity="0" r="0.25" fill="#FFFFFF" cx="12.5" cy="17.5" stroke="#EB144C" stroke-width="0.1"></circle><circle opacity="0" r="0.25" fill="#FFFFFF" cx="12.5" cy="18.5" stroke="#EB144C" stroke-width="0.1"></circle><circle opacity="0" r="0.25" stroke="#EB144C" stroke-width="0.1" fill="#FFFFFF" cx="12.5" cy="19.5"></circle><circle opacity="0" r="0.25" fill="#FFFFFF" cx="12.5" cy="20.5" stroke="#EB144C" stroke-width="0.1"></circle><circle opacity="0" r="0.25" fill="#FFFFFF" cx="13.5" cy="0.5" stroke="#EB144C" stroke-width="0.1"></circle><circle opacity="0" r="0.25" fill="#FFFFFF" cx="13.5" cy="1.5" stroke="#EB144C" stroke-width="0.1"></circle><circle opacity="0" r="0.25" fill="#FFFFFF" cx="13.5" cy="2.5" stroke="#EB144C" stroke-width="0.1"></circle><circle opacity="0" r="0.25" fill="#FFFFFF" cx="13.5" cy="3.5" stroke="#EB144C" stroke-width="0.1"></circle><circle opacity="0" r="0.25" fill="#FFFFFF" cx="13.5" cy="4.5" stroke="#EB144C" stroke-width="0.1"></circle><circle opacity="1" r="0.5" fill="#FFFFFF" cx="13.5" cy="5.5" stroke="#FCB900" stroke-width="0.1"></circle><circle opacity="1" r="0.5" stroke="#FCB900" stroke-width="0.1" fill="#FFFFFF" cx="13.5" cy="6.5"></circle><circle opacity="1" r="0.5" stroke="#FCB900" stroke-width="0.1" fill="#FFFFFF" cx="13.5" cy="7.5"></circle><circle opacity="1" r="0.25" fill="#EB144C" cx="13.5" cy="8.5"></circle><circle opacity="1" r="0.25" fill="#EB144C" cx="13.5" cy="9.5"></circle><circle opacity="1" r="0.25" fill="#EB144C" cx="13.5" cy="10.5"></circle><circle opacity="1" r="0.25" fill="#EB144C" cx="13.5" cy="11.5"></circle><circle opacity="1" r="0.25" fill="#EB144C" cx="13.5" cy="12.5"></circle><circle opacity="1" r="0.5" fill="#FFFFFF" cx="13.5" cy="13.5" stroke="#FCB900" stroke-width="0.1"></circle><circle opacity="1" r="0.5" stroke="#FCB900" stroke-width="0.1" fill="#FFFFFF" cx="13.5" cy="14.5"></circle><circle opacity="1" r="0.5" fill="#FFFFFF" cx="13.5" cy="15.5" stroke="#FCB900" stroke-width="0.1"></circle><circle opacity="1" r="0.25" fill="#EB144C" cx="13.5" cy="16.5"></circle><circle opacity="0" r="0.25" fill="#FFFFFF" cx="13.5" cy="17.5" stroke="#EB144C" stroke-width="0.1"></circle><circle opacity="0" r="0.25" fill="#FFFFFF" cx="13.5" cy="18.5" stroke="#EB144C" stroke-width="0.1"></circle><circle opacity="1" r="0.25" fill="#EB144C" cx="13.5" cy="19.5"></circle><circle opacity="1" r="0.25" fill="#EB144C" cx="13.5" cy="20.5"></circle><circle opacity="1" r="0.5" stroke="#FCB900" stroke-width="0.1" fill="#FFFFFF" cx="14.5" cy="7.5"></circle><circle opacity="1" r="0.5" stroke="#FCB900" stroke-width="0.1" fill="#FFFFFF" cx="14.5" cy="8.5"></circle><circle opacity="1" r="0.5" fill="#FFFFFF" cx="14.5" cy="9.5" stroke="#FCB900" stroke-width="0.1"></circle><circle opacity="1" r="0.5" fill="#FCB900" cx="14.5" cy="10.5"></circle><circle opacity="1" r="0.5" fill="#FFFFFF" cx="14.5" cy="11.5" stroke="#FCB900" stroke-width="0.1"></circle><circle opacity="1" r="0.5" fill="#FCB900" cx="14.5" cy="12.5"></circle><circle opacity="1" r="0.5" fill="#FCB900" cx="14.5" cy="13.5"></circle><circle opacity="1" r="0.5" fill="#FFFFFF" cx="14.5" cy="14.5" stroke="#FCB900" stroke-width="0.1"></circle><circle opacity="0" r="0.25" fill="#FFFFFF" cx="14.5" cy="15.5" stroke="#EB144C" stroke-width="0.1"></circle><circle opacity="0" r="0.25" fill="#FFFFFF" cx="14.5" cy="16.5" stroke="#EB144C" stroke-width="0.1"></circle><circle opacity="1" r="0.25" fill="#EB144C" cx="14.5" cy="17.5"></circle><circle opacity="1" r="0.25" fill="#EB144C" cx="14.5" cy="18.5"></circle><circle opacity="1" r="0.25" fill="#EB144C" cx="14.5" cy="19.5"></circle><circle opacity="0" r="0.25" fill="#FFFFFF" cx="14.5" cy="20.5" stroke="#EB144C" stroke-width="0.1"></circle><circle opacity="0" r="0.25" fill="#FFFFFF" cx="15.5" cy="1.5" stroke="#EB144C" stroke-width="0.1"></circle><circle opacity="0" r="0.25" fill="#FFFFFF" cx="15.5" cy="2.5" stroke="#EB144C" stroke-width="0.1"></circle><circle opacity="0" r="0.25" fill="#FFFFFF" cx="15.5" cy="3.5" stroke="#EB144C" stroke-width="0.1"></circle><circle opacity="0" r="0.25" fill="#FFFFFF" cx="15.5" cy="4.5" stroke="#EB144C" stroke-width="0.1"></circle><circle opacity="0" r="0.25" fill="#FFFFFF" cx="15.5" cy="5.5" stroke="#EB144C" stroke-width="0.1"></circle><circle opacity="1" r="0.5" fill="#FFFFFF" cx="15.5" cy="7.5" stroke="#FCB900" stroke-width="0.1"></circle><circle opacity="1" r="0.5" fill="#FCB900" cx="15.5" cy="8.5"></circle><circle opacity="1" r="0.5" fill="#FCB900" cx="15.5" cy="9.5"></circle><circle opacity="1" r="0.5" fill="#FCB900" cx="15.5" cy="10.5"></circle><circle opacity="1" r="0.5" fill="#FCB900" cx="15.5" cy="11.5"></circle><circle opacity="1" r="0.5" fill="#FCB900" cx="15.5" cy="12.5"></circle><circle opacity="1" r="0.5" fill="#FCB900" cx="15.5" cy="13.5"></circle><circle opacity="0" r="0.25" fill="#FFFFFF" cx="15.5" cy="14.5" stroke="#EB144C" stroke-width="0.1"></circle><circle opacity="1" r="0.25" fill="#EB144C" cx="15.5" cy="15.5"></circle><circle opacity="0" r="0.25" fill="#FFFFFF" cx="15.5" cy="16.5" stroke="#EB144C" stroke-width="0.1"></circle><circle opacity="1" r="0.25" fill="#EB144C" cx="15.5" cy="17.5"></circle><circle opacity="1" r="0.25" fill="#EB144C" cx="15.5" cy="18.5"></circle><circle opacity="0" r="0.25" stroke="#EB144C" stroke-width="0.1" fill="#FFFFFF" cx="15.5" cy="19.5"></circle><circle opacity="1" r="0.25" fill="#EB144C" cx="15.5" cy="20.5"></circle><circle opacity="0" r="0.25" fill="#FFFFFF" cx="16.5" cy="1.5" stroke="#EB144C" stroke-width="0.1"></circle><circle opacity="0" r="0.25" fill="#FFFFFF" cx="16.5" cy="5.5" stroke="#EB144C" stroke-width="0.1"></circle><circle opacity="0" r="0.25" fill="#FFFFFF" cx="16.5" cy="7.5" stroke="#EB144C" stroke-width="0.1"></circle><circle opacity="1" r="0.25" fill="#EB144C" cx="16.5" cy="8.5"></circle><circle opacity="1" r="0.25" fill="#EB144C" cx="16.5" cy="9.5"></circle><circle opacity="1" r="0.25" fill="#EB144C" cx="16.5" cy="10.5"></circle><circle opacity="0" r="0.25" stroke="#EB144C" stroke-width="0.1" fill="#FFFFFF" cx="16.5" cy="11.5"></circle><circle opacity="1" r="0.25" fill="#EB144C" cx="16.5" cy="12.5"></circle><circle opacity="1" r="0.25" fill="#EB144C" cx="16.5" cy="13.5"></circle><circle r="0.25" fill="#EB144C" cx="16.5" cy="14.5" opacity="1"></circle><circle r="0.25" fill="#EB144C" cx="16.5" cy="15.5" opacity="1"></circle><circle opacity="1" r="0.25" fill="#EB144C" cx="16.5" cy="16.5"></circle><circle opacity="1" r="0.25" fill="#EB144C" cx="16.5" cy="17.5"></circle><circle opacity="0" r="0.25" fill="#FFFFFF" cx="16.5" cy="18.5" stroke="#EB144C" stroke-width="0.1"></circle><circle opacity="0" r="0.25" fill="#FFFFFF" cx="16.5" cy="19.5" stroke="#EB144C" stroke-width="0.1"></circle><circle opacity="1" r="0.25" fill="#EB144C" cx="16.5" cy="20.5"></circle><circle opacity="0" r="0.25" fill="#FFFFFF" cx="17.5" cy="1.5" stroke="#EB144C" stroke-width="0.1"></circle><circle r="1.5" fill="#9900EF" cx="17.5" cy="3.5"></circle><circle r="3" stroke="#9900EF" stroke-width="0.15" fill="none" cx="17.5" cy="3.5" stroke-dasharray="0.5,0.5"></circle><circle r="0.5" fill="#9900EF" cx="20.5" cy="3.5"></circle><circle r="0.5" fill="#9900EF" cx="14.5" cy="3.5"></circle><circle r="0.5" fill="#9900EF" cx="17.5" cy="6.5"></circle><circle r="0.5" fill="#9900EF" cx="17.5" cy="0.5"></circle><circle opacity="0" r="0.25" fill="#FFFFFF" cx="17.5" cy="5.5" stroke="#EB144C" stroke-width="0.1"></circle><circle opacity="0" r="0.25" stroke="#EB144C" stroke-width="0.1" fill="#FFFFFF" cx="17.5" cy="7.5"></circle><circle opacity="1" r="0.25" fill="#EB144C" cx="17.5" cy="8.5"></circle><circle opacity="1" r="0.25" fill="#EB144C" cx="17.5" cy="9.5"></circle><circle opacity="1" r="0.25" fill="#EB144C" cx="17.5" cy="10.5"></circle><circle opacity="0" r="0.25" stroke="#EB144C" stroke-width="0.1" fill="#FFFFFF" cx="17.5" cy="11.5"></circle><circle opacity="1" r="0.25" fill="#EB144C" cx="17.5" cy="12.5"></circle><circle opacity="0" r="0.25" stroke="#EB144C" stroke-width="0.1" fill="#FFFFFF" cx="17.5" cy="13.5"></circle><circle opacity="0" r="0.25" fill="#FFFFFF" cx="17.5" cy="14.5" stroke="#EB144C" stroke-width="0.1"></circle><circle opacity="1" r="0.25" fill="#EB144C" cx="17.5" cy="15.5"></circle><circle opacity="1" r="0.25" fill="#EB144C" cx="17.5" cy="16.5"></circle><circle opacity="1" r="0.25" fill="#EB144C" cx="17.5" cy="17.5"></circle><circle opacity="1" r="0.25" fill="#EB144C" cx="17.5" cy="18.5"></circle><circle opacity="0" r="0.25" stroke="#EB144C" stroke-width="0.1" fill="#FFFFFF" cx="17.5" cy="19.5"></circle><circle opacity="0" r="0.25" stroke="#EB144C" stroke-width="0.1" fill="#FFFFFF" cx="17.5" cy="20.5"></circle><circle opacity="0" r="0.25" fill="#FFFFFF" cx="18.5" cy="1.5" stroke="#EB144C" stroke-width="0.1"></circle><circle opacity="0" r="0.25" fill="#FFFFFF" cx="18.5" cy="5.5" stroke="#EB144C" stroke-width="0.1"></circle><circle opacity="0" r="0.25" fill="#FFFFFF" cx="18.5" cy="7.5" stroke="#EB144C" stroke-width="0.1"></circle><circle opacity="1" r="0.25" fill="#EB144C" cx="18.5" cy="8.5"></circle><circle opacity="0" r="0.25" stroke="#EB144C" stroke-width="0.1" fill="#FFFFFF" cx="18.5" cy="9.5"></circle><circle opacity="1" r="0.25" fill="#EB144C" cx="18.5" cy="10.5"></circle><circle opacity="1" r="0.25" fill="#EB144C" cx="18.5" cy="11.5"></circle><circle opacity="0" r="0.25" stroke="#EB144C" stroke-width="0.1" fill="#FFFFFF" cx="18.5" cy="12.5"></circle><circle opacity="0" r="0.25" stroke="#EB144C" stroke-width="0.1" fill="#FFFFFF" cx="18.5" cy="13.5"></circle><circle opacity="0" r="0.25" stroke="#EB144C" stroke-width="0.1" fill="#FFFFFF" cx="18.5" cy="14.5"></circle><circle opacity="0" r="0.25" stroke="#EB144C" stroke-width="0.1" fill="#FFFFFF" cx="18.5" cy="15.5"></circle><circle opacity="0" r="0.25" fill="#FFFFFF" cx="18.5" cy="16.5" stroke="#EB144C" stroke-width="0.1"></circle><circle opacity="0" r="0.25" fill="#FFFFFF" cx="18.5" cy="17.5" stroke="#EB144C" stroke-width="0.1"></circle><circle opacity="1" r="0.25" fill="#EB144C" cx="18.5" cy="18.5"></circle><circle opacity="0" r="0.25" fill="#FFFFFF" cx="18.5" cy="19.5" stroke="#EB144C" stroke-width="0.1"></circle><circle opacity="0" r="0.25" fill="#FFFFFF" cx="18.5" cy="20.5" stroke="#EB144C" stroke-width="0.1"></circle><circle opacity="0" r="0.25" fill="#FFFFFF" cx="19.5" cy="1.5" stroke="#EB144C" stroke-width="0.1"></circle><circle opacity="0" r="0.25" fill="#FFFFFF" cx="19.5" cy="2.5" stroke="#EB144C" stroke-width="0.1"></circle><circle opacity="0" r="0.25" fill="#FFFFFF" cx="19.5" cy="3.5" stroke="#EB144C" stroke-width="0.1"></circle><circle opacity="0" r="0.25" fill="#FFFFFF" cx="19.5" cy="4.5" stroke="#EB144C" stroke-width="0.1"></circle><circle opacity="0" r="0.25" fill="#FFFFFF" cx="19.5" cy="5.5" stroke="#EB144C" stroke-width="0.1"></circle><circle opacity="0" r="0.25" fill="#FFFFFF" cx="19.5" cy="7.5" stroke="#EB144C" stroke-width="0.1"></circle><circle opacity="0" r="0.25" fill="#FFFFFF" cx="19.5" cy="8.5" stroke="#EB144C" stroke-width="0.1"></circle><circle opacity="1" r="0.25" fill="#EB144C" cx="19.5" cy="9.5"></circle><circle opacity="1" r="0.25" fill="#EB144C" cx="19.5" cy="10.5"></circle><circle opacity="0" r="0.25" fill="#FFFFFF" cx="19.5" cy="11.5" stroke="#EB144C" stroke-width="0.1"></circle><circle opacity="0" r="0.25" stroke="#EB144C" stroke-width="0.1" fill="#FFFFFF" cx="19.5" cy="12.5"></circle><circle opacity="0" r="0.25" fill="#FFFFFF" cx="19.5" cy="13.5" stroke="#EB144C" stroke-width="0.1"></circle><circle opacity="0" r="0.25" stroke="#EB144C" stroke-width="0.1" fill="#FFFFFF" cx="19.5" cy="14.5"></circle><circle opacity="0" r="0.25" stroke="#EB144C" stroke-width="0.1" fill="#FFFFFF" cx="19.5" cy="15.5"></circle><circle opacity="1" r="0.25" fill="#EB144C" cx="19.5" cy="16.5"></circle><circle opacity="1" r="0.25" fill="#EB144C" cx="19.5" cy="17.5"></circle><circle opacity="1" r="0.25" fill="#EB144C" cx="19.5" cy="18.5"></circle><circle opacity="0" r="0.25" fill="#FFFFFF" cx="19.5" cy="19.5" stroke="#EB144C" stroke-width="0.1"></circle><circle opacity="0" r="0.25" fill="#FFFFFF" cx="19.5" cy="20.5" stroke="#EB144C" stroke-width="0.1"></circle><circle opacity="0" r="0.25" fill="#FFFFFF" cx="20.5" cy="7.5" stroke="#EB144C" stroke-width="0.1"></circle><circle opacity="1" r="0.25" fill="#EB144C" cx="20.5" cy="8.5"></circle><circle opacity="1" r="0.25" fill="#EB144C" cx="20.5" cy="9.5"></circle><circle opacity="0" r="0.25" stroke="#EB144C" stroke-width="0.1" fill="#FFFFFF" cx="20.5" cy="10.5"></circle><circle opacity="1" r="0.25" fill="#EB144C" cx="20.5" cy="11.5"></circle><circle opacity="0" r="0.25" stroke="#EB144C" stroke-width="0.1" fill="#FFFFFF" cx="20.5" cy="12.5"></circle><circle opacity="0" r="0.25" stroke="#EB144C" stroke-width="0.1" fill="#FFFFFF" cx="20.5" cy="13.5"></circle><circle opacity="0" r="0.25" stroke="#EB144C" stroke-width="0.1" fill="#FFFFFF" cx="20.5" cy="14.5"></circle><circle opacity="1" r="0.25" fill="#EB144C" cx="20.5" cy="15.5"></circle><circle opacity="0" r="0.25" stroke="#EB144C" stroke-width="0.1" fill="#FFFFFF" cx="20.5" cy="16.5"></circle><circle opacity="0" r="0.25" stroke="#EB144C" stroke-width="0.1" fill="#FFFFFF" cx="20.5" cy="17.5"></circle><circle opacity="0" r="0.25" stroke="#EB144C" stroke-width="0.1" fill="#FFFFFF" cx="20.5" cy="18.5"></circle><circle opacity="1" r="0.25" fill="#EB144C" cx="20.5" cy="19.5"></circle><circle opacity="0" r="0.25" stroke="#EB144C" stroke-width="0.1" fill="#FFFFFF" cx="20.5" cy="20.5"></circle></svg>