<svg width="300" height="300" viewBox="0 0 21 21" fill="white" xmlns="http://www.w3.org/2000/svg" xmlns:xlink="http://www.w3.org/1999/xlink"><line opacity="1" x1="0.5" y1="9.5" x2="2.5" y2="9.5" stroke-width="0.5" stroke="#0693E3" stroke-linecap="round"></line><circle opacity="1" r="0.25" fill="#0693E3" cx="0.5" cy="10.5"></circle><line opacity="1" x1="0.5" y1="11.5" x2="2.5" y2="11.5" stroke-width="0.5" stroke="#0693E3" stroke-linecap="round"></line><line opacity="1" x1="2.5" y1="8.5" x2="7.5" y2="8.5" stroke-width="0.5" stroke="#0693E3" stroke-linecap="round"></line><circle opacity="1" r="0.25" fill="#0693E3" cx="2.5" cy="12.5"></circle><circle fill="#EB144C" cx="3.5" cy="3.5" r="1.5"></circle><circle fill="none" stroke-width="1" stroke="#EB144C" cx="3.5" cy="3.5" r="3"></circle><circle fill="#EB144C" cx="3.5" cy="17.5" r="1.5"></circle><circle r="3" fill="none" cx="3.5" cy="17.5" stroke-width="1" stroke="#EB144C"></circle><circle opacity="1" r="0.25" fill="#0693E3" cx="4.5" cy="9.5"></circle><line opacity="1" x1="4.5" y1="10.5" x2="6.5" y2="10.5" stroke-width="0.5" stroke="#0693E3" stroke-linecap="round"></line><circle opacity="1" r="0.25" fill="#0693E3" cx="4.5" cy="11.5"></circle><line opacity="1" x1="4.5" y1="12.5" x2="9.5" y2="12.5" stroke-width="0.5" stroke="#0693E3" stroke-linecap="round"></line><circle opacity="1" r="0.25" fill="#0693E3" cx="7.5" cy="11.5"></circle><circle opacity="1" r="0.25" fill="#0693E3" cx="8.5" cy="0.5"></circle><line opacity="1" x1="8.5" y1="2.5" x2="10.5" y2="2.5" stroke-width="0.5" stroke="#0693E3" stroke-linecap="round"></line><line opacity="1" x1="8.5" y1="3.5" x2="12.5" y2="3.5" stroke-width="0.5" stroke="#0693E3" stroke-linecap="round"></line><line opacity="1" x1="8.5" y1="4.5" x2="10.5" y2="4.5" stroke-width="0.5" stroke="#0693E3" stroke-linecap="round"></line><line opacity="1" x1="8.5" y1="5.5" x2="12.5" y2="5.5" stroke-width="0.5" stroke="#0693E3" stroke-linecap="round"></line><circle opacity="1" r="0.25" fill="#0693E3" cx="8.5" cy="6.5"></circle><line opacity="1" x1="8.5" y1="10.5" x2="9.5" y2="10.5" stroke-width="0.5" stroke="#0693E3" stroke-linecap="round"></line><circle opacity="1" r="0.25" fill="#0693E3" cx="8.5" cy="14.5"></circle><circle opacity="1" r="0.25" fill="#0693E3" cx="8.5" cy="15.5"></circle><line opacity="1" x1="8.5" y1="16.5" x2="9.5" y2="16.5" stroke-width="0.5" stroke="#0693E3" stroke-linecap="round"></line><line opacity="1" x1="8.5" y1="17.5" x2="11.5" y2="17.5" stroke-width="0.5" stroke="#0693E3" stroke-linecap="round"></line><line opacity="1" x1="8.5" y1="18.5" x2="9.5" y2="18.5" stroke-width="0.5" stroke="#0693E3" stroke-linecap="round"></line><line opacity="1" x1="9.5" y1="1.5" x2="11.5" y2="1.5" stroke-width="0.5" stroke="#0693E3" stroke-linecap="round"></line><line opacity="1" x1="9.5" y1="8.5" x2="13.5" y2="8.5" stroke-width="0.5" stroke="#0693E3" stroke-linecap="round"></line><line opacity="1" x1="9.5" y1="13.5" x2="11.5" y2="13.5" stroke-width="0.5" stroke="#0693E3" stroke-linecap="round"></line><line opacity="1" x1="9.5" y1="19.5" x2="11.5" y2="19.5" stroke-width="0.5" stroke="#0693E3" stroke-linecap="round"></line><circle opacity="1" r="0.25" fill="#0693E3" cx="9.5" cy="20.5"></circle><circle opacity="1" r="0.25" fill="#0693E3" cx="10.5" cy="6.5"></circle><circle opacity="1" r="0.25" fill="#0693E3" cx="10.5" cy="9.5"></circle><circle opacity="1" r="0.25" fill="#0693E3" cx="10.5" cy="11.5"></circle><circle opacity="1" r="0.25" fill="#0693E3" cx="10.5" cy="14.5"></circle><line opacity="1" x1="11.5" y1="0.5" x2="12.5" y2="0.5" stroke-width="0.5" stroke="#0693E3" stroke-linecap="round"></line><circle opacity="1" r="0.25" fill="#0693E3" cx="11.5" cy="7.5"></circle><circle opacity="1" r="0.25" fill="#0693E3" cx="11.5" cy="16.5"></circle><circle opacity="1" r="0.25" fill="#0693E3" cx="11.5" cy="18.5"></circle><circle opacity="1" r="0.25" fill="#0693E3" cx="11.5" cy="20.5"></circle><circle opacity="1" r="0.25" fill="#0693E3" cx="12.5" cy="2.5"></circle><circle opacity="1" r="0.25" fill="#0693E3" cx="12.5" cy="6.5"></circle><line opacity="1" x1="12.5" y1="9.5" x2="13.5" y2="9.5" stroke-width="0.5" stroke="#0693E3" stroke-linecap="round"></line><line opacity="1" x1="12.5" y1="10.5" x2="19.5" y2="10.5" stroke-width="0.5" stroke="#0693E3" stroke-linecap="round"></line><line opacity="1" x1="12.5" y1="11.5" x2="13.5" y2="11.5" stroke-width="0.5" stroke="#0693E3" stroke-linecap="round"></line><circle opacity="1" r="0.25" fill="#0693E3" cx="12.5" cy="14.5"></circle><circle opacity="1" r="0.25" fill="#0693E3" cx="12.5" cy="15.5"></circle><line opacity="1" x1="13.5" y1="12.5" x2="17.5" y2="12.5" stroke-width="0.5" stroke="#0693E3" stroke-linecap="round"></line><circle opacity="1" r="0.25" fill="#0693E3" cx="13.5" cy="16.5"></circle><line opacity="1" x1="13.5" y1="19.5" x2="14.5" y2="19.5" stroke-width="0.5" stroke="#0693E3" stroke-linecap="round"></line><circle opacity="1" r="0.25" fill="#0693E3" cx="13.5" cy="20.5"></circle><line opacity="1" x1="14.5" y1="13.5" x2="16.5" y2="13.5" stroke-width="0.5" stroke="#0693E3" stroke-linecap="round"></line><line opacity="1" x1="14.5" y1="17.5" x2="17.5" y2="17.5" stroke-width="0.5" stroke="#0693E3" stroke-linecap="round"></line><line opacity="1" x1="14.5" y1="18.5" x2="15.5" y2="18.5" stroke-width="0.5" stroke="#0693E3" stroke-linecap="round"></line><line opacity="1" x1="15.5" y1="8.5" x2="18.5" y2="8.5" stroke-width="0.5" stroke="#0693E3" stroke-linecap="round"></line><line opacity="1" x1="15.5" y1="9.5" x2="17.5" y2="9.5" stroke-width="0.5" stroke="#0693E3" stroke-linecap="round"></line><circle opacity="1" r="0.25" fill="#0693E3" cx="15.5" cy="11.5"></circle><line opacity="1" x1="15.5" y1="15.5" x2="17.5" y2="15.5" stroke-width="0.5" stroke="#0693E3" stroke-linecap="round"></line><line opacity="1" x1="15.5" y1="20.5" x2="16.5" y2="20.5" stroke-width="0.5" stroke="#0693E3" stroke-linecap="round"></line><circle opacity="1" r="0.25" fill="#0693E3" cx="16.5" cy="14.5"></circle><line opacity="1" x1="16.5" y1="16.5" x2="17.5" y2="16.5" stroke-width="0.5" stroke="#0693E3" stroke-linecap="round"></line><circle fill="#EB144C" cx="17.5" cy="3.5" r="1.5"></circle><circle fill="none" stroke-width="1" stroke="#EB144C" cx="17.5" cy="3.5" r="3"></circle><line opacity="1" x1="17.5" y1="18.5" x2="19.5" y2="18.5" stroke-width="0.5" stroke="#0693E3" stroke-linecap="round"></line><circle opacity="1" r="0.25" fill="#0693E3" cx="18.5" cy="11.5"></circle><line opacity="1" x1="19.5" y1="9.5" x2="20.5" y2="9.5" stroke-width="0.5" stroke="#0693E3" stroke-linecap="round"></line><circle opacity="1" r="0.25" fill="#0693E3" cx="19.5" cy="16.5"></circle><circle opacity="1" r="0.25" fill="#0693E3" cx="19.5" cy="17.5"></circle><circle opacity="1" r="0.25" fill="#0693E3" cx="20.5" cy="8.5"></circle><circle opacity="1" r="0.25" fill="#0693E3" cx="20.5" cy="11.5"></circle><circle opacity="1" r="0.25" fill="#0693E3" cx="20.5" cy="15.5"></circle><circle opacity="1" r="0.25" fill="#0693E3" cx="20.5" cy="19.5"></circle></svg>