<svg width="300" height="300" viewBox="0 0 21 21" fill="white" xmlns="http://www.w3.org/2000/svg" xmlns:xlink="http://www.w3.org/1999/xlink"><rect width="1" height="1" fill="#000000" x="0" y="9" opacity="1"></rect><rect width="1" height="1" fill="#000000" x="0" y="10" opacity="1"></rect><rect width="1" height="1" fill="#000000" x="0" y="11" opacity="1"></rect><rect width="1" height="1" fill="#000000" x="1" y="9" opacity="1"></rect><rect width="1" height="1" fill="#000000" x="1" y="11" opacity="1"></rect><rect width="1" height="1" fill="#000000" x="2" y="8" opacity="1"></rect><rect width="1" height="1" fill="#000000" x="2" y="9" opacity="1"></rect><rect opacity="1" width="1" height="1" fill="#000000" x="2" y="11"></rect><rect opacity="1" width="1" height="1" fill="#000000" x="2" y="12"></rect><circle fill="#000000" cx="3.5" cy="3.5" r="1.5"></circle><circle fill="none" stroke-width="1" stroke="#000000" cx="3.5" cy="3.5" r="3"></circle><rect width="1" height="1" fill="#000000" x="3" y="8" opacity="1"></rect><circle fill="#000000" cx="3.5" cy="17.5" r="1.5"></circle><circle fill="none" stroke-width="1" stroke="#000000" cx="3.5" cy="17.5" r="3"></circle><rect width="1" height="1" fill="#000000" x="4" y="8" opacity="1"></rect><rect width="1" height="1" fill="#000000" x="4" y="9" opacity="1"></rect><rect width="1" height="1" fill="#000000" x="4" y="10" opacity="1"></rect><rect width="1" height="1" fill="#000000" x="4" y="11" opacity="1"></rect><rect width="1" height="1" fill="#000000" x="4" y="12" opacity="1"></rect><rect opacity="1" width="1" height="1" fill="#000000" x="5" y="8"></rect><rect opacity="1" width="1" height="1" fill="#000000" x="5" y="10"></rect><rect width="1" height="1" fill="#000000" x="5" y="12" opacity="1"></rect><rect width="1" height="1" fill="#000000" x="6" y="8" opacity="1"></rect><rect width="1" height="1" fill="#000000" x="6" y="10" opacity="1"></rect><rect width="1" height="1" fill="#000000" x="6" y="12" opacity="1"></rect><rect width="1" height="1" fill="#000000" x="7" y="8" opacity="1"></rect><rect width="1" height="1" fill="#000000" x="7" y="11" opacity="1"></rect><rect width="1" height="1" fill="#000000" x="7" y="12" opacity="1"></rect><rect opacity="1" width="1" height="1" fill="#000000" x="8" y="0"></rect><rect opacity="1" width="1" height="1" fill="#000000" x="8" y="2"></rect><rect opacity="1" width="1" height="1" fill="#000000" x="8" y="3"></rect><rect opacity="1" width="1" height="1" fill="#000000" x="8" y="4"></rect><rect width="1" height="1" fill="#000000" x="8" y="5" opacity="1"></rect><rect width="1" height="1" fill="#000000" x="8" y="6" opacity="1"></rect><rect width="1" height="1" fill="#000000" x="8" y="10" opacity="1"></rect><rect width="1" height="1" fill="#000000" x="8" y="12" opacity="1"></rect><rect width="1" height="1" fill="#000000" x="8" y="14" opacity="1"></rect><rect width="1" height="1" fill="#000000" x="8" y="15" opacity="1"></rect><rect width="1" height="1" fill="#000000" x="8" y="16" opacity="1"></rect><rect width="1" height="1" fill="#000000" x="8" y="17" opacity="1"></rect><rect width="1" height="1" fill="#000000" x="8" y="18" opacity="1"></rect><rect width="1" height="1" fill="#000000" x="9" y="1" opacity="1"></rect><rect opacity="1" width="1" height="1" fill="#000000" x="9" y="2"></rect><rect width="1" height="1" fill="#000000" x="9" y="3" opacity="1"></rect><rect width="1" height="1" fill="#000000" x="9" y="4" opacity="1"></rect><rect width="1" height="1" fill="#000000" x="9" y="5" opacity="1"></rect><rect width="1" height="1" fill="#000000" x="9" y="8" opacity="1"></rect><rect width="1" height="1" fill="#000000" x="9" y="10" opacity="1"></rect><rect width="1" height="1" fill="#000000" x="9" y="12" opacity="1"></rect><rect width="1" height="1" fill="#000000" x="9" y="13" opacity="1"></rect><rect width="1" height="1" fill="#000000" x="9" y="16" opacity="1"></rect><rect width="1" height="1" fill="#000000" x="9" y="17" opacity="1"></rect><rect width="1" height="1" fill="#000000" x="9" y="18" opacity="1"></rect><rect opacity="1" width="1" height="1" fill="#000000" x="9" y="19"></rect><rect opacity="1" width="1" height="1" fill="#000000" x="9" y="20"></rect><rect opacity="1" width="1" height="1" fill="#000000" x="10" y="1"></rect><rect opacity="1" width="1" height="1" fill="#000000" x="10" y="2"></rect><rect opacity="1" width="1" height="1" fill="#000000" x="10" y="3"></rect><rect width="1" height="1" fill="#000000" x="10" y="4" opacity="1"></rect><rect width="1" height="1" fill="#000000" x="10" y="5" opacity="1"></rect><rect width="1" height="1" fill="#000000" x="10" y="6" opacity="1"></rect><rect width="1" height="1" fill="#000000" x="10" y="8" opacity="1"></rect><rect width="1" height="1" fill="#000000" x="10" y="9" opacity="1"></rect><rect width="1" height="1" fill="#000000" x="10" y="11" opacity="1"></rect><rect width="1" height="1" fill="#000000" x="10" y="13" opacity="1"></rect><rect opacity="1" width="1" height="1" fill="#000000" x="10" y="14"></rect><rect opacity="1" width="1" height="1" fill="#000000" x="10" y="17"></rect><rect opacity="1" width="1" height="1" fill="#000000" x="10" y="19"></rect><rect width="1" height="1" fill="#000000" x="11" y="0" opacity="1"></rect><rect width="1" height="1" fill="#000000" x="11" y="1" opacity="1"></rect><rect width="1" height="1" fill="#000000" x="11" y="3" opacity="1"></rect><rect width="1" height="1" fill="#000000" x="11" y="5" opacity="1"></rect><rect width="1" height="1" fill="#000000" x="11" y="7" opacity="1"></rect><rect width="1" height="1" fill="#000000" x="11" y="8" opacity="1"></rect><rect width="1" height="1" fill="#000000" x="11" y="13" opacity="1"></rect><rect width="1" height="1" fill="#000000" x="11" y="16" opacity="1"></rect><rect width="1" height="1" fill="#000000" x="11" y="17" opacity="1"></rect><rect opacity="1" width="1" height="1" fill="#000000" x="11" y="18"></rect><rect opacity="1" width="1" height="1" fill="#000000" x="11" y="19"></rect><rect opacity="1" width="1" height="1" fill="#000000" x="11" y="20"></rect><rect width="1" height="1" fill="#000000" x="12" y="0" opacity="1"></rect><rect width="1" height="1" fill="#000000" x="12" y="2" opacity="1"></rect><rect width="1" height="1" fill="#000000" x="12" y="3" opacity="1"></rect><rect width="1" height="1" fill="#000000" x="12" y="5" opacity="1"></rect><rect width="1" height="1" fill="#000000" x="12" y="6" opacity="1"></rect><rect width="1" height="1" fill="#000000" x="12" y="8" opacity="1"></rect><rect width="1" height="1" fill="#000000" x="12" y="9" opacity="1"></rect><rect opacity="1" width="1" height="1" fill="#000000" x="12" y="10"></rect><rect opacity="1" width="1" height="1" fill="#000000" x="12" y="11"></rect><rect opacity="1" width="1" height="1" fill="#000000" x="12" y="14"></rect><rect opacity="1" width="1" height="1" fill="#000000" x="12" y="15"></rect><rect opacity="1" width="1" height="1" fill="#000000" x="13" y="8"></rect><rect opacity="1" width="1" height="1" fill="#000000" x="13" y="9"></rect><rect opacity="1" width="1" height="1" fill="#000000" x="13" y="10"></rect><rect opacity="1" width="1" height="1" fill="#000000" x="13" y="11"></rect><rect opacity="1" width="1" height="1" fill="#000000" x="13" y="12"></rect><rect opacity="1" width="1" height="1" fill="#000000" x="13" y="16"></rect><rect opacity="1" width="1" height="1" fill="#000000" x="13" y="19"></rect><rect opacity="1" width="1" height="1" fill="#000000" x="13" y="20"></rect><rect opacity="1" width="1" height="1" fill="#000000" x="14" y="10"></rect><rect opacity="1" width="1" height="1" fill="#000000" x="14" y="12"></rect><rect opacity="1" width="1" height="1" fill="#000000" x="14" y="13"></rect><rect opacity="1" width="1" height="1" fill="#000000" x="14" y="17"></rect><rect opacity="1" width="1" height="1" fill="#000000" x="14" y="18"></rect><rect opacity="1" width="1" height="1" fill="#000000" x="14" y="19"></rect><rect opacity="1" width="1" height="1" fill="#000000" x="15" y="8"></rect><rect opacity="1" width="1" height="1" fill="#000000" x="15" y="9"></rect><rect opacity="1" width="1" height="1" fill="#000000" x="15" y="10"></rect><rect opacity="1" width="1" height="1" fill="#000000" x="15" y="11"></rect><rect opacity="1" width="1" height="1" fill="#000000" x="15" y="12"></rect><rect opacity="1" width="1" height="1" fill="#000000" x="15" y="13"></rect><rect opacity="1" width="1" height="1" fill="#000000" x="15" y="15"></rect><rect opacity="1" width="1" height="1" fill="#000000" x="15" y="17"></rect><rect opacity="1" width="1" height="1" fill="#000000" x="15" y="18"></rect><rect opacity="1" width="1" height="1" fill="#000000" x="15" y="20"></rect><rect opacity="1" width="1" height="1" fill="#000000" x="16" y="8"></rect><rect opacity="1" width="1" height="1" fill="#000000" x="16" y="9"></rect><rect opacity="1" width="1" height="1" fill="#000000" x="16" y="10"></rect><rect opacity="1" width="1" height="1" fill="#000000" x="16" y="12"></rect><rect opacity="1" width="1" height="1" fill="#000000" x="16" y="13"></rect><rect opacity="1" width="1" height="1" fill="#000000" x="16" y="14"></rect><rect opacity="1" width="1" height="1" fill="#000000" x="16" y="15"></rect><rect opacity="1" width="1" height="1" fill="#000000" x="16" y="16"></rect><rect opacity="1" width="1" height="1" fill="#000000" x="16" y="17"></rect><rect opacity="1" width="1" height="1" fill="#000000" x="16" y="20"></rect><circle fill="#000000" cx="17.5" cy="3.5" r="1.5"></circle><circle fill="none" stroke-width="1" stroke="#000000" cx="17.5" cy="3.5" r="3"></circle><rect opacity="1" width="1" height="1" fill="#000000" x="17" y="8"></rect><rect opacity="1" width="1" height="1" fill="#000000" x="17" y="9"></rect><rect opacity="1" width="1" height="1" fill="#000000" x="17" y="10"></rect><rect opacity="1" width="1" height="1" fill="#000000" x="17" y="12"></rect><rect opacity="1" width="1" height="1" fill="#000000" x="17" y="15"></rect><rect opacity="1" width="1" height="1" fill="#000000" x="17" y="16"></rect><rect opacity="1" width="1" height="1" fill="#000000" x="17" y="17"></rect><rect opacity="1" width="1" height="1" fill="#000000" x="17" y="18"></rect><rect opacity="1" width="1" height="1" fill="#000000" x="18" y="8"></rect><rect opacity="1" width="1" height="1" fill="#000000" x="18" y="10"></rect><rect opacity="1" width="1" height="1" fill="#000000" x="18" y="11"></rect><rect opacity="1" width="1" height="1" fill="#000000" x="18" y="18"></rect><rect opacity="1" width="1" height="1" fill="#000000" x="19" y="9"></rect><rect opacity="1" width="1" height="1" fill="#000000" x="19" y="10"></rect><rect opacity="1" width="1" height="1" fill="#000000" x="19" y="16"></rect><rect opacity="1" width="1" height="1" fill="#000000" x="19" y="17"></rect><rect opacity="1" width="1" height="1" fill="#000000" x="19" y="18"></rect><rect opacity="1" width="1" height="1" fill="#000000" x="20" y="8"></rect><rect opacity="1" width="1" height="1" fill="#000000" x="20" y="9"></rect><rect opacity="1" width="1" height="1" fill="#000000" x="20" y="11"></rect><rect opacity="1" width="1" height="1" fill="#000000" x="20" y="15"></rect><rect opacity="1" width="1" height="1" fill="#000000" x="20" y="19"></rect></svg>