<svg width="300" height="300" viewBox="0 0 21 21" fill="white" xmlns="http://www.w3.org/2000/svg" xmlns:xlink="http://www.w3.org/1999/xlink"><rect opacity="0.9" fill="rgb(150,44,361)" width="1.398309852399535" height="1.398309852399535" x="2.8758450738002326" y="-0.12415492619976753"></rect><rect fill="rgb(190,84,401)" width="1.248309852399535" height="1.248309852399535" x="2.8758450738002326" y="-0.12415492619976753"></rect><rect opacity="0.9" fill="rgb(30,104,121)" width="0.9503113406737156" height="0.9503113406737156" x="0.09984432966314222" y="11.099844329663142"></rect><rect fill="rgb(70,144,161)" width="0.8003113406737156" height="0.8003113406737156" x="0.09984432966314222" y="11.099844329663142"></rect><rect opacity="0.9" fill="rgb(142,48,344)" width="0.9508286012768419" height="0.9508286012768419" x="2.099585699361579" y="12.09958569936158"></rect><rect fill="rgb(182,88,384)" width="0.8008286012768419" height="0.8008286012768419" x="2.099585699361579" y="12.09958569936158"></rect><rect opacity="0.9" fill="rgb(138,50,337)" width="1.4419574778654773" height="1.4419574778654773" x="3.8540212610672615" y="3.8540212610672615"></rect><rect fill="rgb(178,90,377)" width="1.2919574778654774" height="1.2919574778654774" x="3.8540212610672615" y="3.8540212610672615"></rect><rect opacity="0.9" fill="rgb(66,86,193)" width="0.9663420002217646" height="0.9663420002217646" x="2.0918289998891177" y="2.0918289998891177"></rect><rect fill="rgb(106,126,233)" width="0.8163420002217646" height="0.8163420002217646" x="2.0918289998891177" y="2.0918289998891177"></rect><rect opacity="0.9" fill="rgb(176,31,413)" width="1.3814376221006461" height="1.3814376221006461" x="-0.11571881105032311" y="17.88428118894968"></rect><rect fill="rgb(216,71,453)" width="1.2314376221006462" height="1.2314376221006462" x="-0.11571881105032311" y="17.88428118894968"></rect><rect opacity="0.9" fill="rgb(76,81,213)" width="1.4114046674104221" height="1.4114046674104221" x="5.869297666294789" y="5.869297666294789"></rect><rect fill="rgb(116,121,253)" width="1.2614046674104222" height="1.2614046674104222" x="5.869297666294789" y="5.869297666294789"></rect><rect opacity="0.9" fill="rgb(110,64,280)" width="1.077256984726637" height="1.077256984726637" x="3.0363715076366815" y="4.036371507636682"></rect><rect fill="rgb(150,104,320)" width="0.927256984726637" height="0.927256984726637" x="3.0363715076366815" y="4.036371507636682"></rect><rect opacity="0.9" fill="rgb(195,22,451)" width="1.0208908101393035" height="1.0208908101393035" x="3.0645545949303483" y="17.06455459493035"></rect><rect fill="rgb(235,62,491)" width="0.8708908101393036" height="0.8708908101393036" x="3.0645545949303483" y="17.06455459493035"></rect><rect opacity="0.9" fill="rgb(182,28,425)" width="1.1136188384334573" height="1.1136188384334573" x="1.0181905807832714" y="0.018190580783271293"></rect><rect fill="rgb(222,68,465)" width="0.9636188384334574" height="0.9636188384334574" x="1.0181905807832714" y="0.018190580783271293"></rect><rect opacity="0.9" fill="rgb(113,63,286)" width="1.1148345026030462" height="1.1148345026030462" x="9.017582748698477" y="10.017582748698477"></rect><rect fill="rgb(153,103,326)" width="0.9648345026030463" height="0.9648345026030463" x="9.017582748698477" y="10.017582748698477"></rect><rect opacity="0.9" fill="rgb(206,16,472)" width="1.0214314616981521" height="1.0214314616981521" x="9.064284269150924" y="17.064284269150924"></rect><rect fill="rgb(246,56,512)" width="0.8714314616981521" height="0.8714314616981521" x="9.064284269150924" y="17.064284269150924"></rect><rect opacity="0.9" fill="rgb(134,52,328)" width="1.1236032970055467" height="1.1236032970055467" x="1.0131983514972265" y="20.013198351497227"></rect><rect fill="rgb(174,92,368)" width="0.9736032970055468" height="0.9736032970055468" x="1.0131983514972265" y="20.013198351497227"></rect><rect opacity="0.9" fill="rgb(189,25,439)" width="1.1576484165625807" height="1.1576484165625807" x="19.99617579171871" y="4.996175791718709"></rect><rect fill="rgb(229,65,479)" width="1.0076484165625808" height="1.0076484165625808" x="19.99617579171871" y="4.996175791718709"></rect><rect opacity="0.9" fill="rgb(46,96,152)" width="1.3214051680044054" height="1.3214051680044054" x="8.914297415997797" y="15.914297415997797"></rect><rect fill="rgb(86,136,192)" width="1.1714051680044055" height="1.1714051680044055" x="8.914297415997797" y="15.914297415997797"></rect><rect opacity="0.9" fill="rgb(141,49,343)" width="1.2929421597445288" height="1.2929421597445288" x="19.928528920127736" y="10.928528920127736"></rect><rect fill="rgb(181,89,383)" width="1.1429421597445288" height="1.1429421597445288" x="19.928528920127736" y="10.928528920127736"></rect><rect opacity="0.9" fill="rgb(37,101,135)" width="1.2681287904887042" height="1.2681287904887042" x="4.940935604755648" y="7.940935604755648"></rect><rect fill="rgb(77,141,175)" width="1.1181287904887043" height="1.1181287904887043" x="4.940935604755648" y="7.940935604755648"></rect><rect opacity="0.9" fill="rgb(129,55,318)" width="1.4077109870821523" height="1.4077109870821523" x="6.871144506458924" y="7.871144506458924"></rect><rect fill="rgb(169,95,358)" width="1.2577109870821523" height="1.2577109870821523" x="6.871144506458924" y="7.871144506458924"></rect><rect opacity="0.9" fill="rgb(74,82,209)" width="0.9595171506901173" height="0.9595171506901173" x="20.09524142465494" y="6.095241424654941"></rect><rect fill="rgb(114,122,249)" width="0.8095171506901173" height="0.8095171506901173" x="20.09524142465494" y="6.095241424654941"></rect><rect opacity="0.9" fill="rgb(48,95,157)" width="1.1964193113117552" height="1.1964193113117552" x="1.9767903443441224" y="15.976790344344122"></rect><rect fill="rgb(88,135,197)" width="1.0464193113117553" height="1.0464193113117553" x="1.9767903443441224" y="15.976790344344122"></rect><rect opacity="0.9" fill="rgb(71,84,202)" width="1.1856744906273562" height="1.1856744906273562" x="3.982162754686322" y="10.982162754686321"></rect><rect fill="rgb(111,124,242)" width="1.0356744906273563" height="1.0356744906273563" x="3.982162754686322" y="10.982162754686321"></rect><rect opacity="0.9" fill="rgb(195,22,450)" width="1.2802712731789005" height="1.2802712731789005" x="11.934864363410549" y="13.934864363410549"></rect><rect fill="rgb(235,62,490)" width="1.1302712731789006" height="1.1302712731789006" x="11.934864363410549" y="13.934864363410549"></rect><rect opacity="0.9" fill="rgb(132,53,325)" width="1.097906585883947" height="1.097906585883947" x="20.026046707058025" y="0.026046707058026475"></rect><rect fill="rgb(172,93,365)" width="0.947906585883947" height="0.947906585883947" x="20.026046707058025" y="0.026046707058026475"></rect><rect opacity="0.9" fill="rgb(105,67,270)" width="1.1282176858828554" height="1.1282176858828554" x="6.010891157058572" y="1.0108911570585724"></rect><rect fill="rgb(145,107,310)" width="0.9782176858828555" height="0.9782176858828555" x="6.010891157058572" y="1.0108911570585724"></rect><rect opacity="0.9" fill="rgb(158,40,377)" width="0.9838943567193422" height="0.9838943567193422" x="13.08305282164033" y="10.08305282164033"></rect><rect fill="rgb(198,80,417)" width="0.8338943567193422" height="0.8338943567193422" x="13.08305282164033" y="10.08305282164033"></rect><rect opacity="0.9" fill="rgb(173,33,406)" width="1.1862963128543684" height="1.1862963128543684" x="-0.01814815642718426" y="9.981851843572816"></rect><rect fill="rgb(213,73,446)" width="1.0362963128543685" height="1.0362963128543685" x="-0.01814815642718426" y="9.981851843572816"></rect><rect opacity="0.9" fill="rgb(56,91,173)" width="1.2512008125133638" height="1.2512008125133638" x="9.949399593743317" y="10.949399593743317"></rect><rect fill="rgb(96,131,213)" width="1.1012008125133639" height="1.1012008125133639" x="9.949399593743317" y="10.949399593743317"></rect><rect opacity="0.9" fill="rgb(106,66,272)" width="1.2153054788667805" height="1.2153054788667805" x="14.96734726056661" y="-0.03265273943339031"></rect><rect fill="rgb(146,106,312)" width="1.0653054788667806" height="1.0653054788667806" x="14.96734726056661" y="-0.03265273943339031"></rect><rect opacity="0.9" fill="rgb(33,103,127)" width="1.119111329543983" height="1.119111329543983" x="10.015444335228008" y="2.0154443352280085"></rect><rect fill="rgb(73,143,167)" width="0.969111329543983" height="0.969111329543983" x="10.015444335228008" y="2.0154443352280085"></rect><rect opacity="0.9" fill="rgb(150,44,361)" width="1.3368110144804697" height="1.3368110144804697" x="5.906594492759766" y="15.906594492759766"></rect><rect fill="rgb(190,84,401)" width="1.1868110144804698" height="1.1868110144804698" x="5.906594492759766" y="15.906594492759766"></rect><rect opacity="0.9" fill="rgb(59,90,179)" width="1.0188072620984294" height="1.0188072620984294" x="19.065596368950786" y="16.065596368950786"></rect><rect fill="rgb(99,130,219)" width="0.8688072620984295" height="0.8688072620984295" x="19.065596368950786" y="16.065596368950786"></rect><rect opacity="0.9" fill="rgb(54,92,168)" width="1.287486533820629" height="1.287486533820629" x="10.931256733089686" y="4.931256733089685"></rect><rect fill="rgb(94,132,208)" width="1.137486533820629" height="1.137486533820629" x="10.931256733089686" y="4.931256733089685"></rect><rect opacity="0.9" fill="rgb(129,55,318)" width="1.201872886917637" height="1.201872886917637" x="3.9740635565411813" y="8.974063556541182"></rect><rect fill="rgb(169,95,358)" width="1.051872886917637" height="1.051872886917637" x="3.9740635565411813" y="8.974063556541182"></rect><rect opacity="0.9" fill="rgb(86,76,233)" width="1.3817870456883772" height="1.3817870456883772" x="19.88410647715581" y="18.88410647715581"></rect><rect fill="rgb(126,116,273)" width="1.2317870456883773" height="1.2317870456883773" x="19.88410647715581" y="18.88410647715581"></rect><rect opacity="0.9" fill="rgb(56,91,173)" width="1.0571356809740204" height="1.0571356809740204" x="11.04643215951299" y="1.0464321595129897"></rect><rect fill="rgb(96,131,213)" width="0.9071356809740204" height="0.9071356809740204" x="11.04643215951299" y="1.0464321595129897"></rect><rect opacity="0.9" fill="rgb(148,45,356)" width="1.1829558980052035" height="1.1829558980052035" x="4.983522050997398" y="11.983522050997399"></rect><rect fill="rgb(188,85,396)" width="1.0329558980052036" height="1.0329558980052036" x="4.983522050997398" y="11.983522050997399"></rect><rect opacity="0.9" fill="rgb(67,86,194)" width="1.1358399325825876" height="1.1358399325825876" x="0.007080033708706135" y="2.0070800337087062"></rect><rect fill="rgb(107,126,234)" width="0.9858399325825877" height="0.9858399325825877" x="0.007080033708706135" y="2.0070800337087062"></rect><rect opacity="0.9" fill="rgb(41,99,143)" width="1.3823650555907454" height="1.3823650555907454" x="11.883817472204628" y="1.8838174722046273"></rect><rect fill="rgb(81,139,183)" width="1.2323650555907455" height="1.2323650555907455" x="11.883817472204628" y="1.8838174722046273"></rect><rect opacity="0.9" fill="rgb(199,20,458)" width="1.3851536858453835" height="1.3851536858453835" x="16.88242315707731" y="17.88242315707731"></rect><rect fill="rgb(239,60,498)" width="1.2351536858453835" height="1.2351536858453835" x="16.88242315707731" y="17.88242315707731"></rect><rect opacity="0.9" fill="rgb(173,33,406)" width="1.387188711273899" height="1.387188711273899" x="15.881405644363051" y="3.8814056443630505"></rect><rect fill="rgb(213,73,446)" width="1.237188711273899" height="1.237188711273899" x="15.881405644363051" y="3.8814056443630505"></rect><rect opacity="0.9" fill="rgb(148,45,357)" width="1.0900090184292675" height="1.0900090184292675" x="10.029995490785366" y="1.0299954907853661"></rect><rect fill="rgb(188,85,397)" width="0.9400090184292675" height="0.9400090184292675" x="10.029995490785366" y="1.0299954907853661"></rect><rect opacity="0.9" fill="rgb(169,35,398)" width="1.1164102303372652" height="1.1164102303372652" x="16.016794884831366" y="13.016794884831368"></rect><rect fill="rgb(209,75,438)" width="0.9664102303372653" height="0.9664102303372653" x="16.016794884831366" y="13.016794884831368"></rect><rect opacity="0.9" fill="rgb(81,79,222)" width="1.0232756526770252" height="1.0232756526770252" x="5.0633621736614876" y="10.063362173661487"></rect><rect fill="rgb(121,119,262)" width="0.8732756526770252" height="0.8732756526770252" x="5.0633621736614876" y="10.063362173661487"></rect><rect opacity="0.9" fill="rgb(91,74,243)" width="1.0051624282949256" height="1.0051624282949256" x="8.072418785852538" y="10.072418785852538"></rect><rect fill="rgb(131,114,283)" width="0.8551624282949256" height="0.8551624282949256" x="8.072418785852538" y="10.072418785852538"></rect><rect opacity="0.9" fill="rgb(84,77,229)" width="1.3042679000518123" height="1.3042679000518123" x="13.922866049974093" y="16.922866049974093"></rect><rect fill="rgb(124,117,269)" width="1.1542679000518123" height="1.1542679000518123" x="13.922866049974093" y="16.922866049974093"></rect><rect opacity="0.9" fill="rgb(103,68,266)" width="1.2174011820035542" height="1.2174011820035542" x="5.966299408998223" y="13.966299408998223"></rect><rect fill="rgb(143,108,306)" width="1.0674011820035543" height="1.0674011820035543" x="5.966299408998223" y="13.966299408998223"></rect><rect opacity="0.9" fill="rgb(52,93,164)" width="0.9655849389149329" height="0.9655849389149329" x="12.092207530542533" y="11.092207530542533"></rect><rect fill="rgb(92,133,204)" width="0.8155849389149329" height="0.8155849389149329" x="12.092207530542533" y="11.092207530542533"></rect><rect opacity="0.9" fill="rgb(32,103,125)" width="1.0669123741068631" height="1.0669123741068631" x="16.041543812946568" y="3.0415438129465686"></rect><rect fill="rgb(72,143,165)" width="0.9169123741068631" height="0.9169123741068631" x="16.041543812946568" y="3.0415438129465686"></rect><rect opacity="0.9" fill="rgb(184,27,428)" width="1.22828442563695" height="1.22828442563695" x="14.960857787181524" y="14.960857787181524"></rect><rect fill="rgb(224,67,468)" width="1.0782844256369502" height="1.0782844256369502" x="14.960857787181524" y="14.960857787181524"></rect><rect opacity="0.9" fill="rgb(90,74,240)" width="1.146652170813378" height="1.146652170813378" x="12.001673914593312" y="8.001673914593312"></rect><rect fill="rgb(130,114,280)" width="0.996652170813378" height="0.996652170813378" x="12.001673914593312" y="8.001673914593312"></rect><rect opacity="0.9" fill="rgb(124,57,309)" width="0.9853894390421314" height="0.9853894390421314" x="9.082305280478934" y="2.082305280478934"></rect><rect fill="rgb(164,97,349)" width="0.8353894390421314" height="0.8353894390421314" x="9.082305280478934" y="2.082305280478934"></rect><rect opacity="0.9" fill="rgb(42,98,144)" width="1.1664206330075513" height="1.1664206330075513" x="5.991789683496224" y="4.991789683496224"></rect><rect fill="rgb(82,138,184)" width="1.0164206330075514" height="1.0164206330075514" x="5.991789683496224" y="4.991789683496224"></rect><rect opacity="0.9" fill="rgb(147,46,355)" width="0.9937287581862246" height="0.9937287581862246" x="20.078135620906888" y="1.0781356209068877"></rect><rect fill="rgb(187,86,395)" width="0.8437287581862246" height="0.8437287581862246" x="20.078135620906888" y="1.0781356209068877"></rect><rect opacity="0.9" fill="rgb(77,81,215)" width="0.9988686606942054" height="0.9988686606942054" x="10.075565669652898" y="3.0755656696528972"></rect><rect fill="rgb(117,121,255)" width="0.8488686606942054" height="0.8488686606942054" x="10.075565669652898" y="3.0755656696528972"></rect><rect opacity="0.9" fill="rgb(86,76,233)" width="1.274110473467571" height="1.274110473467571" x="18.937944763266213" y="-0.062055236733785546"></rect><rect fill="rgb(126,116,273)" width="1.124110473467571" height="1.124110473467571" x="18.937944763266213" y="-0.062055236733785546"></rect><rect opacity="0.9" fill="rgb(132,53,325)" width="1.433838270776311" height="1.433838270776311" x="13.858080864611845" y="4.8580808646118445"></rect><rect fill="rgb(172,93,365)" width="1.2838382707763112" height="1.2838382707763112" x="13.858080864611845" y="4.8580808646118445"></rect><rect opacity="0.9" fill="rgb(132,53,324)" width="1.2198289310715489" height="1.2198289310715489" x="14.965085534464226" y="7.965085534464226"></rect><rect fill="rgb(172,93,364)" width="1.069828931071549" height="1.069828931071549" x="14.965085534464226" y="7.965085534464226"></rect><rect opacity="0.9" fill="rgb(186,26,432)" width="1.1410362081660983" height="1.1410362081660983" x="6.004481895916951" y="19.00448189591695"></rect><rect fill="rgb(226,66,472)" width="0.9910362081660983" height="0.9910362081660983" x="6.004481895916951" y="19.00448189591695"></rect><rect opacity="0.9" fill="rgb(89,75,239)" width="1.4135050107483509" height="1.4135050107483509" x="7.868247494625825" y="13.868247494625825"></rect><rect fill="rgb(129,115,279)" width="1.263505010748351" height="1.263505010748351" x="7.868247494625825" y="13.868247494625825"></rect><rect opacity="0.9" fill="rgb(93,73,247)" width="1.3410408902295006" height="1.3410408902295006" x="3.9044795548852496" y="19.90447955488525"></rect><rect fill="rgb(133,113,287)" width="1.1910408902295007" height="1.1910408902295007" x="3.9044795548852496" y="19.90447955488525"></rect><rect opacity="0.9" fill="rgb(146,46,352)" width="1.1522597369240961" height="1.1522597369240961" x="15.998870131537952" y="1.9988701315379518"></rect><rect fill="rgb(186,86,392)" width="1.0022597369240962" height="1.0022597369240962" x="15.998870131537952" y="1.9988701315379518"></rect><rect opacity="0.9" fill="rgb(36,101,132)" width="1.184642684563933" height="1.184642684563933" x="15.982678657718033" y="11.982678657718033"></rect><rect fill="rgb(76,141,172)" width="1.0346426845639332" height="1.0346426845639332" x="15.982678657718033" y="11.982678657718033"></rect><rect opacity="0.9" fill="rgb(99,70,259)" width="1.1812212231452737" height="1.1812212231452737" x="-0.015610611572636879" y="0.9843893884273631"></rect><rect fill="rgb(139,110,299)" width="1.0312212231452738" height="1.0312212231452738" x="-0.015610611572636879" y="0.9843893884273631"></rect><rect opacity="0.9" fill="rgb(141,49,342)" width="1.3405175201094035" height="1.3405175201094035" x="10.904741239945299" y="16.9047412399453"></rect><rect fill="rgb(181,89,382)" width="1.1905175201094036" height="1.1905175201094036" x="10.904741239945299" y="16.9047412399453"></rect><rect opacity="0.9" fill="rgb(96,71,253)" width="1.1353649498565206" height="1.1353649498565206" x="4.007317525071739" y="0.007317525071739661"></rect><rect fill="rgb(136,111,293)" width="0.9853649498565207" height="0.9853649498565207" x="4.007317525071739" y="0.007317525071739661"></rect><rect opacity="0.9" fill="rgb(181,29,423)" width="1.2912338315929568" height="1.2912338315929568" x="1.9293830842035216" y="2.9293830842035216"></rect><rect fill="rgb(221,69,463)" width="1.1412338315929569" height="1.1412338315929569" x="1.9293830842035216" y="2.9293830842035216"></rect><rect opacity="0.9" fill="rgb(187,26,435)" width="1.1896873755117339" height="1.1896873755117339" x="5.980156312244133" y="11.980156312244134"></rect><rect fill="rgb(227,66,475)" width="1.039687375511734" height="1.039687375511734" x="5.980156312244133" y="11.980156312244134"></rect><rect opacity="0.9" fill="rgb(68,85,196)" width="1.3375928373064523" height="1.3375928373064523" x="1.906203581346774" y="-0.09379641865322619"></rect><rect fill="rgb(108,125,236)" width="1.1875928373064524" height="1.1875928373064524" x="1.906203581346774" y="-0.09379641865322619"></rect><rect opacity="0.9" fill="rgb(139,50,338)" width="1.4177128810185136" height="1.4177128810185136" x="11.866143559490743" y="14.866143559490743"></rect><rect fill="rgb(179,90,378)" width="1.2677128810185136" height="1.2677128810185136" x="11.866143559490743" y="14.866143559490743"></rect><rect opacity="0.9" fill="rgb(57,91,175)" width="1.3113021502176756" height="1.3113021502176756" x="8.919348924891162" y="17.91934892489116"></rect><rect fill="rgb(97,131,215)" width="1.1613021502176757" height="1.1613021502176757" x="8.919348924891162" y="17.91934892489116"></rect><rect opacity="0.9" fill="rgb(37,101,134)" width="1.3583340475159418" height="1.3583340475159418" x="7.895832976242029" y="2.895832976242029"></rect><rect fill="rgb(77,141,174)" width="1.2083340475159419" height="1.2083340475159419" x="7.895832976242029" y="2.895832976242029"></rect><rect opacity="0.9" fill="rgb(134,52,329)" width="0.9959827224147827" height="0.9959827224147827" x="16.07700863879261" y="14.07700863879261"></rect><rect fill="rgb(174,92,369)" width="0.8459827224147827" height="0.8459827224147827" x="16.07700863879261" y="14.07700863879261"></rect><rect opacity="0.9" fill="rgb(69,85,198)" width="1.2909852674856925" height="1.2909852674856925" x="10.929507366257154" y="18.929507366257155"></rect><rect fill="rgb(109,125,238)" width="1.1409852674856926" height="1.1409852674856926" x="10.929507366257154" y="18.929507366257155"></rect><rect opacity="0.9" fill="rgb(190,24,441)" width="1.2565091228840772" height="1.2565091228840772" x="4.9467454385579614" y="19.94674543855796"></rect><rect fill="rgb(230,64,481)" width="1.1065091228840773" height="1.1065091228840773" x="4.9467454385579614" y="19.94674543855796"></rect><rect opacity="0.9" fill="rgb(198,20,456)" width="1.2191496891964773" height="1.2191496891964773" x="13.96542515540176" y="0.9654251554017613"></rect><rect fill="rgb(238,60,496)" width="1.0691496891964773" height="1.0691496891964773" x="13.96542515540176" y="0.9654251554017613"></rect><rect opacity="0.9" fill="rgb(96,71,253)" width="1.3766831486211228" height="1.3766831486211228" x="3.8866584256894385" y="13.886658425689438"></rect><rect fill="rgb(136,111,293)" width="1.226683148621123" height="1.226683148621123" x="3.8866584256894385" y="13.886658425689438"></rect><rect opacity="0.9" fill="rgb(92,73,244)" width="1.0621994944818225" height="1.0621994944818225" x="0.04390025275908871" y="9.043900252759089"></rect><rect fill="rgb(132,113,284)" width="0.9121994944818226" height="0.9121994944818226" x="0.04390025275908871" y="9.043900252759089"></rect><rect opacity="0.9" fill="rgb(30,104,120)" width="1.1052407690751864" height="1.1052407690751864" x="11.022379615462407" y="3.0223796154624067"></rect><rect fill="rgb(70,144,160)" width="0.9552407690751864" height="0.9552407690751864" x="11.022379615462407" y="3.0223796154624067"></rect><rect opacity="0.9" fill="rgb(32,103,125)" width="1.0555695098511804" height="1.0555695098511804" x="17.04721524507441" y="8.04721524507441"></rect><rect fill="rgb(72,143,165)" width="0.9055695098511803" height="0.9055695098511803" x="17.04721524507441" y="8.04721524507441"></rect><rect opacity="0.9" fill="rgb(157,41,375)" width="1.4101924039270162" height="1.4101924039270162" x="15.869903798036493" y="9.869903798036493"></rect><rect fill="rgb(197,81,415)" width="1.2601924039270163" height="1.2601924039270163" x="15.869903798036493" y="9.869903798036493"></rect><rect opacity="0.9" fill="rgb(91,74,243)" width="1.359264150934373" height="1.359264150934373" x="5.895367924532813" y="1.8953679245328134"></rect><rect fill="rgb(131,114,283)" width="1.2092641509343731" height="1.2092641509343731" x="5.895367924532813" y="1.8953679245328134"></rect><rect opacity="0.9" fill="rgb(35,102,130)" width="1.4414965341999535" height="1.4414965341999535" x="12.854251732900023" y="11.854251732900023"></rect><rect fill="rgb(75,142,170)" width="1.2914965341999536" height="1.2914965341999536" x="12.854251732900023" y="11.854251732900023"></rect><rect opacity="0.9" fill="rgb(108,65,277)" width="1.3746977002593714" height="1.3746977002593714" x="5.887651149870314" y="7.887651149870314"></rect><rect fill="rgb(148,105,317)" width="1.2246977002593715" height="1.2246977002593715" x="5.887651149870314" y="7.887651149870314"></rect><rect opacity="0.9" fill="rgb(57,91,175)" width="1.2020666467043761" height="1.2020666467043761" x="16.973966676647812" y="15.973966676647812"></rect><rect fill="rgb(97,131,215)" width="1.0520666467043762" height="1.0520666467043762" x="16.973966676647812" y="15.973966676647812"></rect><rect opacity="0.9" fill="rgb(100,69,261)" width="1.2698679183634056" height="1.2698679183634056" x="5.940066040818297" y="17.940066040818298"></rect><rect fill="rgb(140,109,301)" width="1.1198679183634057" height="1.1198679183634057" x="5.940066040818297" y="17.940066040818298"></rect><rect opacity="0.9" fill="rgb(109,65,278)" width="1.4271115118154771" height="1.4271115118154771" x="7.861444244092262" y="3.8614442440922616"></rect><rect fill="rgb(149,105,318)" width="1.2771115118154772" height="1.2771115118154772" x="7.861444244092262" y="3.8614442440922616"></rect><rect opacity="0.9" fill="rgb(207,16,475)" width="1.2128629882374091" height="1.2128629882374091" x="11.968568505881295" y="9.968568505881295"></rect><rect fill="rgb(247,56,515)" width="1.0628629882374092" height="1.0628629882374092" x="11.968568505881295" y="9.968568505881295"></rect><rect opacity="0.9" fill="rgb(83,78,227)" width="1.1718087945843756" height="1.1718087945843756" x="16.989095602707813" y="11.989095602707811"></rect><rect fill="rgb(123,118,267)" width="1.0218087945843757" height="1.0218087945843757" x="16.989095602707813" y="11.989095602707811"></rect><rect opacity="0.9" fill="rgb(172,33,405)" width="1.3137017931037969" height="1.3137017931037969" x="19.9181491034481" y="2.9181491034481013"></rect><rect fill="rgb(212,73,445)" width="1.163701793103797" height="1.163701793103797" x="19.9181491034481" y="2.9181491034481013"></rect><rect opacity="0.9" fill="rgb(125,57,310)" width="1.1073119991825604" height="1.1073119991825604" x="14.02134400040872" y="19.02134400040872"></rect><rect fill="rgb(165,97,350)" width="0.9573119991825605" height="0.9573119991825605" x="14.02134400040872" y="19.02134400040872"></rect><rect opacity="0.9" fill="rgb(156,41,372)" width="1.274507527527577" height="1.274507527527577" x="-0.06225376376378855" y="4.937746236236212"></rect><rect fill="rgb(196,81,412)" width="1.124507527527577" height="1.124507527527577" x="-0.06225376376378855" y="4.937746236236212"></rect><rect opacity="0.9" fill="rgb(38,100,137)" width="1.025090746679669" height="1.025090746679669" x="20.062454626660166" y="4.062454626660165"></rect><rect fill="rgb(78,140,177)" width="0.8750907466796691" height="0.8750907466796691" x="20.062454626660166" y="4.062454626660165"></rect><rect opacity="0.9" fill="rgb(188,25,436)" width="1.2480146418607938" height="1.2480146418607938" x="12.950992679069603" y="7.9509926790696035"></rect><rect fill="rgb(228,65,476)" width="1.098014641860794" height="1.098014641860794" x="12.950992679069603" y="7.9509926790696035"></rect><rect opacity="0.9" fill="rgb(39,100,138)" width="1.049604386154598" height="1.049604386154598" x="6.050197806922701" y="15.050197806922702"></rect><rect fill="rgb(79,140,178)" width="0.899604386154598" height="0.899604386154598" x="6.050197806922701" y="15.050197806922702"></rect><rect opacity="0.9" fill="rgb(53,93,166)" width="1.404409120020307" height="1.404409120020307" x="18.872795439989847" y="8.872795439989847"></rect><rect fill="rgb(93,133,206)" width="1.2544091200203071" height="1.2544091200203071" x="18.872795439989847" y="8.872795439989847"></rect><rect opacity="0.9" fill="rgb(133,53,327)" width="1.0593089391399477" height="1.0593089391399477" x="9.045345530430026" y="19.045345530430026"></rect><rect fill="rgb(173,93,367)" width="0.9093089391399477" height="0.9093089391399477" x="9.045345530430026" y="19.045345530430026"></rect><rect opacity="0.9" fill="rgb(149,45,358)" width="1.2065020905989023" height="1.2065020905989023" x="10.97174895470055" y="12.97174895470055"></rect><rect fill="rgb(189,85,398)" width="1.0565020905989024" height="1.0565020905989024" x="10.97174895470055" y="12.97174895470055"></rect><rect opacity="0.9" fill="rgb(119,60,298)" width="1.3159973773997997" height="1.3159973773997997" x="7.9170013113001" y="15.9170013113001"></rect><rect fill="rgb(159,100,338)" width="1.1659973773997998" height="1.1659973773997998" x="7.9170013113001" y="15.9170013113001"></rect><rect opacity="0.9" fill="rgb(84,77,228)" width="1.3932367713097356" height="1.3932367713097356" x="0.8783816143451322" y="13.878381614345132"></rect><rect fill="rgb(124,117,268)" width="1.2432367713097356" height="1.2432367713097356" x="0.8783816143451322" y="13.878381614345132"></rect><rect opacity="0.9" fill="rgb(195,22,450)" width="1.3024732340408287" height="1.3024732340408287" x="3.9237633829795855" y="9.923763382979585"></rect><rect fill="rgb(235,62,490)" width="1.1524732340408288" height="1.1524732340408288" x="3.9237633829795855" y="9.923763382979585"></rect><rect opacity="0.9" fill="rgb(46,96,152)" width="1.1715287467641105" height="1.1715287467641105" x="1.9892356266179447" y="3.989235626617945"></rect><rect fill="rgb(86,136,192)" width="1.0215287467641105" height="1.0215287467641105" x="1.9892356266179447" y="3.989235626617945"></rect><rect opacity="0.9" fill="rgb(33,103,126)" width="1.268557547956746" height="1.268557547956746" x="17.940721226021626" y="-0.059278773978373"></rect><rect fill="rgb(73,143,166)" width="1.118557547956746" height="1.118557547956746" x="17.940721226021626" y="-0.059278773978373"></rect><rect opacity="0.9" fill="rgb(87,76,235)" width="1.1164395795825905" height="1.1164395795825905" x="16.016780210208704" y="16.016780210208704"></rect><rect fill="rgb(127,116,275)" width="0.9664395795825905" height="0.9664395795825905" x="16.016780210208704" y="16.016780210208704"></rect><rect opacity="0.9" fill="rgb(77,81,215)" width="0.9854291416060778" height="0.9854291416060778" x="11.082285429196961" y="8.082285429196961"></rect><rect fill="rgb(117,121,255)" width="0.8354291416060777" height="0.8354291416060777" x="11.082285429196961" y="8.082285429196961"></rect><rect opacity="0.9" fill="rgb(207,16,475)" width="1.2796837548394424" height="1.2796837548394424" x="14.93515812258028" y="17.93515812258028"></rect><rect fill="rgb(247,56,515)" width="1.1296837548394425" height="1.1296837548394425" x="14.93515812258028" y="17.93515812258028"></rect><rect opacity="0.9" fill="rgb(43,98,147)" width="1.2082982321232763" height="1.2082982321232763" x="8.970850883938361" y="3.970850883938362"></rect><rect fill="rgb(83,138,187)" width="1.0582982321232763" height="1.0582982321232763" x="8.970850883938361" y="3.970850883938362"></rect><rect opacity="0.9" fill="rgb(146,46,352)" width="1.0064689578404151" height="1.0064689578404151" x="0.0717655210797924" y="6.071765521079793"></rect><rect fill="rgb(186,86,392)" width="0.8564689578404152" height="0.8564689578404152" x="0.0717655210797924" y="6.071765521079793"></rect><rect opacity="0.9" fill="rgb(191,24,442)" width="1.3474133757631637" height="1.3474133757631637" x="-0.09870668788158188" y="14.901293312118419"></rect><rect fill="rgb(231,64,482)" width="1.1974133757631638" height="1.1974133757631638" x="-0.09870668788158188" y="14.901293312118419"></rect><rect opacity="0.9" fill="rgb(153,43,367)" width="0.9606696852338494" height="0.9606696852338494" x="13.094665157383075" y="9.094665157383075"></rect><rect fill="rgb(193,83,407)" width="0.8106696852338494" height="0.8106696852338494" x="13.094665157383075" y="9.094665157383075"></rect><rect opacity="0.9" fill="rgb(152,43,364)" width="1.3474017456787113" height="1.3474017456787113" x="15.901299127160645" y="-0.09870087283935569"></rect><rect fill="rgb(192,83,404)" width="1.1974017456787114" height="1.1974017456787114" x="15.901299127160645" y="-0.09870087283935569"></rect><rect opacity="0.9" fill="rgb(37,101,135)" width="1.3583341894551233" height="1.3583341894551233" x="3.8958329052724383" y="7.895832905272439"></rect><rect fill="rgb(77,141,175)" width="1.2083341894551234" height="1.2083341894551234" x="3.8958329052724383" y="7.895832905272439"></rect><rect opacity="0.9" fill="rgb(173,33,406)" width="1.2749427430321485" height="1.2749427430321485" x="-0.06247137151607429" y="16.937528628483925"></rect><rect fill="rgb(213,73,446)" width="1.1249427430321486" height="1.1249427430321486" x="-0.06247137151607429" y="16.937528628483925"></rect><rect opacity="0.9" fill="rgb(82,78,224)" width="1.4095247565044295" height="1.4095247565044295" x="2.870237621747785" y="2.870237621747785"></rect><rect fill="rgb(122,118,264)" width="1.2595247565044296" height="1.2595247565044296" x="2.870237621747785" y="2.870237621747785"></rect><rect opacity="0.9" fill="rgb(93,73,247)" width="1.1147749414394095" height="1.1147749414394095" x="16.017612529280296" y="15.017612529280296"></rect><rect fill="rgb(133,113,287)" width="0.9647749414394096" height="0.9647749414394096" x="16.017612529280296" y="15.017612529280296"></rect><rect opacity="0.9" fill="rgb(63,88,187)" width="0.9684913170578876" height="0.9684913170578876" x="11.090754341471056" y="16.090754341471055"></rect><rect fill="rgb(103,128,227)" width="0.8184913170578876" height="0.8184913170578876" x="11.090754341471056" y="16.090754341471055"></rect><rect opacity="0.9" fill="rgb(198,20,456)" width="1.274036364747909" height="1.274036364747909" x="14.937981817626046" y="8.937981817626046"></rect><rect fill="rgb(238,60,496)" width="1.124036364747909" height="1.124036364747909" x="14.937981817626046" y="8.937981817626046"></rect><rect opacity="0.9" fill="rgb(140,49,340)" width="1.3921783909119858" height="1.3921783909119858" x="14.878910804544008" y="16.878910804544006"></rect><rect fill="rgb(180,89,380)" width="1.242178390911986" height="1.242178390911986" x="14.878910804544008" y="16.878910804544006"></rect><rect opacity="0.9" fill="rgb(164,37,389)" width="1.2949380981476546" height="1.2949380981476546" x="5.927530950926172" y="-0.07246904907382734"></rect><rect fill="rgb(204,77,429)" width="1.1449380981476547" height="1.1449380981476547" x="5.927530950926172" y="-0.07246904907382734"></rect><rect opacity="0.9" fill="rgb(199,20,458)" width="1.1070653647613624" height="1.1070653647613624" x="6.021467317619319" y="17.02146731761932"></rect><rect fill="rgb(239,60,498)" width="0.9570653647613624" height="0.9570653647613624" x="6.021467317619319" y="17.02146731761932"></rect><rect opacity="0.9" fill="rgb(67,86,194)" width="1.2757712326156914" height="1.2757712326156914" x="17.937114383692155" y="10.937114383692155"></rect><rect fill="rgb(107,126,234)" width="1.1257712326156915" height="1.1257712326156915" x="17.937114383692155" y="10.937114383692155"></rect><rect opacity="0.9" fill="rgb(175,32,410)" width="1.3843401033099132" height="1.3843401033099132" x="19.882829948345044" y="14.882829948345043"></rect><rect fill="rgb(215,72,450)" width="1.2343401033099133" height="1.2343401033099133" x="19.882829948345044" y="14.882829948345043"></rect><rect opacity="0.9" fill="rgb(193,23,447)" width="1.0002471426938786" height="1.0002471426938786" x="4.07487642865306" y="12.074876428653061"></rect><rect fill="rgb(233,63,487)" width="0.8502471426938787" height="0.8502471426938787" x="4.07487642865306" y="12.074876428653061"></rect><rect opacity="0.9" fill="rgb(85,77,230)" width="1.3234058937152389" height="1.3234058937152389" x="13.913297053142381" y="11.913297053142381"></rect><rect fill="rgb(125,117,270)" width="1.173405893715239" height="1.173405893715239" x="13.913297053142381" y="11.913297053142381"></rect><rect opacity="0.9" fill="rgb(37,101,135)" width="1.2751710976000021" height="1.2751710976000021" x="14.937414451199999" y="10.937414451199999"></rect><rect fill="rgb(77,141,175)" width="1.1251710976000022" height="1.1251710976000022" x="14.937414451199999" y="10.937414451199999"></rect><rect opacity="0.9" fill="rgb(142,48,344)" width="1.0437217233664215" height="1.0437217233664215" x="15.053139138316789" y="10.053139138316789"></rect><rect fill="rgb(182,88,384)" width="0.8937217233664215" height="0.8937217233664215" x="15.053139138316789" y="10.053139138316789"></rect><rect opacity="0.9" fill="rgb(69,85,199)" width="0.9764492056722177" height="0.9764492056722177" x="9.08677539716389" y="12.08677539716389"></rect><rect fill="rgb(109,125,239)" width="0.8264492056722177" height="0.8264492056722177" x="9.08677539716389" y="12.08677539716389"></rect><rect opacity="0.9" fill="rgb(35,102,131)" width="1.0849758909951348" height="1.0849758909951348" x="4.032512054502432" y="16.032512054502433"></rect><rect fill="rgb(75,142,171)" width="0.9349758909951349" height="0.9349758909951349" x="4.032512054502432" y="16.032512054502433"></rect><rect opacity="0.9" fill="rgb(154,42,369)" width="1.303428692146829" height="1.303428692146829" x="17.923285653926584" y="2.9232856539265857"></rect><rect fill="rgb(194,82,409)" width="1.153428692146829" height="1.153428692146829" x="17.923285653926584" y="2.9232856539265857"></rect><rect opacity="0.9" fill="rgb(96,71,253)" width="1.0155929511200907" height="1.0155929511200907" x="16.067203524439954" y="8.067203524439954"></rect><rect fill="rgb(136,111,293)" width="0.8655929511200908" height="0.8655929511200908" x="16.067203524439954" y="8.067203524439954"></rect><rect opacity="0.9" fill="rgb(34,102,128)" width="1.2415715102693998" height="1.2415715102693998" x="1.9542142448653" y="13.9542142448653"></rect><rect fill="rgb(74,142,168)" width="1.0915715102694" height="1.0915715102694" x="1.9542142448653" y="13.9542142448653"></rect><rect opacity="0.9" fill="rgb(189,25,439)" width="1.2495739918248152" height="1.2495739918248152" x="1.9502130040875922" y="10.950213004087592"></rect><rect fill="rgb(229,65,479)" width="1.0995739918248153" height="1.0995739918248153" x="1.9502130040875922" y="10.950213004087592"></rect><rect opacity="0.9" fill="rgb(58,90,176)" width="1.2334612857391969" height="1.2334612857391969" x="7.958269357130401" y="5.958269357130401"></rect><rect fill="rgb(98,130,216)" width="1.083461285739197" height="1.083461285739197" x="7.958269357130401" y="5.958269357130401"></rect><rect opacity="0.9" fill="rgb(123,58,307)" width="1.0716702458687608" height="1.0716702458687608" x="12.03916487706562" y="3.0391648770656197"></rect><rect fill="rgb(163,98,347)" width="0.9216702458687608" height="0.9216702458687608" x="12.03916487706562" y="3.0391648770656197"></rect><rect opacity="0.9" fill="rgb(191,24,443)" width="1.0581435944869686" height="1.0581435944869686" x="8.045928202756516" y="0.04592820275651571"></rect><rect fill="rgb(231,64,483)" width="0.9081435944869686" height="0.9081435944869686" x="8.045928202756516" y="0.04592820275651571"></rect><rect opacity="0.9" fill="rgb(139,50,338)" width="1.3708900351317495" height="1.3708900351317495" x="4.889554982434126" y="5.889554982434126"></rect><rect fill="rgb(179,90,378)" width="1.2208900351317495" height="1.2208900351317495" x="4.889554982434126" y="5.889554982434126"></rect><rect opacity="0.9" fill="rgb(177,31,415)" width="1.418799573786056" height="1.418799573786056" x="-0.134399786893028" y="15.865600213106973"></rect><rect fill="rgb(217,71,455)" width="1.268799573786056" height="1.268799573786056" x="-0.134399786893028" y="15.865600213106973"></rect><rect opacity="0.9" fill="rgb(206,16,473)" width="1.0823390483917523" height="1.0823390483917523" x="0.03383047580412385" y="19.033830475804123"></rect><rect fill="rgb(246,56,513)" width="0.9323390483917523" height="0.9323390483917523" x="0.03383047580412385" y="19.033830475804123"></rect><rect opacity="0.9" fill="rgb(136,51,333)" width="1.2387528666968373" height="1.2387528666968373" x="13.955623566651582" y="-0.044376433348418676"></rect><rect fill="rgb(176,91,373)" width="1.0887528666968374" height="1.0887528666968374" x="13.955623566651582" y="-0.044376433348418676"></rect><rect opacity="0.9" fill="rgb(122,58,304)" width="1.337393952435999" height="1.337393952435999" x="9.906303023782" y="5.906303023782001"></rect><rect fill="rgb(162,98,344)" width="1.187393952435999" height="1.187393952435999" x="9.906303023782" y="5.906303023782001"></rect><rect opacity="0.9" fill="rgb(157,41,374)" width="1.165809899844505" height="1.165809899844505" x="15.992095050077747" y="19.992095050077747"></rect><rect fill="rgb(197,81,414)" width="1.015809899844505" height="1.015809899844505" x="15.992095050077747" y="19.992095050077747"></rect><rect opacity="0.9" fill="rgb(38,100,137)" width="1.3222093365054235" height="1.3222093365054235" x="16.913895331747288" y="14.913895331747288"></rect><rect fill="rgb(78,140,177)" width="1.1722093365054236" height="1.1722093365054236" x="16.913895331747288" y="14.913895331747288"></rect><rect opacity="0.9" fill="rgb(145,47,351)" width="1.2849334945301787" height="1.2849334945301787" x="6.932533252734911" y="10.93253325273491"></rect><rect fill="rgb(185,87,391)" width="1.1349334945301788" height="1.1349334945301788" x="6.932533252734911" y="10.93253325273491"></rect><rect opacity="0.9" fill="rgb(170,34,400)" width="1.3445579900724407" height="1.3445579900724407" x="3.9027210049637797" y="5.902721004963779"></rect><rect fill="rgb(210,74,440)" width="1.1945579900724408" height="1.1945579900724408" x="3.9027210049637797" y="5.902721004963779"></rect><rect opacity="0.9" fill="rgb(108,65,277)" width="1.039249811175347" height="1.039249811175347" x="3.0553750944123266" y="14.055375094412327"></rect><rect fill="rgb(148,105,317)" width="0.8892498111753471" height="0.8892498111753471" x="3.0553750944123266" y="14.055375094412327"></rect><rect opacity="0.9" fill="rgb(32,103,124)" width="1.1090045139520583" height="1.1090045139520583" x="9.02049774302397" y="20.02049774302397"></rect><rect fill="rgb(72,143,164)" width="0.9590045139520584" height="0.9590045139520584" x="9.02049774302397" y="20.02049774302397"></rect><rect opacity="0.9" fill="rgb(148,45,357)" width="1.3593886270996474" height="1.3593886270996474" x="17.895305686450175" y="1.8953056864501763"></rect><rect fill="rgb(188,85,397)" width="1.2093886270996475" height="1.2093886270996475" x="17.895305686450175" y="1.8953056864501763"></rect><rect opacity="0.9" fill="rgb(98,70,256)" width="1.2004122647463211" height="1.2004122647463211" x="10.97479386762684" y="-0.025206132373160606"></rect><rect fill="rgb(138,110,296)" width="1.0504122647463212" height="1.0504122647463212" x="10.97479386762684" y="-0.025206132373160606"></rect><rect opacity="0.9" fill="rgb(179,30,419)" width="1.0011569476319766" height="1.0011569476319766" x="12.074421526184011" y="0.07442152618401171"></rect><rect fill="rgb(219,70,459)" width="0.8511569476319766" height="0.8511569476319766" x="12.074421526184011" y="0.07442152618401171"></rect><rect opacity="0.9" fill="rgb(108,65,277)" width="1.2757836326220888" height="1.2757836326220888" x="16.937108183688956" y="3.9371081836889554"></rect><rect fill="rgb(148,105,317)" width="1.125783632622089" height="1.125783632622089" x="16.937108183688956" y="3.9371081836889554"></rect><rect opacity="0.9" fill="rgb(74,82,209)" width="1.0915459505549348" height="1.0915459505549348" x="3.0292270247225326" y="6.029227024722533"></rect><rect fill="rgb(114,122,249)" width="0.9415459505549347" height="0.9415459505549347" x="3.0292270247225326" y="6.029227024722533"></rect><rect opacity="0.9" fill="rgb(157,41,374)" width="0.964433652422147" height="0.964433652422147" x="4.092783173788926" y="18.092783173788927"></rect><rect fill="rgb(197,81,414)" width="0.8144336524221469" height="0.8144336524221469" x="4.092783173788926" y="18.092783173788927"></rect><rect opacity="0.9" fill="rgb(66,86,193)" width="1.3830712638826035" height="1.3830712638826035" x="1.8834643680586982" y="17.883464368058696"></rect><rect fill="rgb(106,126,233)" width="1.2330712638826036" height="1.2330712638826036" x="1.8834643680586982" y="17.883464368058696"></rect><rect opacity="0.9" fill="rgb(49,95,158)" width="0.976496948109651" height="0.976496948109651" x="9.086751525945175" y="1.0867515259451745"></rect><rect fill="rgb(89,135,198)" width="0.826496948109651" height="0.826496948109651" x="9.086751525945175" y="1.0867515259451745"></rect><rect opacity="0.9" fill="rgb(147,46,354)" width="1.2164465769716577" height="1.2164465769716577" x="7.966776711514171" y="17.96677671151417"></rect><rect fill="rgb(187,86,394)" width="1.0664465769716578" height="1.0664465769716578" x="7.966776711514171" y="17.96677671151417"></rect><rect opacity="0.9" fill="rgb(180,29,420)" width="1.4197680105459052" height="1.4197680105459052" x="-0.13488400527295263" y="3.8651159947270473"></rect><rect fill="rgb(220,69,460)" width="1.2697680105459053" height="1.2697680105459053" x="-0.13488400527295263" y="3.8651159947270473"></rect><rect opacity="0.9" fill="rgb(80,79,220)" width="1.1915905849658086" height="1.1915905849658086" x="1.9792047075170958" y="8.979204707517095"></rect><rect fill="rgb(120,119,260)" width="1.0415905849658087" height="1.0415905849658087" x="1.9792047075170958" y="8.979204707517095"></rect><rect opacity="0.9" fill="rgb(143,48,347)" width="1.3248748086014728" height="1.3248748086014728" x="9.912562595699264" y="4.912562595699264"></rect><rect fill="rgb(183,88,387)" width="1.1748748086014729" height="1.1748748086014729" x="9.912562595699264" y="4.912562595699264"></rect><rect opacity="0.9" fill="rgb(209,15,478)" width="1.046967266573582" height="1.046967266573582" x="18.05151636671321" y="4.051516366713209"></rect><rect fill="rgb(249,55,518)" width="0.8969672665735822" height="0.8969672665735822" x="18.05151636671321" y="4.051516366713209"></rect><rect opacity="0.9" fill="rgb(117,61,294)" width="1.378785733600621" height="1.378785733600621" x="2.8856071331996893" y="17.885607133199688"></rect><rect fill="rgb(157,101,334)" width="1.2287857336006212" height="1.2287857336006212" x="2.8856071331996893" y="17.885607133199688"></rect><rect opacity="0.9" fill="rgb(179,30,419)" width="1.2472594951794307" height="1.2472594951794307" x="1.9513702524102845" y="16.951370252410285"></rect><rect fill="rgb(219,70,459)" width="1.0972594951794308" height="1.0972594951794308" x="1.9513702524102845" y="16.951370252410285"></rect><rect opacity="0.9" fill="rgb(161,39,383)" width="1.366649877099098" height="1.366649877099098" x="9.891675061450451" y="16.89167506145045"></rect><rect fill="rgb(201,79,423)" width="1.216649877099098" height="1.216649877099098" x="9.891675061450451" y="16.89167506145045"></rect><rect opacity="0.9" fill="rgb(77,81,214)" width="1.2793759832881768" height="1.2793759832881768" x="0.9353120083559116" y="5.935312008355911"></rect><rect fill="rgb(117,121,254)" width="1.129375983288177" height="1.129375983288177" x="0.9353120083559116" y="5.935312008355911"></rect><rect opacity="0.9" fill="rgb(139,50,339)" width="1.3219706419952448" height="1.3219706419952448" x="18.914014679002378" y="9.914014679002378"></rect><rect fill="rgb(179,90,379)" width="1.171970641995245" height="1.171970641995245" x="18.914014679002378" y="9.914014679002378"></rect><rect opacity="0.9" fill="rgb(200,19,461)" width="1.1567915603027912" height="1.1567915603027912" x="-0.003395780151395633" y="-0.003395780151395633"></rect><rect fill="rgb(240,59,501)" width="1.0067915603027913" height="1.0067915603027913" x="-0.003395780151395633" y="-0.003395780151395633"></rect><rect opacity="0.9" fill="rgb(61,89,183)" width="1.3851126869744397" height="1.3851126869744397" x="10.88244365651278" y="19.88244365651278"></rect><rect fill="rgb(101,129,223)" width="1.2351126869744398" height="1.2351126869744398" x="10.88244365651278" y="19.88244365651278"></rect><rect opacity="0.9" fill="rgb(188,25,437)" width="1.1322207836355038" height="1.1322207836355038" x="14.008889608182248" y="2.008889608182248"></rect><rect fill="rgb(228,65,477)" width="0.9822207836355038" height="0.9822207836355038" x="14.008889608182248" y="2.008889608182248"></rect><rect opacity="0.9" fill="rgb(155,42,370)" width="1.3701422042868754" height="1.3701422042868754" x="19.889928897856564" y="8.889928897856562"></rect><rect fill="rgb(195,82,410)" width="1.2201422042868755" height="1.2201422042868755" x="19.889928897856564" y="8.889928897856562"></rect><rect opacity="0.9" fill="rgb(204,17,469)" width="1.118624883152248" height="1.118624883152248" x="6.015687558423876" y="3.015687558423876"></rect><rect fill="rgb(244,57,509)" width="0.9686248831522482" height="0.9686248831522482" x="6.015687558423876" y="3.015687558423876"></rect><rect opacity="0.9" fill="rgb(102,68,264)" width="1.040000530858671" height="1.040000530858671" x="4.054999734570664" y="2.0549997345706643"></rect><rect fill="rgb(142,108,304)" width="0.8900005308586711" height="0.8900005308586711" x="4.054999734570664" y="2.0549997345706643"></rect><rect opacity="0.9" fill="rgb(32,103,125)" width="1.3185520389504393" height="1.3185520389504393" x="7.91572398052478" y="4.91572398052478"></rect><rect fill="rgb(72,143,165)" width="1.1685520389504394" height="1.1685520389504394" x="7.91572398052478" y="4.91572398052478"></rect><rect opacity="0.9" fill="rgb(155,42,371)" width="1.0900110927363156" height="1.0900110927363156" x="12.029994453631842" y="6.029994453631843"></rect><rect fill="rgb(195,82,411)" width="0.9400110927363156" height="0.9400110927363156" x="12.029994453631842" y="6.029994453631843"></rect><rect opacity="0.9" fill="rgb(51,94,162)" width="1.0618109924700851" height="1.0618109924700851" x="10.044094503764958" y="4.044094503764957"></rect><rect fill="rgb(91,134,202)" width="0.9118109924700852" height="0.9118109924700852" x="10.044094503764958" y="4.044094503764957"></rect><rect opacity="0.9" fill="rgb(169,35,399)" width="1.3397196828644462" height="1.3397196828644462" x="3.905140158567777" y="2.905140158567777"></rect><rect fill="rgb(209,75,439)" width="1.1897196828644463" height="1.1897196828644463" x="3.905140158567777" y="2.905140158567777"></rect><rect opacity="0.9" fill="rgb(120,59,301)" width="1.3514779909382304" height="1.3514779909382304" x="10.899261004530885" y="17.899261004530885"></rect><rect fill="rgb(160,99,341)" width="1.2014779909382305" height="1.2014779909382305" x="10.899261004530885" y="17.899261004530885"></rect><rect opacity="0.9" fill="rgb(145,47,351)" width="1.1330680721969597" height="1.1330680721969597" x="20.00846596390152" y="2.00846596390152"></rect><rect fill="rgb(185,87,391)" width="0.9830680721969598" height="0.9830680721969598" x="20.00846596390152" y="2.00846596390152"></rect><rect opacity="0.9" fill="rgb(166,36,392)" width="1.1182370651467346" height="1.1182370651467346" x="8.015881467426633" y="15.015881467426633"></rect><rect fill="rgb(206,76,432)" width="0.9682370651467347" height="0.9682370651467347" x="8.015881467426633" y="15.015881467426633"></rect><rect opacity="0.9" fill="rgb(131,54,322)" width="1.4469009541414566" height="1.4469009541414566" x="5.851549522929272" y="3.8515495229292718"></rect><rect fill="rgb(171,94,362)" width="1.2969009541414567" height="1.2969009541414567" x="5.851549522929272" y="3.8515495229292718"></rect><rect opacity="0.9" fill="rgb(115,62,291)" width="1.1830536405633834" height="1.1830536405633834" x="17.98347317971831" y="9.983473179718308"></rect><rect fill="rgb(155,102,331)" width="1.0330536405633834" height="1.0330536405633834" x="17.98347317971831" y="9.983473179718308"></rect><rect opacity="0.9" fill="rgb(196,21,452)" width="1.2078062223370183" height="1.2078062223370183" x="1.9710968888314908" y="5.971096888831491"></rect><rect fill="rgb(236,61,492)" width="1.0578062223370184" height="1.0578062223370184" x="1.9710968888314908" y="5.971096888831491"></rect><rect opacity="0.9" fill="rgb(91,74,243)" width="1.4281814817763323" height="1.4281814817763323" x="15.860909259111834" y="5.860909259111834"></rect><rect fill="rgb(131,114,283)" width="1.2781814817763324" height="1.2781814817763324" x="15.860909259111834" y="5.860909259111834"></rect><rect opacity="0.9" fill="rgb(122,58,304)" width="1.3172885817653195" height="1.3172885817653195" x="-0.08364429088265979" y="2.91635570911734"></rect><rect fill="rgb(162,98,344)" width="1.1672885817653196" height="1.1672885817653196" x="-0.08364429088265979" y="2.91635570911734"></rect><rect opacity="0.9" fill="rgb(141,49,343)" width="1.1765029702718857" height="1.1765029702718857" x="1.9867485148640571" y="19.986748514864058"></rect><rect fill="rgb(181,89,383)" width="1.0265029702718858" height="1.0265029702718858" x="1.9867485148640571" y="19.986748514864058"></rect><rect opacity="0.9" fill="rgb(70,84,200)" width="1.3852764931950712" height="1.3852764931950712" x="17.882361753402463" y="17.882361753402463"></rect><rect fill="rgb(110,124,240)" width="1.2352764931950713" height="1.2352764931950713" x="17.882361753402463" y="17.882361753402463"></rect><rect opacity="0.9" fill="rgb(37,101,134)" width="1.2792027155456065" height="1.2792027155456065" x="8.935398642227197" y="4.935398642227197"></rect><rect fill="rgb(77,141,174)" width="1.1292027155456066" height="1.1292027155456066" x="8.935398642227197" y="4.935398642227197"></rect><rect opacity="0.9" fill="rgb(58,90,176)" width="1.1719624509598001" height="1.1719624509598001" x="2.9890187745201" y="7.9890187745201"></rect><rect fill="rgb(98,130,216)" width="1.0219624509598002" height="1.0219624509598002" x="2.9890187745201" y="7.9890187745201"></rect><rect opacity="0.9" fill="rgb(55,92,170)" width="1.411774499546762" height="1.411774499546762" x="-0.13088724977338106" y="13.86911275022662"></rect><rect fill="rgb(95,132,210)" width="1.2617744995467621" height="1.2617744995467621" x="-0.13088724977338106" y="13.86911275022662"></rect><rect opacity="0.9" fill="rgb(57,91,174)" width="1.2379765940689582" height="1.2379765940689582" x="7.956011702965521" y="1.9560117029655208"></rect><rect fill="rgb(97,131,214)" width="1.0879765940689583" height="1.0879765940689583" x="7.956011702965521" y="1.9560117029655208"></rect><rect opacity="0.9" fill="rgb(208,15,477)" width="1.0783615544561005" height="1.0783615544561005" x="16.03581922277195" y="9.03581922277195"></rect><rect fill="rgb(248,55,517)" width="0.9283615544561006" height="0.9283615544561006" x="16.03581922277195" y="9.03581922277195"></rect><rect opacity="0.9" fill="rgb(163,38,386)" width="1.302893650652368" height="1.302893650652368" x="11.923553174673817" y="8.923553174673817"></rect><rect fill="rgb(203,78,426)" width="1.1528936506523682" height="1.1528936506523682" x="11.923553174673817" y="8.923553174673817"></rect><rect opacity="0.9" fill="rgb(95,72,250)" width="1.324430173796963" height="1.324430173796963" x="11.912784913101518" y="4.912784913101518"></rect><rect fill="rgb(135,112,290)" width="1.1744301737969631" height="1.1744301737969631" x="11.912784913101518" y="4.912784913101518"></rect><rect opacity="0.9" fill="rgb(119,60,299)" width="1.3120732157380002" height="1.3120732157380002" x="0.9189633921309999" y="8.918963392131"></rect><rect fill="rgb(159,100,339)" width="1.1620732157380003" height="1.1620732157380003" x="0.9189633921309999" y="8.918963392131"></rect><rect opacity="0.9" fill="rgb(79,80,218)" width="1.1577766568797279" height="1.1577766568797279" x="16.996111671560136" y="5.996111671560136"></rect><rect fill="rgb(119,120,258)" width="1.007776656879728" height="1.007776656879728" x="16.996111671560136" y="5.996111671560136"></rect><rect opacity="0.9" fill="rgb(180,29,420)" width="1.2118333623630846" height="1.2118333623630846" x="8.969083318818457" y="12.969083318818457"></rect><rect fill="rgb(220,69,460)" width="1.0618333623630847" height="1.0618333623630847" x="8.969083318818457" y="12.969083318818457"></rect><rect opacity="0.9" fill="rgb(30,104,121)" width="1.1778675865795876" height="1.1778675865795876" x="7.986066206710206" y="11.986066206710206"></rect><rect fill="rgb(70,144,161)" width="1.0278675865795877" height="1.0278675865795877" x="7.986066206710206" y="11.986066206710206"></rect><rect opacity="0.9" fill="rgb(63,88,187)" width="1.432957586018555" height="1.432957586018555" x="13.858521206990723" y="17.858521206990723"></rect><rect fill="rgb(103,128,227)" width="1.2829575860185551" height="1.2829575860185551" x="13.858521206990723" y="17.858521206990723"></rect><rect opacity="0.9" fill="rgb(117,61,295)" width="1.4135134404476615" height="1.4135134404476615" x="12.86824327977617" y="18.86824327977617"></rect><rect fill="rgb(157,101,335)" width="1.2635134404476616" height="1.2635134404476616" x="12.86824327977617" y="18.86824327977617"></rect><rect opacity="0.9" fill="rgb(143,48,346)" width="1.0825350824268267" height="1.0825350824268267" x="14.033732458786586" y="6.033732458786587"></rect><rect fill="rgb(183,88,386)" width="0.9325350824268267" height="0.9325350824268267" x="14.033732458786586" y="6.033732458786587"></rect><rect opacity="0.9" fill="rgb(54,92,168)" width="1.3688755351554383" height="1.3688755351554383" x="17.89056223242228" y="7.890562232422281"></rect><rect fill="rgb(94,132,208)" width="1.2188755351554383" height="1.2188755351554383" x="17.89056223242228" y="7.890562232422281"></rect><rect opacity="0.9" fill="rgb(191,24,443)" width="1.3441343586529069" height="1.3441343586529069" x="9.902932820673547" y="13.902932820673547"></rect><rect fill="rgb(231,64,483)" width="1.194134358652907" height="1.194134358652907" x="9.902932820673547" y="13.902932820673547"></rect><rect opacity="0.9" fill="rgb(41,99,143)" width="1.2778063042725556" height="1.2778063042725556" x="15.936096847863721" y="16.936096847863723"></rect><rect fill="rgb(81,139,183)" width="1.1278063042725557" height="1.1278063042725557" x="15.936096847863721" y="16.936096847863723"></rect><rect opacity="0.9" fill="rgb(183,28,427)" width="1.0863101775488408" height="1.0863101775488408" x="11.03184491122558" y="7.03184491122558"></rect><rect fill="rgb(223,68,467)" width="0.9363101775488409" height="0.9363101775488409" x="11.03184491122558" y="7.03184491122558"></rect><rect opacity="0.9" fill="rgb(168,35,397)" width="1.0665229093779098" height="1.0665229093779098" x="20.041738545311045" y="8.041738545311045"></rect><rect fill="rgb(208,75,437)" width="0.9165229093779099" height="0.9165229093779099" x="20.041738545311045" y="8.041738545311045"></rect><rect opacity="0.9" fill="rgb(88,75,237)" width="1.1794438355314878" height="1.1794438355314878" x="16.985278082234256" y="9.985278082234256"></rect><rect fill="rgb(128,115,277)" width="1.0294438355314879" height="1.0294438355314879" x="16.985278082234256" y="9.985278082234256"></rect><rect opacity="0.9" fill="rgb(63,88,186)" width="1.0246141845041015" height="1.0246141845041015" x="17.062692907747948" y="17.062692907747948"></rect><rect fill="rgb(103,128,226)" width="0.8746141845041016" height="0.8746141845041016" x="17.062692907747948" y="17.062692907747948"></rect><rect opacity="0.9" fill="rgb(102,68,265)" width="1.0209167736936335" height="1.0209167736936335" x="13.064541613153184" y="20.06454161315318"></rect><rect fill="rgb(142,108,305)" width="0.8709167736936335" height="0.8709167736936335" x="13.064541613153184" y="20.06454161315318"></rect><rect opacity="0.9" fill="rgb(59,90,179)" width="1.1843809139152122" height="1.1843809139152122" x="13.982809543042395" y="9.982809543042395"></rect><rect fill="rgb(99,130,219)" width="1.0343809139152123" height="1.0343809139152123" x="13.982809543042395" y="9.982809543042395"></rect><rect opacity="0.9" fill="rgb(54,92,168)" width="1.2686175222484335" height="1.2686175222484335" x="12.940691238875782" y="10.940691238875782"></rect><rect fill="rgb(94,132,208)" width="1.1186175222484336" height="1.1186175222484336" x="12.940691238875782" y="10.940691238875782"></rect><rect opacity="0.9" fill="rgb(102,68,265)" width="1.4085094432179166" height="1.4085094432179166" x="4.870745278391041" y="-0.12925472160895835"></rect><rect fill="rgb(142,108,305)" width="1.2585094432179167" height="1.2585094432179167" x="4.870745278391041" y="-0.12925472160895835"></rect><rect opacity="0.9" fill="rgb(141,49,343)" width="1.282781978307192" height="1.282781978307192" x="14.933609010846403" y="11.933609010846403"></rect><rect fill="rgb(181,89,383)" width="1.1327819783071922" height="1.1327819783071922" x="14.933609010846403" y="11.933609010846403"></rect><rect opacity="0.9" fill="rgb(164,37,388)" width="1.1860786238059258" height="1.1860786238059258" x="0.9819606880970371" y="10.981960688097036"></rect><rect fill="rgb(204,77,428)" width="1.0360786238059259" height="1.0360786238059259" x="0.9819606880970371" y="10.981960688097036"></rect><rect opacity="0.9" fill="rgb(132,53,325)" width="1.2761670169904726" height="1.2761670169904726" x="16.936916491504764" y="-0.06308350849523636"></rect><rect fill="rgb(172,93,365)" width="1.1261670169904727" height="1.1261670169904727" x="16.936916491504764" y="-0.06308350849523636"></rect><rect opacity="0.9" fill="rgb(196,21,453)" width="1.1369000906377662" height="1.1369000906377662" x="18.006549954681116" y="6.006549954681117"></rect><rect fill="rgb(236,61,493)" width="0.9869000906377663" height="0.9869000906377663" x="18.006549954681116" y="6.006549954681117"></rect><rect opacity="0.9" fill="rgb(70,84,200)" width="1.1725574358725417" height="1.1725574358725417" x="2.9887212820637292" y="1.9887212820637292"></rect><rect fill="rgb(110,124,240)" width="1.0225574358725418" height="1.0225574358725418" x="2.9887212820637292" y="1.9887212820637292"></rect><rect opacity="0.9" fill="rgb(161,39,382)" width="1.22419187334789" height="1.22419187334789" x="16.962904063326054" y="8.962904063326055"></rect><rect fill="rgb(201,79,422)" width="1.0741918733478901" height="1.0741918733478901" x="16.962904063326054" y="8.962904063326055"></rect><rect opacity="0.9" fill="rgb(162,38,384)" width="1.1736062327591479" height="1.1736062327591479" x="3.988196883620426" y="16.988196883620425"></rect><rect fill="rgb(202,78,424)" width="1.023606232759148" height="1.023606232759148" x="3.988196883620426" y="16.988196883620425"></rect><rect opacity="0.9" fill="rgb(128,55,317)" width="1.1755853406911196" height="1.1755853406911196" x="16.98720732965444" y="2.9872073296544404"></rect><rect fill="rgb(168,95,357)" width="1.0255853406911197" height="1.0255853406911197" x="16.98720732965444" y="2.9872073296544404"></rect><rect opacity="0.9" fill="rgb(197,21,455)" width="1.0340082167986326" height="1.0340082167986326" x="3.0579958916006835" y="16.057995891600683"></rect><rect fill="rgb(237,61,495)" width="0.8840082167986326" height="0.8840082167986326" x="3.0579958916006835" y="16.057995891600683"></rect><rect opacity="0.9" fill="rgb(100,69,261)" width="1.112465478320426" height="1.112465478320426" x="19.018767260839788" y="17.018767260839788"></rect><rect fill="rgb(140,109,301)" width="0.962465478320426" height="0.962465478320426" x="19.018767260839788" y="17.018767260839788"></rect><rect opacity="0.9" fill="rgb(125,57,311)" width="1.0450069529263735" height="1.0450069529263735" x="15.052496523536814" y="13.052496523536814"></rect><rect fill="rgb(165,97,351)" width="0.8950069529263736" height="0.8950069529263736" x="15.052496523536814" y="13.052496523536814"></rect><rect opacity="0.9" fill="rgb(79,80,218)" width="1.3876444998980386" height="1.3876444998980386" x="2.8811777500509805" y="19.88117775005098"></rect><rect fill="rgb(119,120,258)" width="1.2376444998980387" height="1.2376444998980387" x="2.8811777500509805" y="19.88117775005098"></rect><rect opacity="0.9" fill="rgb(162,38,384)" width="1.2262350396425634" height="1.2262350396425634" x="9.96188248017872" y="7.961882480178718"></rect><rect fill="rgb(202,78,424)" width="1.0762350396425635" height="1.0762350396425635" x="9.96188248017872" y="7.961882480178718"></rect><rect opacity="0.9" fill="rgb(36,101,132)" width="1.1313687915398913" height="1.1313687915398913" x="0.009315604230054286" y="20.009315604230054"></rect><rect fill="rgb(76,141,172)" width="0.9813687915398914" height="0.9813687915398914" x="0.009315604230054286" y="20.009315604230054"></rect><rect opacity="0.9" fill="rgb(79,80,218)" width="1.2258877201233216" height="1.2258877201233216" x="16.96205613993834" y="1.9620561399383392"></rect><rect fill="rgb(119,120,258)" width="1.0758877201233217" height="1.0758877201233217" x="16.96205613993834" y="1.9620561399383392"></rect><rect opacity="0.9" fill="rgb(135,52,330)" width="1.0056591895933995" height="1.0056591895933995" x="19.072170405203302" y="6.0721704052033"></rect><rect fill="rgb(175,92,370)" width="0.8556591895933996" height="0.8556591895933996" x="19.072170405203302" y="6.0721704052033"></rect><rect opacity="0.9" fill="rgb(182,28,424)" width="1.429229826665137" height="1.429229826665137" x="13.860385086667431" y="12.860385086667431"></rect><rect fill="rgb(222,68,464)" width="1.2792298266651372" height="1.2792298266651372" x="13.860385086667431" y="12.860385086667431"></rect><rect opacity="0.9" fill="rgb(130,54,321)" width="1.1669845917485704" height="1.1669845917485704" x="1.9915077041257148" y="7.9915077041257145"></rect><rect fill="rgb(170,94,361)" width="1.0169845917485705" height="1.0169845917485705" x="1.9915077041257148" y="7.9915077041257145"></rect><rect opacity="0.9" fill="rgb(205,17,470)" width="1.2754360584626472" height="1.2754360584626472" x="7.937281970768677" y="16.937281970768677"></rect><rect fill="rgb(245,57,510)" width="1.1254360584626473" height="1.1254360584626473" x="7.937281970768677" y="16.937281970768677"></rect><rect opacity="0.9" fill="rgb(99,70,259)" width="1.4372689014824493" height="1.4372689014824493" x="6.856365549258776" y="11.856365549258776"></rect><rect fill="rgb(139,110,299)" width="1.2872689014824494" height="1.2872689014824494" x="6.856365549258776" y="11.856365549258776"></rect><rect opacity="0.9" fill="rgb(83,78,227)" width="1.2827645927197484" height="1.2827645927197484" x="14.933617703640126" y="5.933617703640126"></rect><rect fill="rgb(123,118,267)" width="1.1327645927197485" height="1.1327645927197485" x="14.933617703640126" y="5.933617703640126"></rect><rect opacity="0.9" fill="rgb(170,34,400)" width="1.1832313058368953" height="1.1832313058368953" x="9.983384347081552" y="8.983384347081552"></rect><rect fill="rgb(210,74,440)" width="1.0332313058368954" height="1.0332313058368954" x="9.983384347081552" y="8.983384347081552"></rect><rect opacity="0.9" fill="rgb(77,81,215)" width="1.2820640290940413" height="1.2820640290940413" x="8.933967985452979" y="7.93396798545298"></rect><rect fill="rgb(117,121,255)" width="1.1320640290940414" height="1.1320640290940414" x="8.933967985452979" y="7.93396798545298"></rect><rect opacity="0.9" fill="rgb(143,48,347)" width="1.4040598865296943" height="1.4040598865296943" x="4.872970056735153" y="13.872970056735152"></rect><rect fill="rgb(183,88,387)" width="1.2540598865296944" height="1.2540598865296944" x="4.872970056735153" y="13.872970056735152"></rect><rect opacity="0.9" fill="rgb(73,83,207)" width="1.3586136674746072" height="1.3586136674746072" x="5.895693166262697" y="19.895693166262696"></rect><rect fill="rgb(113,123,247)" width="1.2086136674746073" height="1.2086136674746073" x="5.895693166262697" y="19.895693166262696"></rect><rect opacity="0.9" fill="rgb(93,73,246)" width="1.0274185643990017" height="1.0274185643990017" x="19.0612907178005" y="18.0612907178005"></rect><rect fill="rgb(133,113,286)" width="0.8774185643990018" height="0.8774185643990018" x="19.0612907178005" y="18.0612907178005"></rect><rect opacity="0.9" fill="rgb(37,101,135)" width="1.0022971190931211" height="1.0022971190931211" x="6.073851440453439" y="10.073851440453438"></rect><rect fill="rgb(77,141,175)" width="0.8522971190931212" height="0.8522971190931212" x="6.073851440453439" y="10.073851440453438"></rect><rect opacity="0.9" fill="rgb(135,52,330)" width="1.4137873771811218" height="1.4137873771811218" x="13.86810631140944" y="3.868106311409439"></rect><rect fill="rgb(175,92,370)" width="1.2637873771811219" height="1.2637873771811219" x="13.86810631140944" y="3.868106311409439"></rect><rect opacity="0.9" fill="rgb(187,26,435)" width="0.9661092509682941" height="0.9661092509682941" x="14.091945374515852" y="3.091945374515853"></rect><rect fill="rgb(227,66,475)" width="0.8161092509682941" height="0.8161092509682941" x="14.091945374515852" y="3.091945374515853"></rect><rect opacity="0.9" fill="rgb(98,70,257)" width="1.0691360906216179" height="1.0691360906216179" x="9.040431954689192" y="3.040431954689191"></rect><rect fill="rgb(138,110,297)" width="0.9191360906216179" height="0.9191360906216179" x="9.040431954689192" y="3.040431954689191"></rect><rect opacity="0.9" fill="rgb(158,40,376)" width="1.3329964636836522" height="1.3329964636836522" x="12.908501768158175" y="15.908501768158175"></rect><rect fill="rgb(198,80,416)" width="1.1829964636836523" height="1.1829964636836523" x="12.908501768158175" y="15.908501768158175"></rect><rect opacity="0.9" fill="rgb(167,36,394)" width="1.0659311429197569" height="1.0659311429197569" x="15.042034428540122" y="20.04203442854012"></rect><rect fill="rgb(207,76,434)" width="0.915931142919757" height="0.915931142919757" x="15.042034428540122" y="20.04203442854012"></rect><rect opacity="0.9" fill="rgb(40,99,140)" width="1.291030302498648" height="1.291030302498648" x="9.929484848750675" y="18.929484848750675"></rect><rect fill="rgb(80,139,180)" width="1.1410303024986481" height="1.1410303024986481" x="9.929484848750675" y="18.929484848750675"></rect><rect opacity="0.9" fill="rgb(157,41,375)" width="1.1724759225062873" height="1.1724759225062873" x="9.988762038746856" y="12.988762038746856"></rect><rect fill="rgb(197,81,415)" width="1.0224759225062874" height="1.0224759225062874" x="9.988762038746856" y="12.988762038746856"></rect></svg>